<svg xmlns="http://www.w3.org/2000/svg" width="944.667" height="544.729" viewBox="0 0 944.667 544.729">
  <g id="Group_2616" data-name="Group 2616" transform="translate(-1480.967 -431.78)">
    <path id="Path_81" data-name="Path 81" d="M1938.376,524.334l-400.8,130.189.766-52.947,400.8-130.189Z" transform="translate(63.418 44.299)" fill="#ef4e56"/>
    <path id="Path_82" data-name="Path 82" d="M2134.9,609.358l-623.45,200.2V703.07l623.45-200.2Z" transform="translate(34.147 79.447)" fill="#ef4e56"/>
    <path id="Path_83" data-name="Path 83" d="M1804.126,455.284" transform="translate(370.833 26.331)" fill="#fff" stroke="#707070" stroke-width="10" opacity="0.8" style="mix-blend-mode: hard-light;isolation: isolate"/>
    <path id="Path_84" data-name="Path 84" d="M2162.535,457.721,1562.049,652.448V644.54l600.486-194.727Z" transform="translate(97.041 20.202)" fill="#a70f17"/>
    <path id="Path_85" data-name="Path 85" d="M2202.421,601.176,1601.935,795.9v-7.908l600.486-194.727Z" transform="translate(147.514 180.606)" fill="#960d13"/>
    <path id="Path_86" data-name="Path 86" d="M2234.849,585.943l-661.86,214.629v-8.716l661.86-214.629Z" transform="translate(115.087 162.636)" fill="#a70f17"/>
    <path id="Path_87" data-name="Path 87" d="M1817.063,508.811,1498.17,612.222v-4.2l318.893-103.411Z" transform="translate(19.271 81.483)" fill="#f2f2f2"/>
    <path id="Path_88" data-name="Path 88" d="M2139.5,508.32l-480.15,155.7.147-11.675,480-155.656Z" transform="translate(211.831 72.608)" fill="#fff"/>
    <path id="Path_89" data-name="Path 89" d="M2284.8,498.433,1537.578,736.851V707.785L2284.8,469.367Z" transform="translate(63.418 42.107)" fill="#960d13"/>
    <path id="Path_90" data-name="Path 90" d="M1986.938,451.612,1647.246,561.768V541.936L1986.938,431.78Z" transform="translate(193.408 0)" fill="#e41c26"/>
    <path id="Path_91" data-name="Path 91" d="M2283.866,463.439l-687.06,223.514V657.969l687.06-223.514Z" transform="translate(141.768 2.997)" fill="#e41c26"/>
    <path id="Path_92" data-name="Path 92" d="M2051.615,488.622l-506.971,164.4v-6.677l506.971-164.4Z" transform="translate(71.334 56.113)" fill="#ef4e56"/>
    <path id="Path_93" data-name="Path 93" d="M2235.077,590.545l-754.11,246.461,2.1-58.8,754.111-246.461Z" transform="translate(0 111.684)" fill="#e41c26"/>
  </g>
</svg>
