<svg xmlns="http://www.w3.org/2000/svg" width="165.001" height="119.218" viewBox="0 0 165.001 119.218">
  <g id="Group_2626" data-name="Group 2626" transform="translate(-115.762 -214.888)">
    <path id="Path_4155" data-name="Path 4155" d="M413.884,402.094a38.748,38.748,0,0,1,12.538,2.583,39.864,39.864,0,0,1,11.058,6.465,38.017,38.017,0,0,1,5.08,5.087c.149.181.424-.058.275-.238a39.041,39.041,0,0,0-9.756-8.433,40.128,40.128,0,0,0-11.945-4.875,38.4,38.4,0,0,0-7.22-.951C413.68,401.724,413.65,402.086,413.884,402.094Z" transform="translate(-171.73 -107.687)" fill="#ffc40d"/>
    <path id="Path_4156" data-name="Path 4156" d="M434.172,394.147a35.265,35.265,0,0,1,9.737-6.848,16.52,16.52,0,0,1,6.667-1.6,4.5,4.5,0,0,1,2.984.889c1.01.971.446,2.461-.641,3.412a13.04,13.04,0,0,1-4.479,2.212C444.056,393.66,438.908,393.742,434.172,394.147Z" transform="translate(-183.516 -98.447)" fill="#ffc40d"/>
    <path id="Path_4157" data-name="Path 4157" d="M459.832,410.662a27.557,27.557,0,0,1,8.506-3.751,12.908,12.908,0,0,1,5.351-.2,3.514,3.514,0,0,1,2.149,1.139c.624.9-.036,1.953-1.014,2.514a10.164,10.164,0,0,1-3.769,1.007C467.475,411.8,463.52,411.078,459.832,410.662Z" transform="translate(-198.305 -110.441)" fill="#ffc40d"/>
    <path id="Path_4158" data-name="Path 4158" d="M463.345,418.3a35.268,35.268,0,0,1,10.783,5.041,16.518,16.518,0,0,1,4.7,4.989,4.5,4.5,0,0,1,.712,3.031c-.34,1.359-1.914,1.611-3.278,1.141a13.041,13.041,0,0,1-4.147-2.785C468.683,426.631,466.051,422.2,463.345,418.3Z" transform="translate(-200.33 -117.235)" fill="#ffc40d"/>
    <path id="Path_4159" data-name="Path 4159" d="M442.833,407.682a32.2,32.2,0,0,1,5.854,8.3,16.775,16.775,0,0,1,1.652,5.835,4.446,4.446,0,0,1-.485,2.69c-.676.944-1.85.517-2.644-.4a12.565,12.565,0,0,1-1.978-3.864C443.845,416.425,443.449,411.863,442.833,407.682Z" transform="translate(-188.507 -111.117)" fill="#ffc40d"/>
    <path id="Path_4160" data-name="Path 4160" d="M427.9,403.553a20.662,20.662,0,0,1,3.755,5.324,10.76,10.76,0,0,1,1.06,3.743,2.851,2.851,0,0,1-.311,1.726c-.433.605-1.186.331-1.7-.258a8.056,8.056,0,0,1-1.269-2.479A42.384,42.384,0,0,1,427.9,403.553Z" transform="translate(-179.904 -108.737)" fill="#ffc40d"/>
    <path id="Path_4161" data-name="Path 4161" d="M284.3,463.046l.132-.144-.474.07a25.259,25.259,0,0,0,5.073-3.637l.368-.113-.184-.059q.883-.833,1.682-1.748c-.08.205-.161.411-.243.617a25.451,25.451,0,0,1-5.082,4.256l-.232.146c-.005-.047-.011-.1-.016-.142-.054.083-.108.168-.162.251q-.425.26-.861.5Zm6.7-5.394-.081-.257q.239-.275.469-.556l.227.087Q291.308,457.3,290.993,457.652Z" transform="translate(-96.939 -139.448)" fill="#ecddd4"/>
    <path id="Path_4162" data-name="Path 4162" d="M294.778,471.289c-.658,0-1.179-.639-1.379-1.382a8.241,8.241,0,0,1-.01-3.156A35.882,35.882,0,0,1,296,458.771c.082-.207.164-.412.243-.617l.013-.033,0,.014.081.257a22.02,22.02,0,0,1,1.092,7.157,10.434,10.434,0,0,1-.946,4.227,2.844,2.844,0,0,1-1.334,1.446A1.1,1.1,0,0,1,294.778,471.289Z" transform="translate(-102.29 -140.187)" fill="#ecddd4"/>
    <path id="Path_4163" data-name="Path 4163" d="M278.739,479.584c-.6,0-.962-.624-1-1.285a6.428,6.428,0,0,1,.476-2.419,29.565,29.565,0,0,1,3.359-5.918c.055-.083.108-.168.162-.251,0,.047.011.094.016.142a17.262,17.262,0,0,1-.253,5.726,8.152,8.152,0,0,1-1.372,3.091,2.217,2.217,0,0,1-1.243.9A.935.935,0,0,1,278.739,479.584Z" transform="translate(-93.349 -146.868)" fill="#ecddd4"/>
    <path id="Path_4164" data-name="Path 4164" d="M258.06,477.157a2.571,2.571,0,0,1-1.629-.447c-.677-.57-.382-1.533.264-2.176a8.222,8.222,0,0,1,2.733-1.578c2.561-1.035,5.6-1.324,8.442-1.734l.474-.07-.132.144a22.1,22.1,0,0,1-5.726,4.572,10.437,10.437,0,0,1-4.137,1.281C258.253,477.154,258.157,477.157,258.06,477.157Z" transform="translate(-80.852 -147.698)" fill="#ecddd4"/>
    <path id="Path_4165" data-name="Path 4165" d="M275.029,460.459q-.176,0-.35-.005a10.6,10.6,0,0,1-3.77-.685,2.812,2.812,0,0,1-1.392-1.023c-.347-.646.222-1.193.963-1.389a5.05,5.05,0,0,1,1.283-.142,13.757,13.757,0,0,1,1.459.094,40.122,40.122,0,0,1,7.608,2.071l.184.059c-.12.038-.243.075-.368.113A20.477,20.477,0,0,1,275.029,460.459Z" transform="translate(-88.557 -139.666)" fill="#ecddd4"/>
    <path id="Path_4166" data-name="Path 4166" d="M289.325,453.857c-.075,0-.15,0-.224,0a6.814,6.814,0,0,1-2.418-.439,1.806,1.806,0,0,1-.893-.656c-.223-.415.142-.766.617-.891a3.255,3.255,0,0,1,.823-.091,8.754,8.754,0,0,1,.936.061,10.332,10.332,0,0,1,1.159.2,10.392,10.392,0,0,0,2.335,1.564A11.735,11.735,0,0,1,289.325,453.857Z" transform="translate(-97.957 -136.53)" fill="#ecddd4"/>
    <path id="Path_4167" data-name="Path 4167" d="M347.685,247.325a.12.12,0,0,1-.112-.169,24.324,24.324,0,0,1,2.339-3.962q.3-.416.619-.819c.032.085.063.169.095.252q-.475.608-.911,1.246l-.254.093.162.043a24.049,24.049,0,0,0-1.846,3.255.1.1,0,0,1-.092.062Zm2.958-4.719q.1-.313.21-.629a25.44,25.44,0,0,1,4.848-4.521l.224-.158c.008.047.016.095.024.142l.148-.26q.411-.282.833-.548l-.125.151.469-.095a25.227,25.227,0,0,0-4.871,3.9q-.184.065-.361.132l.187.049Q351.391,241.649,350.642,242.606Z" transform="translate(-133.598 -12.532)" fill="#ecddd4"/>
    <path id="Path_4168" data-name="Path 4168" d="M352.667,232.817l-.005-.014c-.032-.083-.063-.167-.095-.252a21.983,21.983,0,0,1-1.473-7.088,10.444,10.444,0,0,1,.719-4.271,2.842,2.842,0,0,1,1.255-1.515,1.1,1.1,0,0,1,.429-.091,1.68,1.68,0,0,1,1.4,1.307,8.24,8.24,0,0,1,.178,3.151,35.86,35.86,0,0,1-2.184,8.109q-.107.316-.21.629Z" transform="translate(-135.634 -2.708)" fill="#ecddd4"/>
    <path id="Path_4169" data-name="Path 4169" d="M366.958,224.907c-.008-.047-.016-.094-.024-.141a17.26,17.26,0,0,1-.053-5.73,8.143,8.143,0,0,1,1.206-3.16,2.22,2.22,0,0,1,1.193-.968.907.907,0,0,1,.184-.02c.574,0,.951.59,1.026,1.231a6.415,6.415,0,0,1-.346,2.44,29.561,29.561,0,0,1-3.038,6.088Q367.031,224.777,366.958,224.907Z" transform="translate(-144.607)" fill="#ecddd4"/>
    <path id="Path_4170" data-name="Path 4170" d="M369.381,228.075l.125-.151a22.09,22.09,0,0,1,5.473-4.87,10.44,10.44,0,0,1,4.063-1.5,5,5,0,0,1,.535-.03,2.351,2.351,0,0,1,1.4.366c.706.534.463,1.511-.148,2.188a8.234,8.234,0,0,1-2.645,1.722c-2.5,1.169-5.526,1.621-8.338,2.181Z" transform="translate(-146.173 -3.824)" fill="#ecddd4"/>
    <path id="Path_4171" data-name="Path 4171" d="M366.976,246.181c-.312,0-.63-.013-.945-.029a40.127,40.127,0,0,1-7.708-1.663l-.187-.049q.177-.067.361-.132a19.994,19.994,0,0,1,5.912-1.218c.159,0,.32-.006.483-.006a9.982,9.982,0,0,1,3.318.489,2.807,2.807,0,0,1,1.444.947c.381.626-.158,1.2-.887,1.438A5.936,5.936,0,0,1,366.976,246.181Z" transform="translate(-139.693 -16.25)" fill="#ecddd4"/>
    <path id="Path_4172" data-name="Path 4172" d="M357.714,253.876c-.2,0-.4-.008-.605-.019a25.393,25.393,0,0,1-4.9-1.055l-.162-.043.254-.093a12.783,12.783,0,0,1,3.77-.773q.154,0,.311,0a6.388,6.388,0,0,1,2.127.314,1.8,1.8,0,0,1,.927.608c.244.4-.1.771-.569.923A3.821,3.821,0,0,1,357.714,253.876Z" transform="translate(-136.181 -21.326)" fill="#ecddd4"/>
    <path id="Path_4173" data-name="Path 4173" d="M164.262,282.083a34.972,34.972,0,0,1-11.529.851,35.958,35.958,0,0,1-11.2-2.886,34.341,34.341,0,0,1-5.669-3.164c-.174-.12-.353.154-.179.275a35.261,35.261,0,0,0,10.555,4.917,36.226,36.226,0,0,0,11.579,1.286,34.753,34.753,0,0,0,6.506-.957C164.53,282.354,164.468,282.032,164.262,282.083Z" transform="translate(-11.442 -35.714)" fill="#ffc40d"/>
    <path id="Path_4174" data-name="Path 4174" d="M163.551,291.5a31.878,31.878,0,0,1-6.767,8.351,14.92,14.92,0,0,1-5.4,3.035,4.062,4.062,0,0,1-2.811-.036c-1.117-.594-.995-2.028-.286-3.121a11.77,11.77,0,0,1,3.345-3.027C155.085,294.363,159.537,293.02,163.551,291.5Z" transform="translate(-18.434 -44.155)" fill="#ffc40d"/>
    <path id="Path_4175" data-name="Path 4175" d="M141.556,288.564a24.869,24.869,0,0,1-6.462,5.357,11.655,11.655,0,0,1-4.6,1.5,3.174,3.174,0,0,1-2.147-.459c-.764-.626-.451-1.706.26-2.434a9.2,9.2,0,0,1,3.025-1.805C134.635,289.458,138.25,289.113,141.556,288.564Z" transform="translate(-6.999 -42.463)" fill="#ffc40d"/>
    <path id="Path_4176" data-name="Path 4176" d="M133.057,275.254a31.844,31.844,0,0,1-10.61-1.717,14.931,14.931,0,0,1-5.317-3.172,4.062,4.062,0,0,1-1.367-2.457c-.04-1.265,1.265-1.872,2.566-1.8a11.77,11.77,0,0,1,4.29,1.4C126.363,269.333,129.742,272.528,133.057,275.254Z" transform="translate(0 -29.517)" fill="#ffc40d"/>
    <path id="Path_4177" data-name="Path 4177" d="M162.927,273.319a29.085,29.085,0,0,1-7.134-5.765,15.142,15.142,0,0,1-2.875-4.66,4.011,4.011,0,0,1-.243-2.457c.354-.986,1.479-.9,2.4-.3A11.328,11.328,0,0,1,157.742,263C159.89,265.974,161.36,269.839,162.927,273.319Z" transform="translate(-21.212 -25.82)" fill="#ffc40d"/>
    <path id="Path_4178" data-name="Path 4178" d="M181.968,279.868a18.631,18.631,0,0,1-4.576-3.7,9.709,9.709,0,0,1-1.845-2.989,2.572,2.572,0,0,1-.155-1.576c.226-.633.948-.581,1.537-.2a7.271,7.271,0,0,1,1.714,1.84A38.262,38.262,0,0,1,181.968,279.868Z" transform="translate(-34.327 -32.412)" fill="#ffc40d"/>
    <path id="Path_4179" data-name="Path 4179" d="M171.2,289.029l33.537-51.839L227.763,272.4l-5.751,1.176,3.07,15.008-7.878.065a22.439,22.439,0,0,0-19.6.161l-26.406.218Zm57.4-13.023-.693-3.385.693,1.059Z" transform="translate(-31.952 -12.854)" fill="#ecddd4"/>
    <path id="Path_4180" data-name="Path 4180" d="M233.529,355.862a22.439,22.439,0,0,1,19.6-.161Z" transform="translate(-67.875 -79.905)" fill="#f4dd99"/>
    <path id="Path_4181" data-name="Path 4181" d="M430.414,406.473a40.137,40.137,0,0,0-3.942-1.776q-.21-.227-.416-.444.022.151.044.3-1.8-.676-3.656-1.173.52-.044,1.046-.084a40.208,40.208,0,0,1,6.925,2.767v.408Zm-8.012-3.1.308-.294q-.784-.214-1.576-.395a38.4,38.4,0,0,0-7.22-.951h-.008c-.226,0-.254.354-.022.362a38.017,38.017,0,0,1,5.885.672l-.038-.263c.1.1.194.205.292.313Q421.221,403.056,422.4,403.371Z" transform="translate(-171.73 -107.688)" fill="#ffd426"/>
    <path id="Path_4182" data-name="Path 4182" d="M434.172,397.453l.017-.016.308-.294a37.723,37.723,0,0,1,7.7-5.708v5.358c-2.3.267-4.647.4-6.925.571q-.526.04-1.046.084Z" transform="translate(-183.516 -101.753)" fill="#ffd426"/>
    <path id="Path_4183" data-name="Path 4183" d="M447.192,414.669h-3.353c-.383-2.219-.647-4.5-.962-6.684q-.022-.152-.044-.3.207.217.416.444a35.633,35.633,0,0,1,3.942,5.108Z" transform="translate(-188.507 -111.117)" fill="#ffd426"/>
    <path id="Path_4184" data-name="Path 4184" d="M432.691,412.289H429.7c-.09-.223-.176-.451-.259-.679a40.176,40.176,0,0,1-1.5-7.794l-.038-.263c.1.1.194.205.292.313a20.256,20.256,0,0,1,3.463,5.011A11.235,11.235,0,0,1,432.691,412.289Z" transform="translate(-179.904 -108.737)" fill="#ffd426"/>
    <path id="Path_4185" data-name="Path 4185" d="M317.4,361.157h-4.083l-.579-2.831,5.375-.044Z" transform="translate(-113.525 -82.645)" fill="#fceca5"/>
    <path id="Path_4186" data-name="Path 4186" d="M309.248,338.175l-2.563-12.529v-2.327l8.418,12.874-.48,1.938Z" transform="translate(-110.039 -62.494)" fill="#f4dd99"/>
    <path id="Path_4187" data-name="Path 4187" d="M416.5,306.835v-.212H364.751V258.665h51.54v48.17h.212v0h.212V258.242H364.327v48.805h52.388v-.212Z" transform="translate(-143.261 -24.987)" fill="#3aa0ba"/>
    <rect id="Rectangle_1542" data-name="Rectangle 1542" width="9.607" height="9.606" transform="translate(140.605 304.169)" fill="#0d0b15"/>
    <rect id="Rectangle_1543" data-name="Rectangle 1543" width="9.606" height="9.606" transform="translate(150.212 304.169)" fill="#ffc40d"/>
    <rect id="Rectangle_1544" data-name="Rectangle 1544" width="9.607" height="9.606" transform="translate(159.818 304.169)" fill="#ff0f04"/>
    <rect id="Rectangle_1545" data-name="Rectangle 1545" width="9.606" height="9.606" transform="translate(169.425 304.169)" fill="#3aa0ba"/>
    <path id="Path_4188" data-name="Path 4188" d="M390.581,420.182h-.212a8.116,8.116,0,1,1-2.377-5.739,8.091,8.091,0,0,1,2.377,5.739h.424a8.54,8.54,0,1,0-8.54,8.539,8.54,8.54,0,0,0,8.54-8.539Z" transform="translate(-148.671 -113.399)" fill="#ffc40d"/>
    <path id="Path_4189" data-name="Path 4189" d="M393.662,405.943v20.669c0,.28-.006.561,0,.841v.036a.324.324,0,0,0,.649,0V406.822c0-.281.006-.561,0-.842v-.036A.325.325,0,0,0,393.662,405.943Z" transform="translate(-160.166 -109.935)" fill="#03070e"/>
    <path id="Path_4190" data-name="Path 4190" d="M390.123,431.029H369.454c-.28,0-.561-.006-.842,0h-.036a.325.325,0,0,0,0,.649h20.669c.28,0,.562.006.842,0h.036A.325.325,0,0,0,390.123,431.029Z" transform="translate(-145.529 -124.572)" fill="#03070e"/>
    <path id="Path_4191" data-name="Path 4191" d="M151.217,366.513a5.33,5.33,0,1,0,5.33,5.33,5.336,5.336,0,0,0-5.33-5.33Zm0,10.939a5.608,5.608,0,1,1,5.608-5.61A5.616,5.616,0,0,1,151.217,377.452Z" transform="translate(-17.202 -87.229)" fill="#ff0f04"/>
    <path id="Path_4192" data-name="Path 4192" d="M158.71,362.491v13.575c0,.184,0,.369,0,.553v.023a.213.213,0,0,0,.426,0V363.068c0-.185,0-.369,0-.553v-.024A.213.213,0,0,0,158.71,362.491Z" transform="translate(-24.752 -84.953)" fill="#03070e"/>
    <path id="Path_4193" data-name="Path 4193" d="M156.384,378.968H142.811c-.184,0-.369,0-.553,0h-.024a.213.213,0,0,0,0,.425h13.575c.184,0,.369,0,.552,0h.023A.213.213,0,0,0,156.384,378.968Z" transform="translate(-15.139 -94.566)" fill="#03070e"/>
    <path id="Path_4194" data-name="Path 4194" d="M372.017,239.528h13.3a1.852,1.852,0,0,1,1.822,1.524l.98,5.453a6.41,6.41,0,0,0,6.309,5.275l-.576-12.807a4.43,4.43,0,0,0-4.425-4.231H345.871a4.678,4.678,0,0,0-4.673,4.467l-.565,12.571a6.411,6.411,0,0,0,6.31-5.277l1.029-5.722a1.524,1.524,0,0,1,1.5-1.254h13.573c.169,8.289.18,16.62.18,24.888V269.2c0,8.368-.01,16.66-.176,24.786l-6.068.649a4.261,4.261,0,0,0-3.807,4.237H381.89a4.261,4.261,0,0,0-3.807-4.237l-6.066-.649c-.167-8.256-.178-16.553-.178-24.786v-4.786C371.838,256.012,371.849,247.686,372.017,239.528Z" transform="translate(-129.604 -11.443)" fill="#ff0f04"/>
    <path id="Path_4195" data-name="Path 4195" d="M218.43,401.518v-.423H196.493v.132h.131a.132.132,0,0,0-.131-.132v.132h0l.128.02,0-.02h-.13l.128.02L197.893,393l-.13-.021v.132a.132.132,0,0,0,.13-.111l-.13-.021v.132h18.624v-.131l-.129.026a.133.133,0,0,0,.129.105v-.131l-.129.026v0l1.756,8.595.415-.085v0l.415-.084-1.757-8.6v0a.715.715,0,0,0-.7-.572H197.763a.715.715,0,0,0-.708.607l-1.27,8.248-.008.109a.715.715,0,0,0,.716.715h22.455l-.1-.508Z" transform="translate(-46.117 -102.23)" fill="#1d014b"/>
    <path id="Path_4196" data-name="Path 4196" d="M214.312,284.311l.362-.219L197.16,255.129a.935.935,0,0,0-.8-.458.963.963,0,0,0-.65.251.934.934,0,0,0-.3.7V281.77l.307.088a2.168,2.168,0,1,1-1.141-.013l.317-.082V255.54a.936.936,0,0,0-.3-.7.967.967,0,0,0-.65-.252.935.935,0,0,0-.79.435L174.27,284.312a.946.946,0,0,0-.08.872l10.318,25.158a.948.948,0,0,0,.877.588h18.388a.946.946,0,0,0,.88-.6l10.091-25.4h0a.945.945,0,0,0-.07-.839l-.362.219-.363.219.014.052-.007.037-10.091,25.4h0a.1.1,0,0,1-.092.063H185.385a.1.1,0,0,1-.092-.062l-10.318-25.158-.008-.038.016-.054,18.873-29.285c.032-.044.042-.042.078-.047l.078.03a.085.085,0,0,1,.027.071v25.9h.423l-.107-.41a3.012,3.012,0,1,0,1.587.019l-.116.408h.424V255.619a.083.083,0,0,1,.027-.071l.079-.029c.037,0,.047,0,.079.049l17.515,28.964Z" transform="translate(-33.634 -22.883)" fill="#1d014b"/>
    <path id="Path_4197" data-name="Path 4197" d="M157.013,236.834l.029-.029a42.362,42.362,0,0,1,27.626-11.029c8.291,0,17.968,2.756,28.388,11.089l.529-.661c-10.546-8.439-20.436-11.277-28.918-11.275a41.412,41.412,0,0,0-20.477,5.647,39.862,39.862,0,0,0-7.777,5.659Z" transform="translate(-23.43 -5.787)" fill="#1d014b"/>
    <path id="Path_4198" data-name="Path 4198" d="M154.742,251.605a1.644,1.644,0,1,1-1.644-1.644A1.644,1.644,0,0,1,154.742,251.605Z" transform="translate(-20.571 -20.214)" fill="#1d014b"/>
    <path id="Path_4199" data-name="Path 4199" d="M290.146,251.605a1.644,1.644,0,1,1-1.644-1.644A1.644,1.644,0,0,1,290.146,251.605Z" transform="translate(-98.611 -20.214)" fill="#1d014b"/>
    <rect id="Rectangle_1546" data-name="Rectangle 1546" width="2.781" height="2.782" transform="translate(160.196 218.175)" fill="#1d014b"/>
    <path id="Path_4200" data-name="Path 4200" d="M177.309,477.24c10.064,8.051,19.053,7.633,24.821,5.863a27.13,27.13,0,0,0,10.241-5.843l.375.375a27.71,27.71,0,0,1-10.439,5.969c-5.9,1.813-15.076,2.253-25.33-5.949Z" transform="translate(-35.282 -151.207)" fill="#3aa0ba"/>
    <path id="Path_4201" data-name="Path 4201" d="M259.655,475.379a1.028,1.028,0,1,1,1.028,1.028A1.029,1.029,0,0,1,259.655,475.379Z" transform="translate(-82.933 -149.541)" fill="#3aa0ba"/>
    <path id="Path_4202" data-name="Path 4202" d="M174.941,475.379a1.029,1.029,0,1,1,1.029,1.028A1.029,1.029,0,0,1,174.941,475.379Z" transform="translate(-34.108 -149.541)" fill="#3aa0ba"/>
    <rect id="Rectangle_1547" data-name="Rectangle 1547" width="1.74" height="1.74" transform="translate(158.7 332.366)" fill="#3aa0ba"/>
    <path id="Path_4203" data-name="Path 4203" d="M467.469,313.162c-6.758-5.407-12.795-5.126-16.669-3.937a18.225,18.225,0,0,0-6.878,3.924l-.252-.252a18.6,18.6,0,0,1,7.01-4.008c3.959-1.218,10.124-1.514,17.01,3.995Z" transform="translate(-188.99 -53.756)" fill="#3aa0ba"/>
    <path id="Path_4204" data-name="Path 4204" d="M442.969,319.34a.691.691,0,1,1-.691-.691A.691.691,0,0,1,442.969,319.34Z" transform="translate(-187.789 -59.803)" fill="#3aa0ba"/>
    <path id="Path_4205" data-name="Path 4205" d="M499.858,319.34a.691.691,0,1,1-.691-.691A.691.691,0,0,1,499.858,319.34Z" transform="translate(-220.578 -59.803)" fill="#3aa0ba"/>
    <rect id="Rectangle_1548" data-name="Rectangle 1548" width="1.169" height="1.168" transform="translate(266.114 253.984)" fill="#3aa0ba"/>
    <path id="Path_4206" data-name="Path 4206" d="M296.853,317.456l-5.769,1.18a.079.079,0,0,1-.094-.073l-.11-2.237a.079.079,0,0,1,.063-.08l4.9-1,.088.046Z" transform="translate(-100.929 -57.84)" fill="#1d014b"/>
    <path id="Path_4207" data-name="Path 4207" d="M291.17,286.76l-6.164-6.675a.141.141,0,0,0-.241.123L286.154,287a.7.7,0,1,1-.359.069l-1.393-6.81a.14.14,0,0,0-.268-.023l-3.388,8.717a.14.14,0,0,0,.014.129l4.067,6.061a.14.14,0,0,0,.145.059l4.836-.989a.142.142,0,0,0,.11-.113l1.287-7.223A.141.141,0,0,0,291.17,286.76Z" transform="translate(-95.083 -37.55)" fill="#1d014b"/>
    <rect id="Rectangle_1549" data-name="Rectangle 1549" width="5.966" height="29.693" transform="matrix(0.98, -0.2, 0.2, 0.98, 190.06, 260.723)" fill="#fb001f"/>
    <rect id="Rectangle_1550" data-name="Rectangle 1550" width="5.966" height="29.693" transform="translate(198.685 251.423) rotate(-1.531)" fill="#ffbd0b"/>
    <path id="Path_4208" data-name="Path 4208" d="M317.176,297.471l-.005-.212-5.886.157h0l0,.122v-.122h0l0,.122v.011h.133a.133.133,0,0,0-.133-.133v.133h0l.135.018v-.018h-.136l.135.018h0l.282-2.223h0l-.132-.017,0,.133a.133.133,0,0,0,.129-.116l-.132-.017,0,.133,4.922-.131.019.014.13-.168-.207.048.533,2.295.206-.048-.005-.212.005.212.206-.048-.55-2.369-.139-.107-.06-.046-5.072.135a.289.289,0,0,0-.28.253L311,297.513h0l0,.038a.29.29,0,0,0,.29.29h.007l6.146-.164-.059-.252Z" transform="translate(-112.524 -46.116)" fill="#1d014b"/>
    <path id="Path_4209" data-name="Path 4209" d="M315.439,266.06l.178-.114-4.907-7.646h0a.35.35,0,0,0-.295-.162.359.359,0,0,0-.241.093.349.349,0,0,0-.113.259v.01l.189,7.091.155.04a.483.483,0,0,1,.362.455v.014a.483.483,0,0,1-.471.483h-.013a.483.483,0,0,1-.483-.471V266.1a.483.483,0,0,1,.349-.463l.158-.046-.19-7.112a.35.35,0,0,0-.116-.253.357.357,0,0,0-.238-.09.349.349,0,0,0-.3.169l-4.854,7.993h0a.35.35,0,0,0-.022.327v0l2.947,6.674h0a.351.351,0,0,0,.322.211h.008l4.935-.132h0a.353.353,0,0,0,.321-.231h0l2.526-6.888h0a.357.357,0,0,0,.022-.122.351.351,0,0,0-.055-.19h0l-.178.114-.179.114.059-.037h-.07l.011.037.059-.037h0l-.068-.025,0,.025h.073l-.068-.025L312.728,273h0l.067.025,0-.071-.065.047.067.025,0-.071h0l-4.934.132h0v0h0v.071l.065-.029-.065-.042v.071l.065-.029-2.95-6.68v0l-.066.029h.072l-.006-.029-.066.029h0l.062.038.011-.038h-.073l.062.038v0l4.853-7.992-.063-.038v.072l.063-.034-.063-.038v0l-.044.05.044.017v-.067l-.044.05.048-.054-.073,0,.025.052.048-.054-.073,0,.186,6.949.211-.006-.058-.2a.907.907,0,0,0-.656.871v.024a.907.907,0,0,0,.907.883h.024a.907.907,0,0,0,.883-.906v-.025a.907.907,0,0,0-.68-.854l-.053.205.212-.006-.185-6.933h0l-.1,0h.1v0l-.1,0h.023l.049.054.025-.054h-.074l.049.054-.045-.049v.067l.045-.018-.045-.049v-.005l-.062.04.062.032v-.072l-.062.04.006.009,4.9,7.637h0Z" transform="translate(-108.814 -24.924)" fill="#1d014b"/>
    <path id="Path_4210" data-name="Path 4210" d="M341.631,314.3l-5.8-1.439.6-2.433,5.756,1.5Z" transform="translate(-126.834 -55.067)" fill="#1d014b"/>
    <rect id="Rectangle_1551" data-name="Rectangle 1551" width="29.693" height="5.966" transform="translate(201.883 286.534) rotate(-76.079)" fill="#fb001f"/>
    <path id="Path_4211" data-name="Path 4211" d="M343.087,297.392l.206.047,1.056-4.6-1.757-6.049-3.94,4.656-1.176,4.764,5.768,1.435.048-.21-.206-.047.051-.205-5.149-1.281,1.051-4.257,3.365-3.977,1.506,5.185-1.031,4.489.206.047.051-.205Z" transform="translate(-127.786 -41.443)" fill="#1d014b"/>
    <rect id="Rectangle_1552" data-name="Rectangle 1552" width="0.424" height="3.102" transform="translate(212.555 248.469) rotate(-77.402)" fill="#1d014b"/>
    <path id="Path_4212" data-name="Path 4212" d="M302.786,404.666h-6.431A10.363,10.363,0,0,1,285.992,394.3V366.463a1.4,1.4,0,0,1,1.4-1.4h24.73a1.416,1.416,0,0,1,1.416,1.415v27.436A10.747,10.747,0,0,1,302.786,404.666Z" transform="translate(-98.112 -86.556)" fill="#1d014b"/>
    <rect id="Rectangle_1553" data-name="Rectangle 1553" width="27.541" height="3.678" transform="translate(187.88 282.775)" fill="#50016c"/>
    <rect id="Rectangle_1554" data-name="Rectangle 1554" width="27.541" height="3.678" transform="translate(187.88 288.898)" fill="#50016c"/>
    <rect id="Rectangle_1555" data-name="Rectangle 1555" width="0.847" height="58.778" transform="translate(266.344 274.671)" fill="#1d014b"/>
    <rect id="Rectangle_1556" data-name="Rectangle 1556" width="81.238" height="0.847" transform="translate(192.937 326.513)" fill="#1d014b"/>
    <path id="Path_4213" data-name="Path 4213" d="M434.013,459.677l-.483-1.417a3.185,3.185,0,0,0-1.985-1.984l-1.416-.483,1.443-.526a3.208,3.208,0,0,0,1.915-1.915l.526-1.443.369,1.158a3.629,3.629,0,0,0,2.357,2.358l1.159.368-1.191.47a3.062,3.062,0,0,0-2.223,2.223Z" transform="translate(-181.185 -136.607)" fill="#1d014b"/>
    <path id="Path_4214" data-name="Path 4214" d="M493.745,384.781l-.316-.927a2.084,2.084,0,0,0-1.3-1.3l-.928-.316.945-.344a2.1,2.1,0,0,0,1.254-1.254l.345-.946.241.759A2.375,2.375,0,0,0,495.531,382l.759.242-.781.308A2.006,2.006,0,0,0,494.053,384Z" transform="translate(-216.384 -94.985)" fill="#ffbd0d"/>
    <path id="Path_4215" data-name="Path 4215" d="M411.035,464.774a1.382,1.382,0,1,0,1.382,1.383,1.385,1.385,0,0,0-1.382-1.383Zm0,3.358a1.975,1.975,0,1,1,1.975-1.975A1.977,1.977,0,0,1,411.035,468.132Z" transform="translate(-169.042 -143.68)" fill="#ffbd0d"/>
    <path id="Path_4216" data-name="Path 4216" d="M501.991,359.813a.61.61,0,1,0,.61.611.611.611,0,0,0-.61-.611Zm0,1.483a.872.872,0,1,1,.872-.872A.873.873,0,0,1,501.991,361.3Z" transform="translate(-222.101 -83.377)" fill="#ffbd0d"/>
    <path id="Path_4217" data-name="Path 4217" d="M357.983,458.179a.61.61,0,1,0,.61.61.611.611,0,0,0-.61-.61Zm0,1.482a.872.872,0,1,1,.872-.872A.873.873,0,0,1,357.983,459.661Z" transform="translate(-139.102 -140.07)" fill="#ffbd0d"/>
    <path id="Path_4218" data-name="Path 4218" d="M300.168,227.812l-.483-1.417a3.184,3.184,0,0,0-1.985-1.985l-1.416-.483,1.443-.526a3.21,3.21,0,0,0,1.915-1.915l.526-1.443.369,1.158a3.627,3.627,0,0,0,2.357,2.357l1.158.369-1.19.469a3.064,3.064,0,0,0-2.224,2.224Z" transform="translate(-104.044 -2.972)" fill="#ffbd0d"/>
    <path id="Path_4219" data-name="Path 4219" d="M131.812,326.391l-.483-1.416a3.182,3.182,0,0,0-1.984-1.985l-1.417-.483,1.443-.526a3.207,3.207,0,0,0,1.915-1.915l.527-1.443.369,1.158a3.626,3.626,0,0,0,2.357,2.357l1.158.369-1.191.47a3.061,3.061,0,0,0-2.224,2.223Z" transform="translate(-7.012 -59.788)" fill="#ff0f04"/>
    <path id="Path_4220" data-name="Path 4220" d="M195.326,465.415l-.339-.992a2.228,2.228,0,0,0-1.39-1.389l-.992-.339,1.011-.369a2.247,2.247,0,0,0,1.341-1.341l.369-1.01.258.811a2.542,2.542,0,0,0,1.651,1.651l.811.258-.834.329a2.144,2.144,0,0,0-1.557,1.557Z" transform="translate(-44.289 -141.256)" fill="#1d014b"/>
    <path id="Path_4221" data-name="Path 4221" d="M323.9,241.229a1.383,1.383,0,1,0,1.382,1.383,1.384,1.384,0,0,0-1.382-1.383Zm0,3.358a1.975,1.975,0,1,1,1.975-1.975A1.977,1.977,0,0,1,323.9,244.587Z" transform="translate(-118.82 -14.84)" fill="#ffbd0d"/>
    <path id="Path_4222" data-name="Path 4222" d="M152.647,421.56a1.382,1.382,0,1,0,1.383,1.383,1.384,1.384,0,0,0-1.383-1.383Zm0,3.358a1.975,1.975,0,1,1,1.976-1.975A1.977,1.977,0,0,1,152.647,424.918Z" transform="translate(-20.12 -118.774)" fill="#ffbd0d"/>
    <path id="Path_4223" data-name="Path 4223" d="M215.927,460.523a.61.61,0,1,0,.61.61.61.61,0,0,0-.61-.61Zm0,1.482a.872.872,0,1,1,.872-.872A.873.873,0,0,1,215.927,462.005Z" transform="translate(-57.228 -141.421)" fill="#ffbd0d"/>
    <path id="Path_4224" data-name="Path 4224" d="M194.068,254.1a.61.61,0,1,0,.61.61.611.611,0,0,0-.61-.61Zm0,1.482a.872.872,0,1,1,.872-.872A.874.874,0,0,1,194.068,255.586Z" transform="translate(-44.629 -22.451)" fill="#ffbd0d"/>
    <path id="Path_4225" data-name="Path 4225" d="M328.338,220.85a.61.61,0,1,0,.61.61.611.611,0,0,0-.61-.61Zm0,1.482a.872.872,0,1,1,.872-.872A.873.873,0,0,1,328.338,222.332Z" transform="translate(-122.016 -3.285)" fill="#ffbd0d"/>
    <path id="Path_4226" data-name="Path 4226" d="M150.115,343.821A1.383,1.383,0,1,0,151.5,345.2a1.384,1.384,0,0,0-1.382-1.382Zm0,3.358a1.975,1.975,0,1,1,1.975-1.975A1.978,1.978,0,0,1,150.115,347.179Z" transform="translate(-18.661 -73.969)" fill="#ffbd0d"/>
  </g>
</svg>
