<svg xmlns="http://www.w3.org/2000/svg" width="159.607" height="153.148" viewBox="0 0 159.607 153.148">
  <g id="Group_3036" data-name="Group 3036" transform="translate(-217.945 -323.523)">
    <path id="Path_4123" data-name="Path 4123" d="M333.446,374.664l-31.593-97.228a256.552,256.552,0,0,0-128.014,93.071l82.69,60.077A154.161,154.161,0,0,1,333.446,374.664Z" transform="translate(44.106 46.087)" fill="#ffab06"/>
    <path id="Path_4134" data-name="Path 4134" d="M215.554,324.624a6.559,6.559,0,1,1,6.56-6.556A6.556,6.556,0,0,1,215.554,324.624Z" transform="translate(71.327 72.467)" fill="#ff6b00"/>
    <path id="Path_4135" data-name="Path 4135" d="M231.055,324.624a6.559,6.559,0,1,1,6.559-6.556A6.557,6.557,0,0,1,231.055,324.624Z" transform="translate(83.328 72.467)" fill="#ff6b00"/>
    <path id="Path_4136" data-name="Path 4136" d="M211.322,332.3a2.092,2.092,0,0,1-1.112-3.863,36.006,36.006,0,0,1,37.831,0,2.093,2.093,0,0,1-1.116,3.863,2.112,2.112,0,0,1-1.111-.321,31.767,31.767,0,0,0-33.379,0A2.082,2.082,0,0,1,211.322,332.3Z" transform="translate(71.509 81.42)" fill="#ff6b00"/>
  </g>
</svg>
