<svg xmlns="http://www.w3.org/2000/svg" width="131.637" height="150.51" viewBox="0 0 131.637 150.51">
  <g id="Group_3033" data-name="Group 3033" transform="translate(-549.575 -416.594)">
    <path id="Path_4122" data-name="Path 4122" d="M390.158,480.4H492.386a254.864,254.864,0,0,0-48.947-150.51l-82.69,60.077A153.141,153.141,0,0,1,390.158,480.4Z" transform="translate(188.826 86.702)" fill="#43a729"/>
    <path id="Path_4126" data-name="Path 4126" d="M401.308,376.985a26.978,26.978,0,0,0-14.947,0v-.039a7.473,7.473,0,1,1,14.947,0Z" transform="translate(208.657 117.346)" fill="#2d721d"/>
    <path id="Path_4127" data-name="Path 4127" d="M415.852,376.985a26.978,26.978,0,0,0-14.947,0l0-.039a7.475,7.475,0,1,1,14.95,0Z" transform="translate(219.915 117.346)" fill="#2d721d"/>
    <path id="Path_4128" data-name="Path 4128" d="M405.585,397.2a17.741,17.741,0,0,1-17.739-17.741h35.48A17.741,17.741,0,0,1,405.585,397.2Z" transform="translate(209.806 125.084)" fill="#2d721d"/>
  </g>
</svg>
