<svg xmlns="http://www.w3.org/2000/svg" width="131.635" height="150.51" viewBox="0 0 131.635 150.51">
  <g id="Group_3034" data-name="Group 3034" transform="translate(-169 -416.594)">
    <path id="Path_4121" data-name="Path 4121" d="M146.253,480.4H248.478a153.122,153.122,0,0,1,29.41-90.433L195.2,329.892A254.862,254.862,0,0,0,146.253,480.4Z" transform="translate(22.747 86.702)" fill="#fe200c"/>
    <path id="Path_4129" data-name="Path 4129" d="M173.063,397.464a2.314,2.314,0,0,1-.642-.092,2.276,2.276,0,0,1-1.544-2.818,18.6,18.6,0,0,1,35.888,0,2.273,2.273,0,0,1-4.365,1.272,14.052,14.052,0,0,0-27.159,0A2.275,2.275,0,0,1,173.063,397.464Z" transform="translate(41.742 126.152)" fill="#e31101"/>
    <path id="Path_4130" data-name="Path 4130" d="M175.656,382.771a7.105,7.105,0,1,1,7.1-7.106A7.106,7.106,0,0,1,175.656,382.771Z" transform="translate(40.013 116.643)" fill="#e31101"/>
    <path id="Path_4131" data-name="Path 4131" d="M192.448,382.771a7.105,7.105,0,1,1,7.1-7.106A7.106,7.106,0,0,1,192.448,382.771Z" transform="translate(53.013 116.643)" fill="#e31101"/>
  </g>
</svg>
