<svg xmlns="http://www.w3.org/2000/svg" width="158.288" height="109.751" viewBox="0 0 158.288 109.751">
  <g id="Group_3037" data-name="Group 3037" transform="translate(-345.959 -311)">
    <path id="Path_4124" data-name="Path 4124" d="M325.134,372.6a153.743,153.743,0,0,1,47.556,7.526L404.277,282.9a256.357,256.357,0,0,0-158.288,0l31.593,97.228A153.713,153.713,0,0,1,325.134,372.6Z" transform="translate(99.97 40.622)" fill="#fafd16"/>
    <path id="Path_4137" data-name="Path 4137" d="M285.916,301.588a6.934,6.934,0,1,1,6.934-6.936A6.933,6.933,0,0,1,285.916,301.588Z" transform="translate(125.517 54.05)" fill="#ffab00"/>
    <path id="Path_4138" data-name="Path 4138" d="M302.3,301.588a6.934,6.934,0,1,1,6.932-6.936A6.935,6.935,0,0,1,302.3,301.588Z" transform="translate(138.202 54.05)" fill="#ffab00"/>
    <path id="Path_4139" data-name="Path 4139" d="M314.882,307.872h-31.79a2.219,2.219,0,0,1,0-4.437h31.79a2.219,2.219,0,0,1,0,4.437Z" transform="translate(126.981 66.217)" fill="#ffab00"/>
  </g>
</svg>
