<svg xmlns="http://www.w3.org/2000/svg" width="159.605" height="153.148" viewBox="0 0 159.605 153.148">
  <g id="Group_3038" data-name="Group 3038" transform="translate(-472.66 -323.523)">
    <path id="Path_4125" data-name="Path 4125" d="M394.314,430.584,477,370.507a256.554,256.554,0,0,0-128.017-93.071L317.4,374.664A154.164,154.164,0,0,1,394.314,430.584Z" transform="translate(155.261 46.087)" fill="#78c01d"/>
    <path id="Path_4140" data-name="Path 4140" d="M369.356,344.072a25.817,25.817,0,0,1-24.865-18.538,2.2,2.2,0,0,1,1.483-2.748,2.091,2.091,0,0,1,.635-.1,2.206,2.206,0,0,1,2.111,1.579,21.529,21.529,0,0,0,41.27,0,2.2,2.2,0,0,1,2.111-1.579,2.107,2.107,0,0,1,.639.1,2.206,2.206,0,0,1,1.481,2.748A25.816,25.816,0,0,1,369.356,344.072Z" transform="translate(176.165 81.125)" fill="#538717"/>
    <path id="Path_4141" data-name="Path 4141" d="M353.319,325.939a6.9,6.9,0,1,1,6.906-6.906A6.9,6.9,0,0,1,353.319,325.939Z" transform="translate(177.729 72.951)" fill="#538717"/>
    <path id="Path_4142" data-name="Path 4142" d="M369.633,325.939a6.9,6.9,0,1,1,6.9-6.906A6.9,6.9,0,0,1,369.633,325.939Z" transform="translate(190.36 72.951)" fill="#538717"/>
  </g>
</svg>
