<svg id="Group_32" data-name="Group 32" xmlns="http://www.w3.org/2000/svg" width="350.7" height="57.658" viewBox="0 0 350.7 57.658">
  <g id="Group_30" data-name="Group 30" transform="translate(57.247 2.262)">
    <path id="Path_23" data-name="Path 23" d="M315.5,367.2q0,1.021-2.926,8.014t-2.919,8.171H307.33a27.844,27.844,0,0,0-1.717-4.961q-2.12-5.294-3-8.276h-.135q-.823,2.879-2.8,8.293a29.136,29.136,0,0,0-1.563,4.943h-2.338q0-.983-2.757-8.189t-2.764-8h3.031a38.213,38.213,0,0,0,1.989,6.474,37.57,37.57,0,0,1,1.984,6.508h.184q0-1.4,2.054-6.735t2.054-6.247h2.9a40.643,40.643,0,0,0,2.134,6.526,43.414,43.414,0,0,1,2.129,6.456h.169a33,33,0,0,1,1.85-6.346q1.847-5.306,1.85-6.636Zm15.8,16.185-2.675.1a6.789,6.789,0,0,1-.2-1.588h-.169a8.154,8.154,0,0,1-5.711,1.909,5.167,5.167,0,0,1-3.373-1.152,3.974,3.974,0,0,1-1.413-3.275,4.963,4.963,0,0,1,2.216-4.223q2.214-1.585,8.231-1.675a8.029,8.029,0,0,0,.05-.937c0-1.4-.371-2.331-1.117-2.8a6.491,6.491,0,0,0-3.385-.7,21.16,21.16,0,0,0-5.262.663l.289-2.351a21.351,21.351,0,0,1,5.875-.733,7.645,7.645,0,0,1,4.689,1.251q1.649,1.256,1.65,4.27c0,.533-.022,1.505-.075,2.907s-.075,2.338-.075,2.8a29.548,29.548,0,0,0,.459,5.519Zm-3.019-3.3q-.078-2.591-.08-4.654a18.8,18.8,0,0,0-4.876.479q-2.793.852-2.8,3.25,0,2.322,3.273,2.321a6.742,6.742,0,0,0,4.479-1.4Zm10.632,3.3h-3.268q.307-5.624.3-12.713a103.6,103.6,0,0,0-.494-11.262l3.46-.167q-.322,4.633-.324,11.429,0,7,.324,12.713Zm7.992,0h-3.268q.307-5.624.3-12.713a103.6,103.6,0,0,0-.494-11.262l3.46-.167q-.322,4.633-.324,11.429,0,7,.324,12.713Zm24.663-2.6-.174,2.281a7.467,7.467,0,0,1-3.694.785q-4.412,0-6.753-2.438a8.2,8.2,0,0,1-2.333-5.88,8.865,8.865,0,0,1,2.455-6.269,8.457,8.457,0,0,1,6.491-2.625,11.168,11.168,0,0,1,3.305.409l-.461,2.675a10.378,10.378,0,0,0-3.629-.663,4.79,4.79,0,0,0-3.849,1.688,6.316,6.316,0,0,0-1.431,4.228,6.529,6.529,0,0,0,1.7,4.6,6.243,6.243,0,0,0,4.821,1.837,14.266,14.266,0,0,0,3.55-.628Zm18.932-5.985a9.078,9.078,0,0,1-2.508,6.81,8.162,8.162,0,0,1-5.9,2.443,7.624,7.624,0,0,1-5.444-2.164,8,8,0,0,1-2.273-6.1,9.188,9.188,0,0,1,2.513-6.865,8.142,8.142,0,0,1,5.9-2.47,7.545,7.545,0,0,1,5.439,2.186,8.168,8.168,0,0,1,2.268,6.159Zm-2.949.6a8.539,8.539,0,0,0-1.339-4.729,4.579,4.579,0,0,0-7.585-.11A7.971,7.971,0,0,0,377.3,375.1a8.535,8.535,0,0,0,1.336,4.739,4.587,4.587,0,0,0,7.59.095,8.031,8.031,0,0,0,1.316-4.544Zm28.285-1.872c0-1.82-.314-3.019-.942-3.607a4.511,4.511,0,0,0-3.113-.877,5.679,5.679,0,0,0-3.762,1.792q-.071,2.075-.07,4.071,0,2.845.1,8.485H404.94q.374-4.857.376-9.864c0-1.82-.314-3.019-.947-3.607a4.347,4.347,0,0,0-3.024-.877,5.674,5.674,0,0,0-3.986,1.792q0,5.4.065,12.556h-3.1q.325-5.792.327-8.381a38.948,38.948,0,0,0-.768-7.735l3-.431.3,2.067h.174a6.755,6.755,0,0,1,4.921-2.271q4.042,0,5.2,2.271h.187a7.766,7.766,0,0,1,5.078-2.271,6.447,6.447,0,0,1,4.327,1.264q1.466,1.256,1.466,4.45c0,.214-.012.638-.035,1.274s-.03,1.064-.03,1.279q0,2.845.065,8.485h-3.1q.392-4.464.391-9.864Zm28.574,0c0-1.82-.314-3.019-.942-3.607a4.5,4.5,0,0,0-3.111-.877,5.679,5.679,0,0,0-3.764,1.792q-.067,2.075-.07,4.071,0,2.845.1,8.485h-3.106q.378-4.857.379-9.864c0-1.82-.314-3.019-.947-3.607a4.35,4.35,0,0,0-3.026-.877,5.673,5.673,0,0,0-3.983,1.792q0,5.4.065,12.556h-3.1q.322-5.792.327-8.381a38.95,38.95,0,0,0-.768-7.735l3-.431.3,2.067h.174a6.755,6.755,0,0,1,4.921-2.271q4.038,0,5.2,2.271h.185a7.777,7.777,0,0,1,5.08-2.271,6.452,6.452,0,0,1,4.327,1.264q1.466,1.256,1.466,4.45c0,.214-.012.638-.035,1.274s-.03,1.064-.03,1.279q0,2.845.065,8.485h-3.1q.393-4.464.389-9.864Zm21.54,9.846-2.642.1a6.875,6.875,0,0,1-.237-1.57h-.169a8.241,8.241,0,0,1-5.5,1.909,5.643,5.643,0,0,1-4.287-1.421q-1.335-1.421-1.339-5.733c0-.414.012-1.017.035-1.827s.035-1.354.035-1.653q0-2.5-.292-5.9l3.171-.115c-.14,2.193-.2,4.066-.2,5.624q0,5.365.688,6.992c.459,1.087,1.5,1.628,3.111,1.628a7.173,7.173,0,0,0,4.5-1.361q0-9.475-.169-12.768l3.066-.115q-.131,3.2-.135,8.857a72.582,72.582,0,0,0,.374,7.346Zm18.763.017h-3.1q.378-4.483.371-9.781c0-1.745-.354-2.944-1.062-3.584a4.365,4.365,0,0,0-3.044-.965,6.721,6.721,0,0,0-4.462,1.757q0,5.811.072,12.573h-3.106q.3-5.792.289-8.381a39.232,39.232,0,0,0-.75-7.735l3-.431.319,2.081h.142a7.931,7.931,0,0,1,5.4-2.286,6.823,6.823,0,0,1,4.38,1.251c1.03.838,1.548,2.321,1.548,4.462,0,.214-.012.638-.035,1.274s-.035,1.064-.035,1.279q0,2.845.07,8.485Zm7.548,0h-3.081q.236-3.41.239-7.787a47.731,47.731,0,0,0-.6-8.266l3.41-.459q-.2,3.56-.2,8.725,0,4.094.237,7.787Zm.718-21.3a2.189,2.189,0,0,1-.566,1.506,2,2,0,0,1-1.583.641,1.711,1.711,0,0,1-1.353-.553,1.949,1.949,0,0,1-.484-1.339,2.126,2.126,0,0,1,.576-1.483,2.081,2.081,0,0,1,1.605-.628,1.669,1.669,0,0,1,1.321.553,1.928,1.928,0,0,1,.484,1.3Zm16.193,18.693-.174,2.281a7.467,7.467,0,0,1-3.694.785q-4.416,0-6.753-2.438a8.2,8.2,0,0,1-2.333-5.88,8.865,8.865,0,0,1,2.455-6.269,8.457,8.457,0,0,1,6.491-2.625,11.139,11.139,0,0,1,3.3.409L508,369.716a10.388,10.388,0,0,0-3.629-.663,4.8,4.8,0,0,0-3.851,1.688,6.328,6.328,0,0,0-1.431,4.228,6.531,6.531,0,0,0,1.705,4.6,6.243,6.243,0,0,0,4.821,1.837,14.286,14.286,0,0,0,3.55-.628Zm16.168,2.6-2.675.1a6.784,6.784,0,0,1-.2-1.588h-.167a8.164,8.164,0,0,1-5.713,1.909,5.166,5.166,0,0,1-3.373-1.152,3.974,3.974,0,0,1-1.413-3.275A4.963,4.963,0,0,1,514,375.16q2.217-1.585,8.231-1.675a7.481,7.481,0,0,0,.052-.937,3.055,3.055,0,0,0-1.117-2.8,6.507,6.507,0,0,0-3.388-.7,21.16,21.16,0,0,0-5.262.663l.289-2.351a21.353,21.353,0,0,1,5.875-.733,7.644,7.644,0,0,1,4.689,1.251q1.649,1.256,1.653,4.27c0,.533-.025,1.505-.077,2.907s-.075,2.338-.075,2.8a29.756,29.756,0,0,0,.459,5.519Zm-3.019-3.3q-.079-2.591-.08-4.654a18.8,18.8,0,0,0-4.876.479q-2.793.852-2.8,3.25c0,1.548,1.094,2.321,3.273,2.321a6.743,6.743,0,0,0,4.479-1.4Zm16.681.955-.2,2.216a7.452,7.452,0,0,1-2.538.494q-3.07,0-4.193-1.565t-1.129-5.576q0-2.61.035-6.8-.95,0-2.809.1l.1-2.473c1.082.07,2.047.1,2.9.1,0-.681.052-2.3.169-4.856l2.677-.269q-.292,3.578-.292,5.125c1.109,0,2.75-.052,4.908-.169l-.122,2.543c-2.042-.07-3.687-.1-4.921-.1q-.034,2.573-.035,5.793c0,2.338.244,3.891.738,4.641a3.05,3.05,0,0,0,2.752,1.134,8.406,8.406,0,0,0,1.959-.337Zm6.272,2.348h-3.083q.236-3.41.239-7.787a47.732,47.732,0,0,0-.6-8.266l3.41-.459q-.2,3.56-.2,8.725,0,4.094.239,7.787Zm.715-21.3a2.189,2.189,0,0,1-.566,1.506,2,2,0,0,1-1.58.641,1.717,1.717,0,0,1-1.356-.553,1.948,1.948,0,0,1-.484-1.339,2.125,2.125,0,0,1,.576-1.483,2.08,2.08,0,0,1,1.605-.628,1.669,1.669,0,0,1,1.321.553,1.928,1.928,0,0,1,.484,1.3Zm19.361,12.708a9.076,9.076,0,0,1-2.505,6.81,8.166,8.166,0,0,1-5.9,2.443,7.624,7.624,0,0,1-5.444-2.164,8,8,0,0,1-2.276-6.1,9.188,9.188,0,0,1,2.513-6.865,8.143,8.143,0,0,1,5.905-2.47,7.544,7.544,0,0,1,5.439,2.186,8.167,8.167,0,0,1,2.266,6.159Zm-2.949.6a8.537,8.537,0,0,0-1.336-4.729,4.579,4.579,0,0,0-7.585-.11,7.972,7.972,0,0,0-1.321,4.549,8.536,8.536,0,0,0,1.339,4.739,4.587,4.587,0,0,0,7.59.095,8.029,8.029,0,0,0,1.314-4.544Zm21.318,7.992h-3.1q.374-4.483.371-9.781c0-1.745-.356-2.944-1.064-3.584a4.365,4.365,0,0,0-3.044-.965,6.71,6.71,0,0,0-4.459,1.757q0,5.811.07,12.573H569.38q.3-5.792.289-8.381a39.234,39.234,0,0,0-.75-7.735l3-.431.319,2.081h.14a7.935,7.935,0,0,1,5.4-2.286,6.823,6.823,0,0,1,4.38,1.251c1.03.838,1.548,2.321,1.548,4.462,0,.214-.012.638-.035,1.274s-.035,1.064-.035,1.279Q583.64,377.744,583.71,383.384Z" transform="translate(-290.257 -359.242)" fill="#fff"/>
    <path id="Path_24" data-name="Path 24" d="M341.385,384.254a3.616,3.616,0,0,1-1.391,3,5.691,5.691,0,0,1-3.627,1.1,6.633,6.633,0,0,1-4.938-1.842l1.411-1.391a4.828,4.828,0,0,0,3.567,1.331,3.509,3.509,0,0,0,2.126-.558,1.843,1.843,0,0,0,.755-1.575,1.878,1.878,0,0,0-.548-1.451,2.874,2.874,0,0,0-1.528-.588l-1.648-.237a4.789,4.789,0,0,1-2.645-1.117,3.48,3.48,0,0,1-1.02-2.665,3.8,3.8,0,0,1,1.254-2.969,4.924,4.924,0,0,1,3.41-1.127,6.1,6.1,0,0,1,4.332,1.588l-1.354,1.334A4.224,4.224,0,0,0,336.507,376a2.694,2.694,0,0,0-1.872.608,2.009,2.009,0,0,0-.678,1.568,1.662,1.662,0,0,0,.538,1.3,3,3,0,0,0,1.56.636l1.585.234a4.936,4.936,0,0,1,2.607,1.039,3.607,3.607,0,0,1,1.137,2.862Zm6.76,3.978h-1.194a2.613,2.613,0,0,1-2.059-.842,2.822,2.822,0,0,1-.666-1.922V380H343.09v-1.531h1.137v-3.016h2v3.016h1.919V380h-1.919v5.369q0,1.155,1.1,1.157h.823v1.7Zm9.522-9.113-1.508,1.508a2.065,2.065,0,0,0-1.491-.666,1.843,1.843,0,0,0-1.411.618,2.292,2.292,0,0,0-.568,1.618v6.035h-2V378.3h2v1.077a3.014,3.014,0,0,1,2.627-1.194,3.171,3.171,0,0,1,2.351.94Zm8.939,9.113h-2v-.9a4.108,4.108,0,0,1-5.28.117,2.939,2.939,0,0,1-.778-2.136,2.646,2.646,0,0,1,.882-2.076,3.727,3.727,0,0,1,2.548-.783h2.627v-.705q0-1.862-2.176-1.862a2.584,2.584,0,0,0-2.176.96l-1.314-1.234a3.923,3.923,0,0,1,1.528-1.139,5.865,5.865,0,0,1,2.039-.292q4.1,0,4.1,3.41v6.643Zm-2-3.587v-.8h-2.333q-1.783,0-1.785,1.431,0,1.41,1.825,1.411a2.609,2.609,0,0,0,1.862-.568,2,2,0,0,0,.431-1.471Zm9.231,3.587h-1.2a2.613,2.613,0,0,1-2.059-.842,2.822,2.822,0,0,1-.666-1.922V380h-1.137v-1.531h1.137v-3.016h2v3.016h1.922V380h-1.922v5.369q0,1.155,1.1,1.157h.825v1.7Zm10.462-4.39h-6.449a2.975,2.975,0,0,0,.656,2.036,2.358,2.358,0,0,0,1.872.745,3.29,3.29,0,0,0,2.41-1.019l1.274,1.2a5.469,5.469,0,0,1-1.588,1.157,5.22,5.22,0,0,1-2.134.391q-4.472,0-4.469-5.1a5.6,5.6,0,0,1,1.137-3.734,3.819,3.819,0,0,1,3.076-1.341,3.916,3.916,0,0,1,3.116,1.331,5.147,5.147,0,0,1,1.1,3.45v.882Zm-1.982-1.391a3.605,3.605,0,0,0-.272-1.354,2.175,2.175,0,0,0-3.941,0,3.6,3.6,0,0,0-.254,1.354Zm12.214,5.721a3.977,3.977,0,0,1-4.253,4.2,4.951,4.951,0,0,1-3.507-1.314l1.274-1.274a3.055,3.055,0,0,0,2.156.882,2.16,2.16,0,0,0,1.8-.765,2.758,2.758,0,0,0,.529-1.762v-1.276a3.534,3.534,0,0,1-4.938.254q-1.118-1.114-1.117-4.036t1.117-4.036a3.6,3.6,0,0,1,5,.312V378.3h1.939v9.876Zm-2-5.1a5.3,5.3,0,0,0-.334-2.156,1.959,1.959,0,0,0-3.37,0,5.054,5.054,0,0,0-.351,2.156,4.906,4.906,0,0,0,.351,2.136,1.939,1.939,0,0,0,3.37,0,5.145,5.145,0,0,0,.334-2.136Zm12.678-4.781-4.392,11.915a3.33,3.33,0,0,1-.723,1.234,2.759,2.759,0,0,1-2.039.725h-.8v-1.8h.508a1.507,1.507,0,0,0,.922-.227,1.792,1.792,0,0,0,.508-.832l.548-1.548-3.467-9.465h2.116l2.371,7,2.313-7Zm20.478,9.936h-2v-6.057a2.244,2.244,0,0,0-.586-1.685,1.874,1.874,0,0,0-1.411-.528,1.979,1.979,0,0,0-2.059,2.116v6.154h-2v-6.057a2.245,2.245,0,0,0-.588-1.685,1.87,1.87,0,0,0-1.411-.528,2.009,2.009,0,0,0-1.451.528,2.246,2.246,0,0,0-.606,1.685v6.057h-2V378.3h2v1a3.389,3.389,0,0,1,2.635-1.117,3.133,3.133,0,0,1,2.817,1.448,3.821,3.821,0,0,1,3.106-1.448,3.41,3.41,0,0,1,2.5.9,3.719,3.719,0,0,1,1.054,2.8v6.351Zm10.39,0h-2v-.9a4.108,4.108,0,0,1-5.28.117,2.939,2.939,0,0,1-.778-2.136,2.646,2.646,0,0,1,.882-2.076,3.727,3.727,0,0,1,2.548-.783h2.627v-.705q0-1.862-2.176-1.862a2.59,2.59,0,0,0-2.176.96l-1.311-1.234a3.905,3.905,0,0,1,1.528-1.139,5.838,5.838,0,0,1,2.037-.292q4.1,0,4.1,3.41v6.643Zm-2-3.587v-.8h-2.333q-1.783,0-1.782,1.431,0,1.41,1.822,1.411a2.605,2.605,0,0,0,1.862-.568,2,2,0,0,0,.431-1.471Zm12.738,3.587h-2v-1.059a3.212,3.212,0,0,1-2.61,1.177,3.25,3.25,0,0,1-2.413-.882q-1.114-1.118-1.112-4.213,0-3.077,1.117-4.2a3.259,3.259,0,0,1,2.41-.88,3.22,3.22,0,0,1,2.607,1.117v-5.018h2v13.954Zm-2-4.978a5.713,5.713,0,0,0-.351-2.313,1.974,1.974,0,0,0-3.41,0,7.343,7.343,0,0,0,0,4.627,1.954,1.954,0,0,0,3.41,0,5.729,5.729,0,0,0,.351-2.313Zm13.089.588h-6.449a2.975,2.975,0,0,0,.656,2.036,2.358,2.358,0,0,0,1.872.745,3.29,3.29,0,0,0,2.41-1.019l1.274,1.2a5.494,5.494,0,0,1-1.585,1.157,5.241,5.241,0,0,1-2.136.391q-4.468,0-4.469-5.1a5.6,5.6,0,0,1,1.137-3.734,3.819,3.819,0,0,1,3.076-1.341,3.913,3.913,0,0,1,3.116,1.331,5.147,5.147,0,0,1,1.1,3.45v.882Zm-1.979-1.391a3.6,3.6,0,0,0-.277-1.354,2.173,2.173,0,0,0-3.939,0,3.546,3.546,0,0,0-.254,1.354Zm16.679,2.742a2.7,2.7,0,0,1-1.144,2.333,5.012,5.012,0,0,1-2.989.823,5.694,5.694,0,0,1-4.175-1.431l1.314-1.314a3.822,3.822,0,0,0,2.862,1.039q2.176,0,2.174-1.371c0-.705-.444-1.1-1.331-1.177l-1.588-.137q-2.939-.254-2.939-2.745a2.7,2.7,0,0,1,1.1-2.253,4.262,4.262,0,0,1,2.645-.783,5.416,5.416,0,0,1,3.684,1.117l-1.254,1.274a3.7,3.7,0,0,0-2.45-.725q-1.8,0-1.8,1.274c0,.678.456,1.057,1.374,1.137l1.565.137q2.961.254,2.959,2.8Zm4.427,3.039h-2V378.3h2v9.936Zm.06-11.9h-2.116v-2.116H477.1v2.116Zm17.225,11.9h-2v-6.057a2.245,2.245,0,0,0-.588-1.685,1.874,1.874,0,0,0-1.411-.528,1.982,1.982,0,0,0-2.059,2.116v6.154h-2v-6.057a2.245,2.245,0,0,0-.588-1.685,1.87,1.87,0,0,0-1.411-.528,2,2,0,0,0-1.448.528,2.237,2.237,0,0,0-.608,1.685v6.057h-2V378.3h2v1a3.392,3.392,0,0,1,2.635-1.117,3.133,3.133,0,0,1,2.817,1.448,3.821,3.821,0,0,1,3.106-1.448,3.42,3.42,0,0,1,2.5.9,3.727,3.727,0,0,1,1.052,2.8v6.351Zm11.212-4.978q0,3.1-1.119,4.213a3.636,3.636,0,0,1-5.015-.254v5.038h-2V378.3h2v1.057a3.6,3.6,0,0,1,5.023-.294q1.114,1.118,1.112,4.2Zm-2,0a5.66,5.66,0,0,0-.354-2.313,1.974,1.974,0,0,0-3.41,0,7.39,7.39,0,0,0,0,4.627,1.954,1.954,0,0,0,3.41,0,5.676,5.676,0,0,0,.354-2.313Zm8.6,4.978H510.9a2.616,2.616,0,0,1-2.076-.823,2.781,2.781,0,0,1-.648-1.922v-11.21h2v11.093q0,1.155,1.077,1.157h.882v1.7Zm10.113-4.39h-6.446a2.964,2.964,0,0,0,.656,2.036,2.353,2.353,0,0,0,1.87.745,3.3,3.3,0,0,0,2.413-1.019l1.274,1.2a5.5,5.5,0,0,1-1.588,1.157,5.241,5.241,0,0,1-2.136.391q-4.468,0-4.469-5.1a5.6,5.6,0,0,1,1.137-3.734,3.825,3.825,0,0,1,3.079-1.341,3.92,3.92,0,0,1,3.116,1.331,5.159,5.159,0,0,1,1.1,3.45v.882Zm-1.979-1.391A3.657,3.657,0,0,0,520,381.1a2.173,2.173,0,0,0-3.939,0,3.548,3.548,0,0,0-.254,1.354Z" transform="translate(-228.799 -336.972)" fill="#fff"/>
  </g>
  <g id="Group_31" data-name="Group 31">
    <path id="Path_13" data-name="Path 13" d="M269.963,359.047l-.005-.712,7.344,1.2-.015,1.973Z" transform="translate(-263.312 -358.333)" fill="#0087cb"/>
    <path id="Path_14" data-name="Path 14" d="M277.564,358.818l-7.662,2.636.025,4.372,7.617-4.517Z" transform="translate(-263.395 -357.614)" fill="#f60000"/>
    <path id="Path_15" data-name="Path 15" d="M270.381,359.982l-.8-.191.006,4.305.811.273Z" transform="translate(-263.875 -356.162)" fill="#e87442"/>
    <path id="Path_16" data-name="Path 16" d="M270.017,358.335l7.465,1.2-.145.045-7.382-1.249Z" transform="translate(-263.314 -358.335)" fill="#414041"/>
    <path id="Path_17" data-name="Path 17" d="M269.58,361.25l.8.207,7.631-2.621-.367-.024Z" transform="translate(-263.875 -357.622)" fill="#bfbfbf"/>
    <path id="Path_18" data-name="Path 18" d="M269.609,364.094l-.034-4.3,44.379,7.255-.1,11.926Z" transform="translate(-263.882 -356.159)" fill="#0087cb"/>
    <path id="Path_19" data-name="Path 19" d="M315.534,362.7,269.243,378.64l.13,26.413L315.4,377.76Z" transform="translate(-264.377 -351.816)" fill="#f60000"/>
    <path id="Path_20" data-name="Path 20" d="M272.149,369.731l-4.858-1.148.047,26.01,4.95,1.678Z" transform="translate(-267.291 -343.036)" fill="rgba(191,191,191,0.51)"/>
    <path id="Path_21" data-name="Path 21" d="M269.948,359.786l45.106,7.27-.887.268-44.6-7.538Z" transform="translate(-263.897 -356.169)" fill="#414041"/>
    <path id="Path_22" data-name="Path 22" d="M267.291,377.414l4.866,1.242,46.087-15.847-2.188-.141Z" transform="translate(-267.291 -351.865)" fill="#bfbfbf"/>
  </g>
</svg>
