<svg xmlns="http://www.w3.org/2000/svg" width="245.204" height="245.204" viewBox="0 0 245.204 245.204">
  <g id="Group_3039" data-name="Group 3039" transform="translate(-297.13 -446.501)">
    <circle id="Ellipse_4" data-name="Ellipse 4" cx="86.693" cy="86.693" r="86.693" transform="translate(297.13 569.103) rotate(-45)" fill="#d3d1c8"/>
    <path id="Path_4143" data-name="Path 4143" d="M412.094,415.848a86.694,86.694,0,0,1-173.387,0Z" transform="translate(94.332 153.256)" fill="#b0aea5"/>
    <circle id="Ellipse_5" data-name="Ellipse 5" cx="80.141" cy="80.141" r="80.141" transform="translate(339.592 488.963)" fill="#e8e8e2"/>
    <circle id="Ellipse_6" data-name="Ellipse 6" cx="73.57" cy="73.57" r="73.57" transform="matrix(0.924, -0.383, 0.383, 0.924, 323.608, 529.287)" fill="#43a729"/>
    <path id="Path_4144" data-name="Path 4144" d="M294.88,414.43a56.737,56.737,0,0,0-31.539,0l-.007-.089a15.775,15.775,0,0,1,31.55,0Z" transform="translate(113.399 139.877)" fill="#2d721d"/>
    <path id="Path_4145" data-name="Path 4145" d="M325.565,414.43a56.737,56.737,0,0,0-31.54,0l0-.089a15.775,15.775,0,0,1,31.55,0Z" transform="translate(137.161 139.877)" fill="#2d721d"/>
    <path id="Path_4146" data-name="Path 4146" d="M303.9,457.094a37.433,37.433,0,0,1-37.435-37.435h74.873A37.436,37.436,0,0,1,303.9,457.094Z" transform="translate(115.827 156.206)" fill="#2d721d"/>
  </g>
</svg>
