<svg xmlns="http://www.w3.org/2000/svg" width="838.196" height="619.328" viewBox="0 0 838.196 619.328">
  <g id="Group_3023" data-name="Group 3023" transform="translate(-5928.009 -1374)">
    <path id="Path_4739" data-name="Path 4739" d="M482.714,470.6a8.574,8.574,0,0,1-.551-17.13c.245-.019,10.472-.813,23.979-6.332a103.445,103.445,0,0,0,44.886-35.312,8.575,8.575,0,0,1,13.841,10.127c-33,45.109-79.646,48.508-81.615,48.632C483.07,470.595,482.892,470.6,482.714,470.6Z" transform="translate(5782.7 1522.728)" fill="#676a75"/>
    <path id="Path_4740" data-name="Path 4740" d="M301.168,363.064a8.575,8.575,0,0,1,17.131-.551c.019.246.811,10.472,6.33,23.981a103.45,103.45,0,0,0,35.312,44.884,8.575,8.575,0,1,1-10.127,13.841c-45.109-33-48.508-79.644-48.632-81.615C301.174,363.422,301.168,363.244,301.168,363.064Z" transform="translate(5631.53 1475.696)" fill="#676a75"/>
    <path id="Path_4741" data-name="Path 4741" d="M484.264,188.653a8.575,8.575,0,0,1-11.056,13.1c-.195-.152-8.324-6.405-22.056-11.345a103.44,103.44,0,0,0-56.982-3.8,8.576,8.576,0,0,1-3.508-16.788c54.713-11.429,91.642,17.259,93.188,18.484Z" transform="translate(5703.779 1311.953)" fill="#676a75"/>
    <path id="Path_4742" data-name="Path 4742" d="M324.532,367.332l49.395-25.909,18.6,48.947-48.941,17.268Z" transform="translate(5651.948 1464.269)" fill="#fc8d69"/>
    <path id="Path_4743" data-name="Path 4743" d="M333.016,368.193s15.542-3.2,22.152,0,12.259,22.852,12.259,22.852l32.58,2.324L370.53,337.991l-30.547,14.47Z" transform="translate(5659.363 1461.27)" fill="#fb7965"/>
    <path id="Path_4744" data-name="Path 4744" d="M352.587,331.563a49.519,49.519,0,0,0-25.429,65.248l83.849,190.936a49.516,49.516,0,0,0,65.245,25.427L720.245,506.029V170.111Z" transform="translate(5650.581 1314.555)" fill="#d5d0c7"/>
    <path id="Path_4745" data-name="Path 4745" d="M522.074,357.431a16.662,16.662,0,0,1-16.661-16.661,16.83,16.83,0,0,1,.371-3.514,15.5,15.5,0,0,0,30.513-5.168,16.662,16.662,0,0,1-14.223,25.343Z" transform="translate(5810.025 1456.111)" fill="#b0a89e"/>
    <path id="Path_4746" data-name="Path 4746" d="M487,241.048a16.66,16.66,0,0,1-16.659-16.661,16.982,16.982,0,0,1,.131-2.106,15.5,15.5,0,1,0,29.632-8.187A16.663,16.663,0,0,1,487,241.048Z" transform="translate(5779.375 1352.992)" fill="#b0a89e"/>
    <path id="Path_4747" data-name="Path 4747" d="M360.867,307.072a16.662,16.662,0,0,1-14.986-9.372l4.252-2.64a15.5,15.5,0,0,0,27.035-8.11,16.85,16.85,0,0,1,.36,3.461,16.662,16.662,0,0,1-16.661,16.661Zm-16.5-14.358,3.114-1.934a15.472,15.472,0,0,1-1.167-5.912,15.71,15.71,0,0,1,.311-3.105,16.6,16.6,0,0,0-2.417,8.648A16.368,16.368,0,0,0,344.363,292.714Z" transform="translate(5669.141 1412.131)" fill="#b0a89e"/>
    <path id="Path_4748" data-name="Path 4748" d="M377.519,442.553a50.3,50.3,0,0,1-3.06-5.852h0l-9.673-22.024,10.428,2.406,66.7-57.878,15.9-16.256s2.322,2.142,1.252,4.644-3.66,17.7-5.045,21.177-11.75,9.908-11.75,9.908-35.012,49.125-42.694,55.2C395.3,437.257,385.429,440.416,377.519,442.553Z" transform="translate(5687.128 1465.602)" fill="#b0a89e"/>
    <path id="Path_4749" data-name="Path 4749" d="M419.751,356.569c-4.934,0-17.984-1.625-17.984-1.625l-54.351-10.728-9.467-21.556,1.653-5.466,32.383,7.055L424.1,339.2l9.291,3.924-.714,5.537-5.554,2.5s-2.663,5.009-6.236,5.361C420.585,356.556,420.2,356.569,419.751,356.569Z" transform="translate(5663.674 1443.095)" fill="#b0a89e"/>
    <path id="Path_4750" data-name="Path 4750" d="M446.312,472.465l-7.145-58.358-6.907-31.085L413.033,350.1l100.519-43.741a5.459,5.459,0,0,1,.763,2.177c.041,1.01,1,16.466,1,16.466l3.63,33.7,19.191,31.068L567.4,419.514Z" transform="translate(5729.292 1433.622)" fill="#b0a89e"/>
    <path id="Path_4751" data-name="Path 4751" d="M507.939,317.473,421.882,354.65a3.416,3.416,0,0,0-1.78,4.49l24.526,56.774a3.413,3.413,0,0,0,4.488,1.78l86.056-37.175a3.414,3.414,0,0,0,1.78-4.49l-24.524-56.774A3.419,3.419,0,0,0,507.939,317.473Z" transform="translate(5735.224 1443.094)" fill="#e8e8e2"/>
    <path id="Path_4752" data-name="Path 4752" d="M495.182,320.782l-68.16,29.445a2.771,2.771,0,0,0-1.441,3.639l14.738,34.12a2.768,2.768,0,0,0,3.639,1.441l68.16-29.445a2.767,2.767,0,0,0,1.443-3.637l-14.738-34.119A2.772,2.772,0,0,0,495.182,320.782Z" transform="translate(5740.059 1446.032)" fill="#534b4a"/>
    <path id="Rectangle_1744" data-name="Rectangle 1744" d="M1.533,0H16.782a1.532,1.532,0,0,1,1.532,1.532V14.608a1.533,1.533,0,0,1-1.533,1.533H1.532A1.532,1.532,0,0,1,0,14.609V1.533A1.533,1.533,0,0,1,1.533,0Z" transform="translate(6210.859 1827.077) rotate(-23.363)" fill="#cbc8bf"/>
    <path id="Path_4753" data-name="Path 4753" d="M510.735,306.151l-48.089,20.772L414.558,347.7a2.524,2.524,0,0,0-.84,4.044l11.69,12.456a1.84,1.84,0,0,0,2.073.429l43.363-18.73L514.2,327.165a1.844,1.844,0,0,0,1.107-1.8l-1.055-17.049A2.525,2.525,0,0,0,510.735,306.151Z" transform="translate(5729.292 1433.261)" fill="#fff"/>
    <path id="Path_4754" data-name="Path 4754" d="M514.967,324.506l-1.051-16.968a2.527,2.527,0,0,0-2.725-.39L463.1,327.922,415.013,348.7a2.532,2.532,0,0,0-1.585,2.251l11.635,12.4a1.839,1.839,0,0,0,2.073.429l43.363-18.73,43.361-18.732A1.844,1.844,0,0,0,514.967,324.506Z" transform="translate(5729.637 1434.115)" fill="#726a66"/>
    <path id="Path_4755" data-name="Path 4755" d="M508.189,323.621l-.324-14a2.333,2.333,0,0,0-2.425-.223L461.62,328.33,417.8,347.26a2.342,2.342,0,0,0-1.5,1.919l9.967,9.829a1.679,1.679,0,0,0,1.842.281l39.512-17.07,39.51-17.066A1.682,1.682,0,0,0,508.189,323.621Z" transform="translate(5732.146 1436.082)" fill="#a3acb3"/>
    <path id="Path_4756" data-name="Path 4756" d="M456.724,400.231l-3.9-18.739s3.677-11.9,3.4-14.167-4.3-16.479-4.3-16.479-2.708-.289-3.285,1.156,0,8.4,0,8.4a19,19,0,0,1-2.6-3.489c-.437-.984-1.372-10.749-1.8-15.435a2.739,2.739,0,0,0-5.444-.1l-.706,5.5-4.625.924-2.168,5.06-4.867,10.408,3.064,11.746,6.862,9.068,1.445,16.14Z" transform="translate(5740.988 1462.146)" fill="#ebc4ac"/>
    <path id="Path_4757" data-name="Path 4757" d="M496.806,379.843,483.9,365.7s-11.8-3.99-13.472-5.545S459.6,347.02,459.6,347.02s1.351-2.365,2.862-1.986,6.808,4.921,6.808,4.921a18.841,18.841,0,0,0-1.3-4.151c-.54-.931-7.906-7.41-11.453-10.5a2.739,2.739,0,0,1,3.111-4.469l4.87,2.652,3.459-3.208,5.371,1.207,11.287,2.153L492.335,343l3.33,10.874L507.9,364.5Z" transform="translate(5766.468 1454.527)" fill="#ebc4ac"/>
    <rect id="Rectangle_1745" data-name="Rectangle 1745" width="84.081" height="60.26" transform="matrix(0.942, -0.336, 0.336, 0.942, 6045.236, 1789.552)" fill="#fff"/>
    <rect id="Rectangle_1746" data-name="Rectangle 1746" width="81.937" height="55.795" transform="translate(6045.235 1789.552) rotate(-19.606)" fill="#c6c9cf"/>
    <rect id="Rectangle_1747" data-name="Rectangle 1747" width="84.081" height="60.262" transform="translate(6041.082 1785.341) rotate(-19.604)" fill="#fff"/>
    <path id="Path_4758" data-name="Path 4758" d="M368.946,320.959l9.9,4.166s11.315-2.38,15.055-.952,14.918,8.553,16.1,9.4,3,4.771,3,5.6-2.395,4.406-4.987,4.644-14.512.594-14.512.594a44.985,44.985,0,0,1,3.536,3.336c.5.712.605,2.738.2,3.1s-9.6-3.572-12.225-4.408-6.566-4.286-7.275-5-3.131-3.452-3.131-3.452L363.7,333.569Z" transform="translate(5686.174 1446.385)" fill="#facca3"/>
    <path id="Path_4759" data-name="Path 4759" d="M404.683,384.392l6.892-8.238s11.15-3.069,13.818-6.053,1.818-7.7,2.479-8.991-.313-9.625.259-10.234c2.058-2.191,4.955-4.329,6.654-6.2,3-3.306.854-4.8-.66-4.184-2.412.976-18.364,11.806-18.364,11.806a44.615,44.615,0,0,0,1.615-4.584c.122-.866-.716-2.712-1.239-2.845s-6.9,7.573-8.849,9.516-3.873,6.819-4.175,7.779-1.2,4.5-1.2,4.5l-7.674,8.924Z" transform="translate(5712.867 1463.338)" fill="#facca3"/>
    <path id="Rectangle_1748" data-name="Rectangle 1748" d="M3.811,0H76.564a3.812,3.812,0,0,1,3.812,3.812V50.1a3.811,3.811,0,0,1-3.811,3.811H3.811A3.811,3.811,0,0,1,0,50.1V3.811A3.811,3.811,0,0,1,3.811,0Z" transform="matrix(0.949, -0.316, 0.316, 0.949, 6106.312, 1667.763)" fill="#565f70"/>
    <path id="Path_4760" data-name="Path 4760" d="M403.931,278.177a5.321,5.321,0,0,0-3.364,6.724l12.516,37.593a5.318,5.318,0,0,0,6.722,3.364l59.917-19.946a5.319,5.319,0,0,0,3.362-6.724L470.568,261.6a5.318,5.318,0,0,0-6.72-3.364l-59.917,19.946Zm76.943,31.2-62.709,20.877a8.979,8.979,0,0,1-11.341-5.678l-12.516-37.595a8.976,8.976,0,0,1,5.676-11.341l62.709-20.877a8.978,8.978,0,0,1,11.343,5.676l12.516,37.595A8.979,8.979,0,0,1,480.875,309.378Z" transform="translate(5712.526 1388.134)" fill="#fafdfe"/>
    <path id="Path_4761" data-name="Path 4761" d="M402.482,281.478a2.227,2.227,0,1,1-2.817-1.409A2.229,2.229,0,0,1,402.482,281.478Z" transform="translate(5716.278 1410.55)" fill="#d5d0c7"/>
    <path id="Path_4762" data-name="Path 4762" d="M422.635,344.745,369.68,268.672l126.835-55.7,12.218,30.541-1.43,14.731-92.834,33.866,10.25,18.449-3.613,1.2A8.976,8.976,0,0,0,415.43,323.1Z" transform="translate(5691.405 1352.014)" fill="#b0a89e"/>
    <path id="Path_4763" data-name="Path 4763" d="M408.132,305.748,397.561,274a5.321,5.321,0,0,1,3.364-6.724l1.469-.489,6.053,10.891,15.4,4.342,7.52,17.866Z" transform="translate(5715.532 1399.039)" fill="#60626a"/>
    <path id="Path_4764" data-name="Path 4764" d="M407.705,308.129l-6.191-8.894-7.205-21.642a8.976,8.976,0,0,1,5.676-11.341l3.613-1.2,1.8,3.249-1.469.489a5.321,5.321,0,0,0-3.364,6.724l10.571,31.752-3.433.866Zm-3.583-15.149a2.261,2.261,0,0,0-.7.114,2.226,2.226,0,1,0,.7-.114Z" transform="translate(5712.526 1397.524)" fill="#c9c7bf"/>
    <path id="Path_4765" data-name="Path 4765" d="M400.37,284.408a2.227,2.227,0,0,1-.7-4.34,2.261,2.261,0,0,1,.7-.114,2.227,2.227,0,0,1,.7,4.34A2.249,2.249,0,0,1,400.37,284.408Z" transform="translate(5716.278 1410.55)" fill="#b0a89e"/>
    <path id="Path_4766" data-name="Path 4766" d="M420.442,282.058l-12.254-5.625a1.445,1.445,0,0,0-1.756.444l-.124.163a1.445,1.445,0,0,0,.572,2.191l12.373,5.462a1.445,1.445,0,0,0,1.188-2.635Z" transform="translate(5723.161 1407.357)" fill="#fff7ea"/>
    <path id="Path_4767" data-name="Path 4767" d="M414.538,237.132a31.574,31.574,0,0,1-6.984,1.949c-3.379.433-7.666-1.43-10.524-.974s-10,5.457-10,5.457l-2.742,6.669-1.666,10.957,12.267,5s3.156,1.413,8.275-1.325,14.358-10.7,14.358-10.7l6.186-3.214Z" transform="translate(5702.712 1373.127)" fill="#ebc4ac"/>
    <path id="Path_4768" data-name="Path 4768" d="M414.733,273.484l8.358,2.91s4.385,4.69,5.193,5.985,0,5.176,0,5.176,2.912,2.91,2.751,5.659S426.5,299.685,421,299.847s-11.319.81-12.612,0-7.441-13.181-7.441-13.181l-8.733-12.049,16.983-8.249Z" transform="translate(5711.1 1398.676)" fill="#ebc4ac"/>
    <path id="Path_4769" data-name="Path 4769" d="M310.008,414.589s-2.725-28.615,3.774-37.546,41.614-70.66,44.584-73.122,65.215,31.851,65.215,31.851-6.988,16.382-7.715,16.7-46.88-16.461-46.88-16.461L360.942,361.8l11.946-4.6L383.6,381.6s-12.7,7.989-34.27,18.621A185.7,185.7,0,0,1,310.008,414.589Z" transform="translate(5638.761 1431.385)" fill="#85bec7"/>
    <path id="Path_4770" data-name="Path 4770" d="M322.557,416.2c-.287.738,30.972,23.733,43.046,19.59s59.045-15.8,65.445-20.349,41.627-46.372,41.627-46.372l-11.184-13.61-37.136,33.613-25.618,7.938-12.109-27.571S334.67,385.123,322.557,416.2Z" transform="translate(5650.221 1476.536)" fill="#85bec7"/>
    <path id="Path_4771" data-name="Path 4771" d="M429.607,387.939l27.712-3.68,10.451,37.859,70.847-31.113-24.575-24.324,16.847-20.518,54.451,44.706s15.958,47.086,15.539,52.288-19.318,44.757-47.988,58.118-67.517-3.924-72.678-5.129-35.786-40.087-36.356-41.38S429.607,387.939,429.607,387.939Z" transform="translate(5743.776 1468.412)" fill="#f97d59"/>
    <path id="Path_4772" data-name="Path 4772" d="M515.163,271.253c-3.521-18.784-5.129-60.918-8.641-66.9-4.595-7.824-15.2-18.794-31.96-25.326,0,0-71.6-6.184-88,3.915s-22.378,98.771-22.343,102.807,55.151,74.183,55.151,74.183l17.489-13.71L401.485,288.1l78.611-34.52,1.409,9.8L426.62,288.709,437.5,308.175l70.287-24.342A11.118,11.118,0,0,0,515.163,271.253Z" transform="translate(5686.631 1320.71)" fill="#f22443"/>
    <path id="Path_4773" data-name="Path 4773" d="M427.572,302.166l-6.626,1.408-56.5-67.859,54.715,73.04Z" transform="translate(5686.834 1371.889)" fill="#cd142f"/>
    <path id="Path_4774" data-name="Path 4774" d="M482.882,229.271a20.864,20.864,0,0,1-8.523,6.692c-5.18,1.966-65.928,20.544-65.928,20.544l-7.188-.862,3.9,6.984,70.287-24.342A11.118,11.118,0,0,0,482.882,229.271Z" transform="translate(5718.988 1366.257)" fill="#cd142f"/>
    <path id="Path_4775" data-name="Path 4775" d="M384.105,275.867l11.268-83.23s32.395-3.334,41.446,0S459.4,202.02,459.4,202.02l3.319,39.328Z" transform="translate(5704.011 1332.947)" fill="#cd142f"/>
    <path id="Path_4776" data-name="Path 4776" d="M378.933,183.43S396.055,204.4,396.426,225s7.04,12.025,7.04,12.025l-3.574-37.634S391.08,187.242,378.933,183.43Z" transform="translate(5699.491 1326.195)" fill="#cd142f"/>
    <path id="Path_4777" data-name="Path 4777" d="M429.984,216.9s-3.778-22.114,6.941-32.831c0,0-13.577,5.953-17.624,21.436S429.984,216.9,429.984,216.9Z" transform="translate(5734.154 1326.751)" fill="#cd142f"/>
    <path id="Path_4778" data-name="Path 4778" d="M440.1,198.893c.564-.206-.437,15.085-.437,15.085l-5.013,7.809s-11.665,8.333-13.852,9.349-14.909,1.2-14.909,1.2-3.808,1.823-5.607.991-3.7-7.173-3.7-7.173-7.053-3.808-6.808-18.4,18.8-20.971,18.8-20.971Z" transform="translate(5708.96 1329.132)" fill="#ebc4ac"/>
    <path id="Path_4779" data-name="Path 4779" d="M395.934,179s-4.327-1.771-6.793,1.533,1.707,9.448,1.707,9.448Z" transform="translate(5707.73 1321.913)" fill="#ebc4ac"/>
    <path id="Path_4780" data-name="Path 4780" d="M426.955,193.63s3.212.9,3.244,3.607-6.2,9.312-10.526,8.819S426.955,193.63,426.955,193.63Z" transform="translate(5734.25 1335.109)" fill="#ebc4ac"/>
    <path id="Path_4781" data-name="Path 4781" d="M388.827,222.084s-2.436-26.4,6.182-38.942,18.052-14.725,18.052-14.725a24.359,24.359,0,0,1,20.208-1.87c11.266,3.969,21.076,14.442,24.7,25.48s-1.6,27.026-7.7,34.806a82.336,82.336,0,0,1-14.523,13.856s3.484-10.232-.587-10.871c0,0-16.348,12.394-27.262,11.708s-13.007-2.9-13.007-2.9,13.333-3.186,18.893-7.784c0,0-15.565,4.646-22.663,4.477l5.247-6.615-3.619,1.754A13.058,13.058,0,0,1,388.827,222.084Z" transform="translate(5707.86 1310.231)" fill="#262331"/>
    <path id="Path_4782" data-name="Path 4782" d="M380.338,392.12s1.454,5.888-1.166,10.029-7.621,4.975-10.955,9.621-9.862,13.771-19.045,13.972-16.088-9.446-21.449-11.472-19.056,1.788-23.342-6.787,5.834-22.986-.832-30.369-5.7-16.243-1.906-20.484c6.163-6.9,14.29-7.563,23.7-2.2s14.768,1.37,19.056-.06,11.551-1.96,14.289-.74,4.6,6.026,4.6,6.026Z" transform="translate(5629.344 1472.524)" fill="#070131"/>
    <path id="Path_4783" data-name="Path 4783" d="M352.286,332.3l-11.946,4.6-7.323,18.578s11.611-1.608,14.292,0c1.248.75,3.545,3.926,5.642,7.1,6.508-3.663,10.048-5.89,10.048-5.89Z" transform="translate(5659.363 1456.292)" fill="#65a3ab"/>
    <path id="Path_4784" data-name="Path 4784" d="M363.5,362.919s-3.2.963-8.189,2.89c2.166,4.987,5.348,13.415,4.628,18.458-1.072,7.5-10.927,13.221-10.927,13.221l26.6-7Z" transform="translate(5673.346 1483.055)" fill="#65a3ab"/>
    <path id="Path_4785" data-name="Path 4785" d="M468.979,418.789s-4.743-12.881.1-20.452c5.639-8.822,21.065-14.59,30.851-10.826,14.335,5.522,13.333,10.162,13.333,10.162Z" transform="translate(5776.367 1503.523)" fill="#facca3"/>
    <path id="Path_4786" data-name="Path 4786" d="M521.478,397.257s-10.363-11.184-25.772-8.719-18.837,5.7-18.837,5.7l4.006-.112-7.156,5.472s-8.472,13.856-8.245,23.7a30.278,30.278,0,0,0,4.885,16.144s1.818,9.638,6.373,13.768,15.522,8.519,23.8,7.664a42.071,42.071,0,0,0,15.49-5.24,19.143,19.143,0,0,0,12.274-6.744,20.24,20.24,0,0,0,4.867-13.039s5.009-6.2,5.277-9.861-2.532-12.909-2.532-12.909S532.385,397.811,521.478,397.257Z" transform="translate(5775.118 1505.134)" fill="#5e0e0b"/>
    <path id="Path_4787" data-name="Path 4787" d="M449.972,401.206l4.314,17.7,11.789,14.081s3.216-19.731,18.578-32.449,42.16-9.5,46.091-9.321,18.934,17.727,18.934,17.727l-8.217-21.889L520.82,370.093Z" transform="translate(5761.574 1489.324)" fill="#e86346"/>
    <path id="Path_4788" data-name="Path 4788" d="M571.839,404.119s-29.02,37.327-55.8,44.717c-23.465,6.476-51.962-.961-58.654-2.9,8.8,2.921,44.448,17.169,71.222,4.69C549.016,441.118,564.474,418.336,571.839,404.119Z" transform="translate(5768.056 1519.061)" fill="#e86346"/>
    <path id="Path_4789" data-name="Path 4789" d="M417.632,280.671,404,274.415a1.6,1.6,0,0,0-1.953.493l-.137.182a1.606,1.606,0,0,0,.635,2.436l13.764,6.073a1.606,1.606,0,0,0,1.317-2.929Z" transform="translate(5719.293 1405.581)" fill="#fff7ea"/>
    <rect id="Rectangle_1749" data-name="Rectangle 1749" width="84.081" height="60.261" transform="translate(6231.339 1668.973)" fill="#fff"/>
    <rect id="Rectangle_1750" data-name="Rectangle 1750" width="81.937" height="55.794" transform="translate(6231.339 1668.973)" fill="#c6c9cf"/>
    <rect id="Rectangle_1751" data-name="Rectangle 1751" width="84.079" height="60.262" transform="translate(6228.84 1663.613)" fill="#fff"/>
    <rect id="Rectangle_1752" data-name="Rectangle 1752" width="84.08" height="60.261" transform="translate(6237.933 1614.41) rotate(-8.77)" fill="#fff"/>
    <rect id="Rectangle_1753" data-name="Rectangle 1753" width="81.936" height="55.795" transform="matrix(0.988, -0.152, 0.152, 0.988, 6237.934, 1614.408)" fill="#c6c9cf"/>
    <rect id="Rectangle_1754" data-name="Rectangle 1754" width="84.08" height="60.262" transform="translate(6234.643 1609.494) rotate(-8.77)" fill="#fff"/>
    <path id="Path_4790" data-name="Path 4790" d="M342.977,294.253a2.519,2.519,0,0,0,3.469.811l8.706-5.408-2.657-4.278-8.706,5.406A2.518,2.518,0,0,0,342.977,294.253Z" transform="translate(5667.736 1415.29)" fill="#fa4624"/>
    <path id="Path_4791" data-name="Path 4791" d="M376.323,290.647a15.5,15.5,0,1,1-15.5-15.5A15.5,15.5,0,0,1,376.323,290.647Z" transform="translate(5670.123 1406.352)" fill="#fa4624"/>
    <path id="Path_4792" data-name="Path 4792" d="M345.973,287.807a14.056,14.056,0,0,1,3.772-7.884,14.661,14.661,0,0,1,7.784-4.216c.371-.058.744-.1,1.117-.152s.75-.045,1.122-.069c.187-.006.375-.021.562-.017l.564.021c.375,0,.746.054,1.121.094a14.255,14.255,0,0,1,7.97,3.753,14.27,14.27,0,0,1,2.683,3.493,15.314,15.314,0,0,0-6.613-5.425,14.607,14.607,0,0,0-15.872,2.955A15.467,15.467,0,0,0,345.973,287.807Z" transform="translate(5670.687 1406.63)" fill="#fafdfe"/>
    <path id="Path_4793" data-name="Path 4793" d="M371.964,289.261a12.524,12.524,0,1,1-12.525-12.523A12.525,12.525,0,0,1,371.964,289.261Z" transform="translate(5671.51 1407.738)" fill="#87421e"/>
    <path id="Path_4794" data-name="Path 4794" d="M347.191,290.371A12.521,12.521,0,0,0,371.6,288.5a12.521,12.521,0,0,0-24.413,1.866Z" transform="translate(5671.751 1410.185)" fill="#9b552b"/>
    <path id="Path_4795" data-name="Path 4795" d="M359.61,283.147q-.318-.371-.663-.718a10.038,10.038,0,0,0-.869-1.716l.06-.275.277.062A10.293,10.293,0,0,1,359.61,283.147Z" transform="translate(5681.265 1410.972)" fill="#c3a288"/>
    <path id="Path_4796" data-name="Path 4796" d="M354.44,295.431a10.406,10.406,0,0,1-1.64-.131l-.165-.227.229-.165A9.939,9.939,0,0,0,363.7,281.5q.346.346.663.718a10.341,10.341,0,0,1-9.926,13.213Z" transform="translate(5676.509 1411.901)" fill="#cbac91"/>
    <path id="Path_4797" data-name="Path 4797" d="M348.132,285.972a10.384,10.384,0,0,1,4.192-7.022l.279.045-.045.277a9.988,9.988,0,0,0-3.877,5.888C348.49,285.423,348.306,285.694,348.132,285.972Z" transform="translate(5672.573 1409.672)" fill="#c3a288"/>
    <path id="Path_4798" data-name="Path 4798" d="M350.887,291.413l-.148-.068a10.314,10.314,0,0,1-2.655-6.915,10.526,10.526,0,0,1,.09-1.355c.174-.277.358-.549.549-.811a9.924,9.924,0,0,0,2.314,8.815l-.015.281Z" transform="translate(5672.531 1412.569)" fill="#cbac91"/>
    <path id="Path_4799" data-name="Path 4799" d="M350.232,287.754l-.2-.171a6.92,6.92,0,0,1-.071-.986,6.821,6.821,0,0,1,6.814-6.814,6.981,6.981,0,0,1,1.012.075l.169.227-.227.169a6.416,6.416,0,0,0-7.3,7.273l-.171.225Z" transform="translate(5674.173 1410.401)" fill="#cbac91"/>
    <path id="Path_4800" data-name="Path 4800" d="M355.939,288.217a6.838,6.838,0,0,1-5.02-2.206l.013-.283.281.013a6.416,6.416,0,0,0,9.418.036l.281-.009.007.281A6.827,6.827,0,0,1,355.939,288.217Z" transform="translate(5675.009 1415.596)" fill="#cbac91"/>
    <path id="Path_4801" data-name="Path 4801" d="M358.88,286.96l-.015,0-.185-.214.021-.491a6.392,6.392,0,0,0-3.512-5.721l-.086-.268.266-.086a6.785,6.785,0,0,1,3.729,6.075c0,.176-.006.349-.021.521Z" transform="translate(5678.665 1410.746)" fill="#cbac91"/>
    <path id="Path_4802" data-name="Path 4802" d="M353.692,287.562l-.2-.2.2-.2a4.855,4.855,0,0,0,4.188-2.365l.274-.067.067.274A5.249,5.249,0,0,1,353.692,287.562Z" transform="translate(5677.257 1414.724)" fill="#cbac91"/>
    <path id="Path_4803" data-name="Path 4803" d="M351.332,283.522l-.1-.026-.069-.274a5.289,5.289,0,0,1,8.307-1.076v.281h-.281a4.892,4.892,0,0,0-7.681,1Z" transform="translate(5675.22 1411.114)" fill="#cbac91"/>
    <path id="Path_4804" data-name="Path 4804" d="M492.862,208.371a2.521,2.521,0,0,0-3.564,0l-7.246,7.248,3.56,3.562,7.25-7.248A2.522,2.522,0,0,0,492.862,208.371Z" transform="translate(5789.608 1347.347)" fill="#fa4624"/>
    <path id="Path_4805" data-name="Path 4805" d="M501.327,224.533a15.5,15.5,0,1,1-15.5-15.5A15.5,15.5,0,0,1,501.327,224.533Z" transform="translate(5779.367 1348.573)" fill="#fa4624"/>
    <path id="Path_4806" data-name="Path 4806" d="M470.977,221.7a14.135,14.135,0,0,1,1.25-4.222,14.284,14.284,0,0,1,2.522-3.664,14.669,14.669,0,0,1,7.784-4.216c.369-.058.742-.1,1.117-.152s.75-.043,1.122-.069c.189-.006.375-.021.564-.017l.562.021a11.163,11.163,0,0,1,1.119.1,14.3,14.3,0,0,1,7.974,3.752,14.263,14.263,0,0,1,2.682,3.493,15.332,15.332,0,0,0-6.613-5.427,14.614,14.614,0,0,0-15.872,2.957A15.464,15.464,0,0,0,470.977,221.7Z" transform="translate(5779.931 1348.851)" fill="#fafdfe"/>
    <path id="Path_4807" data-name="Path 4807" d="M496.966,223.146a12.523,12.523,0,1,1-12.522-12.523A12.524,12.524,0,0,1,496.966,223.146Z" transform="translate(5780.754 1349.96)" fill="#87421e"/>
    <path id="Path_4808" data-name="Path 4808" d="M472.2,224.256a12.521,12.521,0,0,0,24.413-1.866,12.521,12.521,0,0,0-24.413,1.866Z" transform="translate(5780.995 1352.407)" fill="#9b552b"/>
    <path id="Path_4809" data-name="Path 4809" d="M484.612,217.031q-.318-.371-.662-.718a9.891,9.891,0,0,0-.87-1.715l.064-.275.274.062A10.277,10.277,0,0,1,484.612,217.031Z" transform="translate(5790.509 1353.193)" fill="#c3a288"/>
    <path id="Path_4810" data-name="Path 4810" d="M479.446,229.318a10.392,10.392,0,0,1-1.64-.129l-.167-.229.229-.165a10.067,10.067,0,0,0,1.578.124,9.939,9.939,0,0,0,9.261-13.533q.343.346.661.718a10.337,10.337,0,0,1-9.922,13.215Z" transform="translate(5785.753 1354.121)" fill="#cbac91"/>
    <path id="Path_4811" data-name="Path 4811" d="M473.137,219.856a10.38,10.38,0,0,1,4.192-7.02l.279.045-.047.277a9.988,9.988,0,0,0-3.875,5.888Q473.4,219.44,473.137,219.856Z" transform="translate(5781.818 1351.894)" fill="#c3a288"/>
    <path id="Path_4812" data-name="Path 4812" d="M475.891,225.3l-.146-.064a10.313,10.313,0,0,1-2.655-6.917,10.551,10.551,0,0,1,.09-1.357q.259-.416.549-.81a9.912,9.912,0,0,0,2.311,8.815l-.013.283Z" transform="translate(5781.776 1354.79)" fill="#cbac91"/>
    <path id="Path_4813" data-name="Path 4813" d="M475.233,221.641l-.2-.171a7.251,7.251,0,0,1-.069-.988,6.817,6.817,0,0,1,7.826-6.737l.167.225-.227.169a6.415,6.415,0,0,0-7.368,6.343,6.685,6.685,0,0,0,.068.929l-.169.227Z" transform="translate(5783.417 1352.624)" fill="#cbac91"/>
    <path id="Path_4814" data-name="Path 4814" d="M480.944,222.1a6.827,6.827,0,0,1-5.02-2.207l.011-.281.281.013a6.416,6.416,0,0,0,9.418.036l.281-.009.011.281A6.84,6.84,0,0,1,480.944,222.1Z" transform="translate(5784.254 1357.817)" fill="#cbac91"/>
    <path id="Path_4815" data-name="Path 4815" d="M483.882,220.844h-.013l-.184-.214.019-.491a6.388,6.388,0,0,0-3.51-5.719l-.088-.27.266-.086a6.781,6.781,0,0,1,3.727,6.075c0,.176,0,.349-.017.521Z" transform="translate(5787.909 1352.967)" fill="#cbac91"/>
    <path id="Path_4816" data-name="Path 4816" d="M478.7,221.449l-.2-.2.2-.2a4.854,4.854,0,0,0,4.186-2.367l.275-.067.067.274A5.255,5.255,0,0,1,478.7,221.449Z" transform="translate(5786.501 1356.945)" fill="#cbac91"/>
    <path id="Path_4817" data-name="Path 4817" d="M476.336,217.41l-.1-.028-.073-.274a5.315,5.315,0,0,1,4.571-2.623,5.253,5.253,0,0,1,3.737,1.548v.283h-.281a4.855,4.855,0,0,0-3.456-1.432,4.91,4.91,0,0,0-4.226,2.427Z" transform="translate(5784.464 1353.335)" fill="#cbac91"/>
    <path id="Path_4818" data-name="Path 4818" d="M524.671,350.054a2.52,2.52,0,0,0,.776-3.474l-5.5-8.656-4.25,2.7,5.492,8.654A2.52,2.52,0,0,0,524.671,350.054Z" transform="translate(5819.015 1461.211)" fill="#fa4624"/>
    <path id="Path_4819" data-name="Path 4819" d="M536.4,340.223a15.5,15.5,0,1,1-15.5-15.5A15.5,15.5,0,0,1,536.4,340.223Z" transform="translate(5810.017 1449.677)" fill="#fa4624"/>
    <path id="Path_4820" data-name="Path 4820" d="M506.048,337.381a14.087,14.087,0,0,1,3.77-7.882,14.658,14.658,0,0,1,7.786-4.218c.371-.058.746-.1,1.117-.15s.748-.045,1.122-.071c.187-.006.377-.019.562-.015l.564.019c.375,0,.746.056,1.121.1a14.268,14.268,0,0,1,7.972,3.754,14.319,14.319,0,0,1,2.682,3.493,15.322,15.322,0,0,0-6.613-5.427,14.616,14.616,0,0,0-15.872,2.955A15.466,15.466,0,0,0,506.048,337.381Z" transform="translate(5810.58 1449.956)" fill="#fafdfe"/>
    <path id="Path_4821" data-name="Path 4821" d="M532.036,338.836a12.523,12.523,0,1,1-12.524-12.523A12.522,12.522,0,0,1,532.036,338.836Z" transform="translate(5811.404 1451.064)" fill="#87421e"/>
    <path id="Path_4822" data-name="Path 4822" d="M507.265,339.945a12.523,12.523,0,0,0,24.415-1.866,12.523,12.523,0,0,0-24.415,1.866Z" transform="translate(5811.644 1453.51)" fill="#9b552b"/>
    <path id="Path_4823" data-name="Path 4823" d="M519.682,332.722q-.318-.371-.663-.718a9.889,9.889,0,0,0-.866-1.717l.058-.275.277.064A10.246,10.246,0,0,1,519.682,332.722Z" transform="translate(5821.159 1454.297)" fill="#c3a288"/>
    <path id="Path_4824" data-name="Path 4824" d="M514.515,345.006a10.424,10.424,0,0,1-1.64-.129l-.165-.227.227-.167a10.087,10.087,0,0,0,1.578.125,9.939,9.939,0,0,0,9.261-13.533q.346.346.663.718a10.336,10.336,0,0,1-9.924,13.213Z" transform="translate(5816.402 1455.226)" fill="#cbac91"/>
    <path id="Path_4825" data-name="Path 4825" d="M508.208,335.546a10.371,10.371,0,0,1,4.19-7.02l.279.043-.045.279a9.985,9.985,0,0,0-3.877,5.884C508.564,335,508.38,335.268,508.208,335.546Z" transform="translate(5812.468 1452.998)" fill="#c3a288"/>
    <path id="Path_4826" data-name="Path 4826" d="M510.963,340.988l-.15-.066a10.316,10.316,0,0,1-2.653-6.915,10.205,10.205,0,0,1,.09-1.357c.172-.277.356-.549.547-.813a9.933,9.933,0,0,0,2.314,8.819l-.015.281Z" transform="translate(5812.426 1455.893)" fill="#cbac91"/>
    <path id="Path_4827" data-name="Path 4827" d="M510.307,337.33l-.2-.171a6.957,6.957,0,0,1-.071-.986,6.821,6.821,0,0,1,6.814-6.814,6.979,6.979,0,0,1,1.012.075l.169.227-.227.167a6.725,6.725,0,0,0-.954-.069,6.42,6.42,0,0,0-6.414,6.414,6.653,6.653,0,0,0,.066.928l-.167.227Z" transform="translate(5814.066 1453.727)" fill="#cbac91"/>
    <path id="Path_4828" data-name="Path 4828" d="M516.014,337.793a6.837,6.837,0,0,1-5.02-2.207l.013-.283.283.013a6.412,6.412,0,0,0,9.416.037l.281-.009.009.279A6.829,6.829,0,0,1,516.014,337.793Z" transform="translate(5814.902 1458.921)" fill="#cbac91"/>
    <path id="Path_4829" data-name="Path 4829" d="M518.955,336.534h-.015l-.187-.216.021-.489a6.393,6.393,0,0,0-3.51-5.721l-.086-.268.268-.086a6.785,6.785,0,0,1,3.727,6.075c0,.174-.006.349-.021.519Z" transform="translate(5818.558 1454.071)" fill="#cbac91"/>
    <path id="Path_4830" data-name="Path 4830" d="M513.766,337.138l-.2-.2.2-.2a4.854,4.854,0,0,0,4.19-2.367l.272-.068.067.274A5.248,5.248,0,0,1,513.766,337.138Z" transform="translate(5817.151 1458.048)" fill="#cbac91"/>
    <path id="Path_4831" data-name="Path 4831" d="M511.407,333.1l-.1-.028-.071-.272a5.311,5.311,0,0,1,4.567-2.625,5.252,5.252,0,0,1,3.739,1.55V332h-.281a4.89,4.89,0,0,0-7.681,1Z" transform="translate(5815.114 1454.438)" fill="#cbac91"/>
    <path id="Path_4832" data-name="Path 4832" d="M361.273,370.418c-.35-.838-2.429-1.173-4.452-1.3-7.7-14.281-27.2-14.78-27.2-14.78s-1.559,6.116,6.754,16.258,8.258,30.228,8.258,30.228a36.807,36.807,0,0,0,8.8-7.207c3.7-4.065,7.335-10.042,5.787-17.924C360.441,373.664,361.652,371.31,361.273,370.418Z" transform="translate(5656.293 1475.556)" fill="#facca3"/>
    <path id="Path_4833" data-name="Path 4833" d="M462.371,374.527l-1.949-7.02a3.711,3.711,0,0,0-4.044-2.689l-24.333,3.107a3.709,3.709,0,0,0-3.137,4.544l1.816,7.573a3.71,3.71,0,0,0,4.154,2.8l24.468-3.658A3.707,3.707,0,0,0,462.371,374.527Z" transform="translate(5743.075 1484.688)" fill="#fbdddd"/>
    <path id="Path_4834" data-name="Path 4834" d="M470.941,366.233l5.689,4.552a3.713,3.713,0,0,0,4.853-.186l17.913-16.76a3.709,3.709,0,0,0-.116-5.521l-5.9-5.078a3.709,3.709,0,0,0-5.011.159l-17.7,17.285A3.708,3.708,0,0,0,470.941,366.233Z" transform="translate(5778.683 1465.073)" fill="#fbdddd"/>
    <path id="Path_4835" data-name="Path 4835" d="M690.625,455.914a49.519,49.519,0,0,0,25.429-65.248L632.205,199.73A49.516,49.516,0,0,0,566.961,174.3L322.967,281.448V617.366Z" transform="translate(6045.96 1203.889)" fill="#d5d0c7"/>
  </g>
</svg>
