<svg xmlns="http://www.w3.org/2000/svg" width="512.212" height="380.705" viewBox="0 0 512.212 380.705">
  <g id="Group_2618" data-name="Group 2618" transform="translate(-377.688 -2990.361)">
    <path id="Path_4121" data-name="Path 4121" d="M146.253,480.4H248.478a153.122,153.122,0,0,1,29.41-90.433L195.2,329.892A254.862,254.862,0,0,0,146.253,480.4Z" transform="translate(231.435 2766.063)" fill="#fe200c"/>
    <path id="Path_4122" data-name="Path 4122" d="M390.158,480.4H492.386a254.864,254.864,0,0,0-48.947-150.51l-82.69,60.077A153.141,153.141,0,0,1,390.158,480.4Z" transform="translate(397.514 2766.063)" fill="#43a729"/>
    <path id="Path_4123" data-name="Path 4123" d="M333.446,374.664l-31.593-97.228a256.552,256.552,0,0,0-128.014,93.071l82.69,60.077A154.161,154.161,0,0,1,333.446,374.664Z" transform="translate(252.794 2725.448)" fill="#ffab06"/>
    <path id="Path_4124" data-name="Path 4124" d="M325.134,372.6a153.743,153.743,0,0,1,47.556,7.526L404.277,282.9a256.357,256.357,0,0,0-158.288,0l31.593,97.228A153.713,153.713,0,0,1,325.134,372.6Z" transform="translate(308.658 2719.983)" fill="#fafd16"/>
    <path id="Path_4125" data-name="Path 4125" d="M394.314,430.584,477,370.507a256.554,256.554,0,0,0-128.017-93.071L317.4,374.664A154.164,154.164,0,0,1,394.314,430.584Z" transform="translate(363.949 2725.448)" fill="#78c01d"/>
    <path id="Path_4126" data-name="Path 4126" d="M401.308,376.985a26.978,26.978,0,0,0-14.947,0v-.039a7.473,7.473,0,1,1,14.947,0Z" transform="translate(417.345 2796.707)" fill="#2d721d"/>
    <path id="Path_4127" data-name="Path 4127" d="M415.852,376.985a26.978,26.978,0,0,0-14.947,0l0-.039a7.475,7.475,0,1,1,14.95,0Z" transform="translate(428.603 2796.707)" fill="#2d721d"/>
    <path id="Path_4128" data-name="Path 4128" d="M405.585,397.2a17.741,17.741,0,0,1-17.739-17.741h35.48A17.741,17.741,0,0,1,405.585,397.2Z" transform="translate(418.494 2804.445)" fill="#2d721d"/>
    <path id="Path_4129" data-name="Path 4129" d="M173.063,397.464a2.314,2.314,0,0,1-.642-.092,2.276,2.276,0,0,1-1.544-2.818,18.6,18.6,0,0,1,35.888,0,2.273,2.273,0,0,1-4.365,1.272,14.052,14.052,0,0,0-27.159,0A2.275,2.275,0,0,1,173.063,397.464Z" transform="translate(250.43 2805.513)" fill="#e31101"/>
    <path id="Path_4130" data-name="Path 4130" d="M175.656,382.771a7.105,7.105,0,1,1,7.1-7.106A7.106,7.106,0,0,1,175.656,382.771Z" transform="translate(248.701 2796.004)" fill="#e31101"/>
    <path id="Path_4131" data-name="Path 4131" d="M192.448,382.771a7.105,7.105,0,1,1,7.1-7.106A7.106,7.106,0,0,1,192.448,382.771Z" transform="translate(261.701 2796.004)" fill="#e31101"/>
    <path id="Path_4132" data-name="Path 4132" d="M302.171,471.646,508.719,355.7,291.083,449.187Z" transform="translate(343.573 2786.05)" fill="#4a4c57"/>
    <path id="Path_4133" data-name="Path 4133" d="M296.628,460.417,508.719,355.7,291.083,449.187Z" transform="translate(343.573 2786.05)" fill="#2b2c35"/>
    <path id="Path_4134" data-name="Path 4134" d="M215.554,324.624a6.559,6.559,0,1,1,6.56-6.556A6.556,6.556,0,0,1,215.554,324.624Z" transform="translate(280.015 2751.829)" fill="#ff6b00"/>
    <path id="Path_4135" data-name="Path 4135" d="M231.055,324.624a6.559,6.559,0,1,1,6.559-6.556A6.557,6.557,0,0,1,231.055,324.624Z" transform="translate(292.016 2751.829)" fill="#ff6b00"/>
    <path id="Path_4136" data-name="Path 4136" d="M211.322,332.3a2.092,2.092,0,0,1-1.112-3.863,36.006,36.006,0,0,1,37.831,0,2.093,2.093,0,0,1-1.116,3.863,2.112,2.112,0,0,1-1.111-.321,31.767,31.767,0,0,0-33.379,0A2.082,2.082,0,0,1,211.322,332.3Z" transform="translate(280.197 2760.782)" fill="#ff6b00"/>
    <path id="Path_4137" data-name="Path 4137" d="M285.916,301.588a6.934,6.934,0,1,1,6.934-6.936A6.933,6.933,0,0,1,285.916,301.588Z" transform="translate(334.205 2733.411)" fill="#ffab00"/>
    <path id="Path_4138" data-name="Path 4138" d="M302.3,301.588a6.934,6.934,0,1,1,6.932-6.936A6.935,6.935,0,0,1,302.3,301.588Z" transform="translate(346.89 2733.411)" fill="#ffab00"/>
    <path id="Path_4139" data-name="Path 4139" d="M314.882,307.872h-31.79a2.219,2.219,0,0,1,0-4.437h31.79a2.219,2.219,0,0,1,0,4.437Z" transform="translate(335.669 2745.579)" fill="#ffab00"/>
    <path id="Path_4140" data-name="Path 4140" d="M369.356,344.072a25.817,25.817,0,0,1-24.865-18.538,2.2,2.2,0,0,1,1.483-2.748,2.091,2.091,0,0,1,.635-.1,2.206,2.206,0,0,1,2.111,1.579,21.529,21.529,0,0,0,41.27,0,2.2,2.2,0,0,1,2.111-1.579,2.107,2.107,0,0,1,.639.1,2.206,2.206,0,0,1,1.481,2.748A25.816,25.816,0,0,1,369.356,344.072Z" transform="translate(384.853 2760.486)" fill="#538717"/>
    <path id="Path_4141" data-name="Path 4141" d="M353.319,325.939a6.9,6.9,0,1,1,6.906-6.906A6.9,6.9,0,0,1,353.319,325.939Z" transform="translate(386.417 2752.313)" fill="#538717"/>
    <path id="Path_4142" data-name="Path 4142" d="M369.633,325.939a6.9,6.9,0,1,1,6.9-6.906A6.9,6.9,0,0,1,369.633,325.939Z" transform="translate(399.048 2752.313)" fill="#538717"/>
    <circle id="Ellipse_4" data-name="Ellipse 4" cx="86.693" cy="86.693" r="86.693" transform="translate(505.818 3248.464) rotate(-45)" fill="#d3d1c8"/>
    <path id="Path_4143" data-name="Path 4143" d="M412.094,415.848a86.694,86.694,0,0,1-173.387,0Z" transform="translate(303.02 2832.617)" fill="#b0aea5"/>
    <circle id="Ellipse_5" data-name="Ellipse 5" cx="80.141" cy="80.141" r="80.141" transform="translate(548.28 3168.324)" fill="#e8e8e2"/>
    <circle id="Ellipse_6" data-name="Ellipse 6" cx="73.57" cy="73.57" r="73.57" transform="matrix(0.924, -0.383, 0.383, 0.924, 532.296, 3208.648)" fill="#43a729"/>
    <path id="Path_4144" data-name="Path 4144" d="M294.88,414.43a56.737,56.737,0,0,0-31.539,0l-.007-.089a15.775,15.775,0,0,1,31.55,0Z" transform="translate(322.087 2819.239)" fill="#2d721d"/>
    <path id="Path_4145" data-name="Path 4145" d="M325.565,414.43a56.737,56.737,0,0,0-31.54,0l0-.089a15.775,15.775,0,0,1,31.55,0Z" transform="translate(345.849 2819.239)" fill="#2d721d"/>
    <path id="Path_4146" data-name="Path 4146" d="M303.9,457.094a37.433,37.433,0,0,1-37.435-37.435h74.873A37.436,37.436,0,0,1,303.9,457.094Z" transform="translate(324.515 2835.568)" fill="#2d721d"/>
    <path id="Path_4147" data-name="Path 4147" d="M152.948,434.169h6.577q3.561,0,3.563-3.65l0-4.452q0-3.694-3.565-3.69h-6.577c-.284,0-.424.126-.422.378v11.031c0,.254.138.381.422.383Zm-1.018,12.769h-1.911a.527.527,0,0,1-.593-.594V420.252a.525.525,0,0,1,.593-.593h9.931a6.131,6.131,0,0,1,4.581,1.678,6.255,6.255,0,0,1,1.657,4.6v4.705a6.263,6.263,0,0,1-1.655,4.624,6.189,6.189,0,0,1-4.583,1.654l-7,0c-.284,0-.422.126-.424.383v9.035A.525.525,0,0,1,151.93,446.938Z" transform="translate(233.892 2835.568)" fill="#2b2c35"/>
    <path id="Path_4148" data-name="Path 4148" d="M168.382,444.226h4.331q3.561,0,3.563-3.69V426.066q0-3.691-3.563-3.689l-4.329,0q-3.524,0-3.52,3.692l0,14.469c0,2.461,1.175,3.687,3.52,3.69Zm4.711,2.716-5.05,0a6.256,6.256,0,0,1-4.6-1.657,6.18,6.18,0,0,1-1.677-4.62l0-14.719a5.768,5.768,0,0,1,6.277-6.283h5.05a5.8,5.8,0,0,1,6.279,6.279l0,14.721a5.8,5.8,0,0,1-6.277,6.283Z" transform="translate(243.445 2835.568)" fill="#2b2c35"/>
    <path id="Path_4149" data-name="Path 4149" d="M181.605,444.226l4.329,0c2.374,0,3.561-1.226,3.561-3.69V426.066q0-3.694-3.565-3.692h-4.322q-3.526,0-3.524,3.689l0,14.469q0,3.7,3.524,3.694Zm4.707,2.716-5.048,0a6.26,6.26,0,0,1-4.6-1.657,6.171,6.171,0,0,1-1.671-4.62V425.942a5.763,5.763,0,0,1,6.276-6.283h5.048a5.8,5.8,0,0,1,6.283,6.283l0,14.718a5.8,5.8,0,0,1-6.279,6.283Z" transform="translate(253.685 2835.568)" fill="#2b2c35"/>
    <path id="Path_4150" data-name="Path 4150" d="M191.973,433.491h6.407q3.646,0,3.648-3.65v-3.776q0-3.691-3.648-3.692l-6.407,0c-.282,0-.424.126-.424.38v10.355c0,.247.142.38.424.38Zm-1.018,13.451h-1.911a.526.526,0,0,1-.591-.6l0-26.094a.525.525,0,0,1,.594-.593h9.76a6.282,6.282,0,0,1,4.626,1.678,6.169,6.169,0,0,1,1.694,4.6V429.8a6.393,6.393,0,0,1-1.146,3.923,5.45,5.45,0,0,1-3.181,2.062l0,.165,4.918,10.316c.256.451.114.676-.424.68h-1.909a1.152,1.152,0,0,1-1.059-.6l-4.753-10.266h-5.6c-.282,0-.424.128-.424.383v9.883A.53.53,0,0,1,190.954,446.942Z" transform="translate(264.106 2835.568)" fill="#2b2c35"/>
    <path id="Path_4151" data-name="Path 4151" d="M393.522,446.938h-4.579a6.274,6.274,0,0,1-4.6-1.654,6.2,6.2,0,0,1-1.675-4.624V425.938a6.177,6.177,0,0,1,1.678-4.622,6.247,6.247,0,0,1,4.6-1.657h4.581a6.15,6.15,0,0,1,4.586,1.677,6.3,6.3,0,0,1,1.654,4.6l0,1.742c0,.419-.2.637-.6.637l-1.914,0c-.392,0-.587-.215-.587-.633v-1.613q0-3.694-3.524-3.694h-3.859q-3.524,0-3.525,3.692l0,14.469q0,3.691,3.524,3.687h3.859q3.526.005,3.524-3.69v-4.75c0-.284-.128-.424-.38-.424h-4.207c-.392,0-.591-.183-.591-.552l0-1.57a.527.527,0,0,1,.593-.594h6.835c.564,0,.85.3.853.891v7.131a6.3,6.3,0,0,1-1.657,4.622A6.2,6.2,0,0,1,393.522,446.938Z" transform="translate(414.483 2835.568)" fill="#2b2c35"/>
    <path id="Path_4152" data-name="Path 4152" d="M402.219,444.226l4.335,0q3.561,0,3.557-3.69l0-14.464q0-3.694-3.566-3.694h-4.331q-3.513,0-3.515,3.694l0,14.464c0,2.461,1.18,3.69,3.522,3.694Zm4.711,2.713h-5.046a6.28,6.28,0,0,1-4.61-1.654,6.188,6.188,0,0,1-1.67-4.622l0-14.725a5.775,5.775,0,0,1,6.286-6.279h5.046a5.794,5.794,0,0,1,6.276,6.279l0,14.725a5.8,5.8,0,0,1-6.283,6.276Z" transform="translate(424.499 2835.568)" fill="#2b2c35"/>
    <path id="Path_4153" data-name="Path 4153" d="M415.442,444.226l4.329,0q3.566,0,3.561-3.69l0-14.464q0-3.694-3.565-3.694h-4.333q-3.516,0-3.517,3.694v14.464q0,3.691,3.52,3.694Zm4.707,2.713H415.1a6.274,6.274,0,0,1-4.606-1.654,6.2,6.2,0,0,1-1.671-4.622V425.938a6.207,6.207,0,0,1,1.671-4.622,6.286,6.286,0,0,1,4.611-1.657h5.046a5.792,5.792,0,0,1,6.277,6.279l0,14.725a5.8,5.8,0,0,1-6.286,6.276Z" transform="translate(434.738 2835.568)" fill="#2b2c35"/>
    <path id="Path_4154" data-name="Path 4154" d="M425.812,444.222l7.124,0c2.376,0,3.57-1.233,3.57-3.694V426.068c0-2.463-1.2-3.694-3.573-3.694h-7.124c-.282,0-.42.13-.42.383v21.086c0,.254.142.38.424.38Zm-3.524,2.124,0-26.094a.522.522,0,0,1,.589-.593h10.438a5.792,5.792,0,0,1,6.276,6.279l0,14.725a5.8,5.8,0,0,1-6.283,6.276H422.879A.523.523,0,0,1,422.288,446.346Z" transform="translate(445.162 2835.568)" fill="#2b2c35"/>
  </g>
</svg>
