<svg xmlns="http://www.w3.org/2000/svg" xmlns:xlink="http://www.w3.org/1999/xlink" width="58.636" height="53.043" viewBox="0 0 58.636 53.043">
  <defs>
    <clipPath id="clip-path">
      <path id="Path_4074" data-name="Path 4074" d="M319.929,266.1l-28.2,45.706,4.934,4.176,47.971-.266,5.714-49.418-2.946-3.36Z" transform="translate(-291.733 -262.938)" fill="none"/>
    </clipPath>
    <radialGradient id="radial-gradient" cx="0.1" cy="0.92" r="1.37" gradientUnits="objectBoundingBox">
      <stop offset="0" stop-color="#febd38"/>
      <stop offset="0.24" stop-color="#fd0f13"/>
      <stop offset="0.38" stop-color="#b00b80"/>
      <stop offset="0.99" stop-color="#1e0d81"/>
      <stop offset="1" stop-color="#1e0d81"/>
    </radialGradient>
    <radialGradient id="radial-gradient-2" cx="-0.16" cy="1.18" r="1.676" xlink:href="#radial-gradient"/>
  </defs>
  <g id="Group_3019" data-name="Group 3019" transform="translate(0)">
    <g id="Group_612" data-name="Group 612" transform="translate(0.017)">
      <g id="Group_611" data-name="Group 611">
        <g id="Group_610" data-name="Group 610" clip-path="url(#clip-path)">
          <rect id="Rectangle_1504" data-name="Rectangle 1504" width="58.619" height="53.043" fill="#1e0d81"/>
          <path id="Path_3818" data-name="Path 3818" d="M313.4,282.4a.164.164,0,1,1-.164-.165A.164.164,0,0,1,313.4,282.4Z" transform="translate(-283.93 -255.882)" fill="#febd38"/>
          <path id="Path_3819" data-name="Path 3819" d="M313.378,282.434a.109.109,0,1,0-.109.109.109.109,0,0,0,.109-.109Zm.164,0a.273.273,0,1,1-.273-.274A.273.273,0,0,1,313.542,282.434Z" transform="translate(-283.959 -255.911)" fill="#feb837"/>
          <path id="Path_3820" data-name="Path 3820" d="M313.517,282.462a.218.218,0,1,0-.218.217.219.219,0,0,0,.218-.217Zm.164,0a.382.382,0,1,1-.382-.382A.382.382,0,0,1,313.681,282.462Z" transform="translate(-283.988 -255.94)" fill="#feb537"/>
          <path id="Path_3821" data-name="Path 3821" d="M313.655,282.492a.328.328,0,1,0-.328.326.328.328,0,0,0,.328-.326Zm.164,0a.492.492,0,1,1-.492-.492A.491.491,0,0,1,313.819,282.492Z" transform="translate(-284.018 -255.969)" fill="#feb036"/>
          <path id="Path_3822" data-name="Path 3822" d="M313.794,282.521a.437.437,0,1,0-.437.436.437.437,0,0,0,.437-.436Zm.164,0a.6.6,0,1,1-.6-.6A.6.6,0,0,1,313.958,282.521Z" transform="translate(-284.047 -255.999)" fill="#feae36"/>
          <path id="Path_3823" data-name="Path 3823" d="M313.932,282.55a.546.546,0,1,0-.546.545.547.547,0,0,0,.546-.545Zm.164,0a.71.71,0,1,1-.71-.71A.71.71,0,0,1,314.1,282.55Z" transform="translate(-284.076 -256.028)" fill="#fea933"/>
          <path id="Path_3824" data-name="Path 3824" d="M314.071,282.579a.655.655,0,1,0-.655.654.656.656,0,0,0,.655-.654Zm.163,0a.819.819,0,1,1-.818-.819A.818.818,0,0,1,314.233,282.579Z" transform="translate(-284.105 -256.057)" fill="#fea635"/>
          <path id="Path_3825" data-name="Path 3825" d="M314.209,282.609a.765.765,0,1,0-.765.763.764.764,0,0,0,.765-.763Zm.162,0a.928.928,0,1,1-.927-.929A.927.927,0,0,1,314.372,282.609Z" transform="translate(-284.135 -256.086)" fill="#fea433"/>
          <path id="Path_3826" data-name="Path 3826" d="M314.346,282.638a.873.873,0,1,0-.873.873.873.873,0,0,0,.873-.873Zm.164,0a1.037,1.037,0,1,1-1.036-1.038A1.037,1.037,0,0,1,314.51,282.638Z" transform="translate(-284.164 -256.116)" fill="#fe9e34"/>
          <path id="Path_3827" data-name="Path 3827" d="M314.485,282.667a.983.983,0,1,0-.982.982.982.982,0,0,0,.982-.982Zm.164,0a1.146,1.146,0,1,1-1.146-1.147A1.146,1.146,0,0,1,314.649,282.667Z" transform="translate(-284.193 -256.145)" fill="#fe9c32"/>
          <path id="Path_3828" data-name="Path 3828" d="M314.623,282.7a1.092,1.092,0,1,0-1.091,1.091,1.092,1.092,0,0,0,1.091-1.091Zm.164,0a1.256,1.256,0,1,1-1.255-1.256A1.255,1.255,0,0,1,314.787,282.7Z" transform="translate(-284.222 -256.174)" fill="#fe9933"/>
          <path id="Path_3829" data-name="Path 3829" d="M314.762,282.726a1.2,1.2,0,1,0-1.2,1.2,1.2,1.2,0,0,0,1.2-1.2Zm.164,0a1.365,1.365,0,1,1-1.364-1.366A1.364,1.364,0,0,1,314.926,282.726Z" transform="translate(-284.252 -256.203)" fill="#fe9431"/>
          <path id="Path_3830" data-name="Path 3830" d="M314.9,282.755a1.31,1.31,0,1,0-1.31,1.31,1.31,1.31,0,0,0,1.31-1.31Zm.164,0a1.473,1.473,0,1,1-1.473-1.475A1.473,1.473,0,0,1,315.064,282.755Z" transform="translate(-284.281 -256.233)" fill="#fe9230"/>
          <path id="Path_3831" data-name="Path 3831" d="M315.039,282.784a1.42,1.42,0,1,0-1.419,1.419,1.42,1.42,0,0,0,1.419-1.419Zm.164,0a1.583,1.583,0,1,1-1.583-1.584A1.583,1.583,0,0,1,315.2,282.784Z" transform="translate(-284.31 -256.262)" fill="#fe8f30"/>
          <path id="Path_3832" data-name="Path 3832" d="M315.177,282.813a1.528,1.528,0,1,0-1.528,1.528,1.528,1.528,0,0,0,1.528-1.528Zm.164,0a1.692,1.692,0,1,1-1.692-1.693A1.692,1.692,0,0,1,315.341,282.813Z" transform="translate(-284.339 -256.291)" fill="#fe8d30"/>
          <path id="Path_3833" data-name="Path 3833" d="M315.316,282.843a1.637,1.637,0,1,0-1.637,1.637,1.638,1.638,0,0,0,1.637-1.637Zm.164,0a1.8,1.8,0,1,1-1.8-1.8A1.8,1.8,0,0,1,315.479,282.843Z" transform="translate(-284.368 -256.32)" fill="#fd882f"/>
          <path id="Path_3834" data-name="Path 3834" d="M315.454,282.872a1.747,1.747,0,1,0-1.747,1.747,1.748,1.748,0,0,0,1.747-1.747Zm.164,0a1.91,1.91,0,1,1-1.91-1.912A1.911,1.911,0,0,1,315.618,282.872Z" transform="translate(-284.398 -256.35)" fill="#fd852d"/>
          <path id="Path_3835" data-name="Path 3835" d="M315.593,282.9a1.856,1.856,0,1,0-1.856,1.856,1.856,1.856,0,0,0,1.856-1.856Zm.164,0a2.02,2.02,0,1,1-2.02-2.021A2.02,2.02,0,0,1,315.756,282.9Z" transform="translate(-284.427 -256.379)" fill="#fd832e"/>
          <path id="Path_3836" data-name="Path 3836" d="M315.731,282.93a1.965,1.965,0,1,0-1.965,1.965,1.966,1.966,0,0,0,1.965-1.965Zm.164,0a2.129,2.129,0,1,1-2.129-2.129A2.13,2.13,0,0,1,315.9,282.93Z" transform="translate(-284.456 -256.408)" fill="#fd7d2c"/>
          <path id="Path_3837" data-name="Path 3837" d="M315.87,282.959a2.074,2.074,0,1,0-2.074,2.074,2.074,2.074,0,0,0,2.074-2.074Zm.164,0a2.238,2.238,0,1,1-2.238-2.238A2.239,2.239,0,0,1,316.033,282.959Z" transform="translate(-284.485 -256.437)" fill="#fd7b2c"/>
          <path id="Path_3838" data-name="Path 3838" d="M316.008,282.989a2.184,2.184,0,1,0-2.184,2.184,2.183,2.183,0,0,0,2.184-2.184Zm.164,0a2.347,2.347,0,1,1-2.347-2.349A2.348,2.348,0,0,1,316.172,282.989Z" transform="translate(-284.515 -256.467)" fill="#fd782b"/>
          <path id="Path_3839" data-name="Path 3839" d="M316.147,283.018a2.293,2.293,0,1,0-2.293,2.293,2.294,2.294,0,0,0,2.293-2.293Zm.164,0a2.457,2.457,0,1,1-2.457-2.458A2.457,2.457,0,0,1,316.31,283.018Z" transform="translate(-284.544 -256.496)" fill="#fd732b"/>
          <path id="Path_3840" data-name="Path 3840" d="M316.285,283.047a2.4,2.4,0,1,0-2.4,2.4,2.4,2.4,0,0,0,2.4-2.4Zm.164,0a2.566,2.566,0,1,1-2.566-2.566A2.566,2.566,0,0,1,316.449,283.047Z" transform="translate(-284.573 -256.525)" fill="#fd7129"/>
          <path id="Path_3841" data-name="Path 3841" d="M316.424,283.076a2.511,2.511,0,1,0-2.511,2.51,2.513,2.513,0,0,0,2.511-2.51Zm.164,0a2.675,2.675,0,1,1-2.675-2.675A2.675,2.675,0,0,1,316.587,283.076Z" transform="translate(-284.602 -256.554)" fill="#fd6e28"/>
          <path id="Path_3842" data-name="Path 3842" d="M316.562,283.105a2.621,2.621,0,1,0-2.621,2.619,2.62,2.62,0,0,0,2.621-2.619Zm.164,0a2.784,2.784,0,1,1-2.784-2.784A2.783,2.783,0,0,1,316.726,283.105Z" transform="translate(-284.632 -256.583)" fill="#fd6c28"/>
          <path id="Path_3843" data-name="Path 3843" d="M316.7,283.135a2.73,2.73,0,1,0-2.73,2.728,2.73,2.73,0,0,0,2.73-2.728Zm.164,0a2.894,2.894,0,1,1-2.894-2.894A2.893,2.893,0,0,1,316.864,283.135Z" transform="translate(-284.661 -256.613)" fill="#fd6928"/>
          <path id="Path_3844" data-name="Path 3844" d="M316.839,283.164A2.839,2.839,0,1,0,314,286a2.839,2.839,0,0,0,2.839-2.838Zm.164,0a3,3,0,1,1-3-3A3,3,0,0,1,317,283.164Z" transform="translate(-284.69 -256.642)" fill="#fd6727"/>
          <path id="Path_3845" data-name="Path 3845" d="M316.978,283.193a2.948,2.948,0,1,0-2.948,2.947,2.948,2.948,0,0,0,2.948-2.947Zm.163,0a3.112,3.112,0,1,1-3.111-3.112A3.111,3.111,0,0,1,317.14,283.193Z" transform="translate(-284.719 -256.671)" fill="#fd6227"/>
          <path id="Path_3846" data-name="Path 3846" d="M317.115,283.222a3.057,3.057,0,1,0-3.056,3.056,3.056,3.056,0,0,0,3.056-3.056Zm.164,0a3.221,3.221,0,1,1-3.22-3.221A3.221,3.221,0,0,1,317.279,283.222Z" transform="translate(-284.749 -256.7)" fill="#fd5f27"/>
          <path id="Path_3847" data-name="Path 3847" d="M317.253,283.252a3.166,3.166,0,1,0-3.165,3.166,3.166,3.166,0,0,0,3.165-3.166Zm.164,0a3.33,3.33,0,1,1-3.329-3.331A3.329,3.329,0,0,1,317.417,283.252Z" transform="translate(-284.778 -256.73)" fill="#fd5d26"/>
          <path id="Path_3848" data-name="Path 3848" d="M317.392,283.281a3.275,3.275,0,1,0-3.275,3.275,3.275,3.275,0,0,0,3.275-3.275Zm.164,0a3.439,3.439,0,1,1-3.439-3.44A3.439,3.439,0,0,1,317.556,283.281Z" transform="translate(-284.807 -256.759)" fill="#fd5a26"/>
          <path id="Path_3849" data-name="Path 3849" d="M317.53,283.31a3.385,3.385,0,1,0-3.384,3.384,3.384,3.384,0,0,0,3.384-3.384Zm.164,0a3.548,3.548,0,1,1-3.548-3.549A3.548,3.548,0,0,1,317.694,283.31Z" transform="translate(-284.836 -256.788)" fill="#fd5824"/>
          <path id="Path_3850" data-name="Path 3850" d="M317.669,283.339a3.494,3.494,0,1,0-3.493,3.493,3.494,3.494,0,0,0,3.493-3.493Zm.164,0a3.658,3.658,0,1,1-3.657-3.658A3.657,3.657,0,0,1,317.832,283.339Z" transform="translate(-284.865 -256.817)" fill="#fd5524"/>
          <path id="Path_3851" data-name="Path 3851" d="M317.807,283.369a3.6,3.6,0,1,0-3.6,3.6,3.6,3.6,0,0,0,3.6-3.6Zm.164,0A3.766,3.766,0,1,1,314.2,279.6,3.767,3.767,0,0,1,317.971,283.369Z" transform="translate(-284.894 -256.847)" fill="#fd5021"/>
          <path id="Path_3852" data-name="Path 3852" d="M317.945,283.4a3.712,3.712,0,1,0-3.712,3.712,3.712,3.712,0,0,0,3.712-3.712Zm.164,0a3.876,3.876,0,1,1-3.876-3.877A3.876,3.876,0,0,1,318.109,283.4Z" transform="translate(-284.924 -256.876)" fill="#fd4d23"/>
          <path id="Path_3853" data-name="Path 3853" d="M318.084,283.427a3.821,3.821,0,1,0-3.821,3.821,3.822,3.822,0,0,0,3.821-3.821Zm.164,0a3.985,3.985,0,1,1-3.985-3.986A3.986,3.986,0,0,1,318.248,283.427Z" transform="translate(-284.953 -256.905)" fill="#fd4b21"/>
          <path id="Path_3854" data-name="Path 3854" d="M318.222,283.456a3.93,3.93,0,1,0-3.93,3.93,3.931,3.931,0,0,0,3.93-3.93Zm.164,0a4.094,4.094,0,1,1-4.094-4.1A4.094,4.094,0,0,1,318.386,283.456Z" transform="translate(-284.982 -256.934)" fill="#fd4821"/>
          <path id="Path_3855" data-name="Path 3855" d="M318.361,283.486a4.039,4.039,0,1,0-4.039,4.039,4.04,4.04,0,0,0,4.039-4.039Zm.164,0a4.2,4.2,0,1,1-4.2-4.2A4.2,4.2,0,0,1,318.525,283.486Z" transform="translate(-285.011 -256.964)" fill="#fd4620"/>
          <path id="Path_3856" data-name="Path 3856" d="M318.5,283.515a4.149,4.149,0,1,0-4.149,4.149,4.149,4.149,0,0,0,4.149-4.149Zm.164,0a4.313,4.313,0,1,1-4.313-4.313A4.313,4.313,0,0,1,318.663,283.515Z" transform="translate(-285.041 -256.992)" fill="#fd4420"/>
          <path id="Path_3857" data-name="Path 3857" d="M318.638,283.544a4.258,4.258,0,1,0-4.258,4.258,4.258,4.258,0,0,0,4.258-4.258Zm.164,0a4.422,4.422,0,1,1-4.422-4.423A4.422,4.422,0,0,1,318.8,283.544Z" transform="translate(-285.07 -257.022)" fill="#fd4120"/>
          <path id="Path_3858" data-name="Path 3858" d="M318.776,283.573a4.367,4.367,0,1,0-4.367,4.367,4.368,4.368,0,0,0,4.367-4.367Zm.164,0a4.531,4.531,0,1,1-4.531-4.532A4.532,4.532,0,0,1,318.94,283.573Z" transform="translate(-285.099 -257.051)" fill="#fd3e20"/>
          <path id="Path_3859" data-name="Path 3859" d="M318.915,283.6a4.476,4.476,0,1,0-4.476,4.476,4.477,4.477,0,0,0,4.476-4.476Zm.164,0a4.64,4.64,0,1,1-4.64-4.642A4.64,4.64,0,0,1,319.079,283.6Z" transform="translate(-285.128 -257.081)" fill="#fd3c1f"/>
          <path id="Path_3860" data-name="Path 3860" d="M319.053,283.632a4.586,4.586,0,1,0-4.586,4.586,4.587,4.587,0,0,0,4.586-4.586Zm.164,0a4.75,4.75,0,1,1-4.75-4.751A4.749,4.749,0,0,1,319.217,283.632Z" transform="translate(-285.158 -257.11)" fill="#fd391e"/>
          <path id="Path_3861" data-name="Path 3861" d="M319.192,283.661a4.695,4.695,0,1,0-4.695,4.694,4.7,4.7,0,0,0,4.695-4.694Zm.164,0A4.859,4.859,0,1,1,314.5,278.8,4.859,4.859,0,0,1,319.356,283.661Z" transform="translate(-285.187 -257.139)" fill="#fd361d"/>
          <path id="Path_3862" data-name="Path 3862" d="M319.33,283.69a4.8,4.8,0,1,0-4.8,4.8,4.8,4.8,0,0,0,4.8-4.8Zm.164,0a4.968,4.968,0,1,1-4.968-4.968A4.967,4.967,0,0,1,319.494,283.69Z" transform="translate(-285.216 -257.168)" fill="#fd341d"/>
          <path id="Path_3863" data-name="Path 3863" d="M319.469,283.719a4.913,4.913,0,1,0-4.913,4.912,4.914,4.914,0,0,0,4.913-4.912Zm.164,0a5.077,5.077,0,1,1-5.077-5.077A5.077,5.077,0,0,1,319.633,283.719Z" transform="translate(-285.245 -257.197)" fill="#fd2f1d"/>
          <path id="Path_3864" data-name="Path 3864" d="M319.607,283.748a5.023,5.023,0,1,0-5.023,5.021,5.022,5.022,0,0,0,5.023-5.021Zm.164,0a5.187,5.187,0,1,1-5.187-5.186A5.186,5.186,0,0,1,319.771,283.748Z" transform="translate(-285.275 -257.226)" fill="#fd2d1b"/>
          <path id="Path_3865" data-name="Path 3865" d="M319.746,283.778a5.132,5.132,0,1,0-5.132,5.131,5.132,5.132,0,0,0,5.132-5.131Zm.162,0a5.3,5.3,0,1,1-5.294-5.3A5.294,5.294,0,0,1,319.908,283.778Z" transform="translate(-285.304 -257.256)" fill="#fd2b1b"/>
          <path id="Path_3866" data-name="Path 3866" d="M319.883,283.807a5.24,5.24,0,1,0-5.24,5.24,5.24,5.24,0,0,0,5.24-5.24Zm.164,0a5.4,5.4,0,1,1-5.4-5.4A5.4,5.4,0,0,1,320.047,283.807Z" transform="translate(-285.333 -257.285)" fill="#fd281b"/>
          <path id="Path_3867" data-name="Path 3867" d="M320.021,283.836a5.35,5.35,0,1,0-5.349,5.349,5.35,5.35,0,0,0,5.349-5.349Zm.164,0a5.514,5.514,0,1,1-5.513-5.514A5.513,5.513,0,0,1,320.185,283.836Z" transform="translate(-285.362 -257.314)" fill="#fd281b"/>
          <path id="Path_3868" data-name="Path 3868" d="M320.16,283.866a5.459,5.459,0,1,0-5.458,5.458,5.459,5.459,0,0,0,5.458-5.458Zm.164,0a5.623,5.623,0,1,1-5.622-5.623A5.622,5.622,0,0,1,320.324,283.866Z" transform="translate(-285.392 -257.343)" fill="#fd2319"/>
          <path id="Path_3869" data-name="Path 3869" d="M320.3,283.895a5.568,5.568,0,1,0-5.568,5.568,5.567,5.567,0,0,0,5.568-5.568Zm.164,0a5.732,5.732,0,1,1-5.731-5.733A5.731,5.731,0,0,1,320.462,283.895Z" transform="translate(-285.421 -257.373)" fill="#fd2319"/>
          <path id="Path_3870" data-name="Path 3870" d="M320.437,283.924a5.677,5.677,0,1,0-5.677,5.677,5.677,5.677,0,0,0,5.677-5.677Zm.164,0a5.841,5.841,0,1,1-5.841-5.842A5.841,5.841,0,0,1,320.6,283.924Z" transform="translate(-285.45 -257.402)" fill="#fd2019"/>
          <path id="Path_3871" data-name="Path 3871" d="M320.575,283.953a5.787,5.787,0,1,0-5.786,5.786,5.786,5.786,0,0,0,5.786-5.786Zm.164,0a5.95,5.95,0,1,1-5.95-5.951A5.95,5.95,0,0,1,320.739,283.953Z" transform="translate(-285.479 -257.431)" fill="#fd1d17"/>
          <path id="Path_3872" data-name="Path 3872" d="M320.713,283.983a5.9,5.9,0,1,0-5.9,5.9,5.9,5.9,0,0,0,5.9-5.9Zm.164,0a6.059,6.059,0,1,1-6.059-6.06A6.059,6.059,0,0,1,320.877,283.983Z" transform="translate(-285.508 -257.46)" fill="#fd1a17"/>
          <path id="Path_3873" data-name="Path 3873" d="M320.852,284.012a6,6,0,1,0-6,6,6.005,6.005,0,0,0,6-6Zm.164,0a6.168,6.168,0,1,1-6.168-6.17A6.169,6.169,0,0,1,321.016,284.012Z" transform="translate(-285.538 -257.49)" fill="#fd1915"/>
          <path id="Path_3874" data-name="Path 3874" d="M320.99,284.041a6.114,6.114,0,1,0-6.114,6.114,6.114,6.114,0,0,0,6.114-6.114Zm.164,0a6.278,6.278,0,1,1-6.278-6.279A6.277,6.277,0,0,1,321.154,284.041Z" transform="translate(-285.567 -257.519)" fill="#fd1717"/>
          <path id="Path_3875" data-name="Path 3875" d="M321.129,284.07a6.223,6.223,0,1,0-6.223,6.223,6.224,6.224,0,0,0,6.223-6.223Zm.164,0a6.387,6.387,0,1,1-6.387-6.388A6.387,6.387,0,0,1,321.293,284.07Z" transform="translate(-285.596 -257.548)" fill="#fd1515"/>
          <path id="Path_3876" data-name="Path 3876" d="M321.267,284.1a6.332,6.332,0,1,0-6.332,6.332,6.333,6.333,0,0,0,6.332-6.332Zm.164,0a6.5,6.5,0,1,1-6.5-6.5A6.5,6.5,0,0,1,321.431,284.1Z" transform="translate(-285.625 -257.577)" fill="#fd1315"/>
          <path id="Path_3877" data-name="Path 3877" d="M321.406,284.129a6.441,6.441,0,1,0-6.441,6.442,6.442,6.442,0,0,0,6.441-6.442Zm.164,0a6.605,6.605,0,1,1-6.605-6.607A6.606,6.606,0,0,1,321.57,284.129Z" transform="translate(-285.654 -257.607)" fill="#fd1215"/>
          <path id="Path_3878" data-name="Path 3878" d="M321.545,284.158a6.551,6.551,0,1,0-6.551,6.551,6.552,6.552,0,0,0,6.551-6.551Zm.164,0a6.715,6.715,0,1,1-6.715-6.716A6.715,6.715,0,0,1,321.708,284.158Z" transform="translate(-285.684 -257.636)" fill="#fd1215"/>
          <path id="Path_3879" data-name="Path 3879" d="M321.683,284.187a6.66,6.66,0,1,0-6.66,6.66,6.661,6.661,0,0,0,6.66-6.66Zm.164,0a6.824,6.824,0,1,1-6.824-6.825A6.825,6.825,0,0,1,321.847,284.187Z" transform="translate(-285.713 -257.665)" fill="#fd0f13"/>
          <path id="Path_3880" data-name="Path 3880" d="M321.821,284.216a6.769,6.769,0,1,0-6.769,6.769,6.771,6.771,0,0,0,6.769-6.769Zm.164,0a6.933,6.933,0,1,1-6.933-6.934A6.933,6.933,0,0,1,321.985,284.216Z" transform="translate(-285.742 -257.694)" fill="#fd1016"/>
          <path id="Path_3881" data-name="Path 3881" d="M321.96,284.245a6.879,6.879,0,1,0-6.879,6.877,6.879,6.879,0,0,0,6.879-6.877Zm.164,0a7.042,7.042,0,1,1-7.042-7.042A7.041,7.041,0,0,1,322.124,284.245Z" transform="translate(-285.771 -257.723)" fill="#fc1019"/>
          <path id="Path_3882" data-name="Path 3882" d="M322.1,284.275a6.988,6.988,0,1,0-6.988,6.986,6.987,6.987,0,0,0,6.988-6.986Zm.164,0a7.152,7.152,0,1,1-7.152-7.152A7.151,7.151,0,0,1,322.262,284.275Z" transform="translate(-285.801 -257.752)" fill="#fc101d"/>
          <path id="Path_3883" data-name="Path 3883" d="M322.237,284.3a7.1,7.1,0,1,0-7.1,7.1,7.1,7.1,0,0,0,7.1-7.1Zm.164,0a7.261,7.261,0,1,1-7.261-7.261A7.261,7.261,0,0,1,322.4,284.3Z" transform="translate(-285.83 -257.782)" fill="#fc0d20"/>
          <path id="Path_3884" data-name="Path 3884" d="M322.375,284.333a7.206,7.206,0,1,0-7.206,7.2,7.206,7.206,0,0,0,7.206-7.2Zm.164,0a7.37,7.37,0,1,1-7.37-7.37A7.37,7.37,0,0,1,322.539,284.333Z" transform="translate(-285.859 -257.811)" fill="#fb1024"/>
          <path id="Path_3885" data-name="Path 3885" d="M322.514,284.362a7.316,7.316,0,1,0-7.315,7.314,7.316,7.316,0,0,0,7.315-7.314Zm.162,0a7.479,7.479,0,1,1-7.478-7.479A7.478,7.478,0,0,1,322.676,284.362Z" transform="translate(-285.889 -257.84)" fill="#fb0d27"/>
          <path id="Path_3886" data-name="Path 3886" d="M322.652,284.392a7.425,7.425,0,1,0-7.425,7.423,7.425,7.425,0,0,0,7.425-7.423Zm.163,0a7.588,7.588,0,1,1-7.587-7.589A7.587,7.587,0,0,1,322.815,284.392Z" transform="translate(-285.918 -257.87)" fill="#fa102a"/>
          <path id="Path_3887" data-name="Path 3887" d="M322.79,284.421a7.533,7.533,0,1,0-7.533,7.533,7.533,7.533,0,0,0,7.533-7.533Zm.164,0a7.7,7.7,0,1,1-7.7-7.7A7.7,7.7,0,0,1,322.953,284.421Z" transform="translate(-285.947 -257.899)" fill="#fa102e"/>
          <path id="Path_3888" data-name="Path 3888" d="M322.928,284.45a7.643,7.643,0,1,0-7.642,7.642,7.641,7.641,0,0,0,7.642-7.642Zm.164,0a7.806,7.806,0,1,1-7.806-7.807A7.805,7.805,0,0,1,323.092,284.45Z" transform="translate(-285.976 -257.928)" fill="#fa0e32"/>
          <path id="Path_3889" data-name="Path 3889" d="M323.067,284.479a7.752,7.752,0,1,0-7.751,7.751,7.751,7.751,0,0,0,7.751-7.751Zm.164,0a7.916,7.916,0,1,1-7.915-7.916A7.915,7.915,0,0,1,323.23,284.479Z" transform="translate(-286.005 -257.957)" fill="#f90e36"/>
          <path id="Path_3890" data-name="Path 3890" d="M323.205,284.509a7.861,7.861,0,1,0-7.86,7.86,7.861,7.861,0,0,0,7.86-7.86Zm.164,0a8.025,8.025,0,1,1-8.024-8.026A8.025,8.025,0,0,1,323.369,284.509Z" transform="translate(-286.035 -257.986)" fill="#f90e38"/>
          <path id="Path_3891" data-name="Path 3891" d="M323.343,284.538a7.97,7.97,0,1,0-7.97,7.97,7.97,7.97,0,0,0,7.97-7.97Zm.164,0a8.133,8.133,0,1,1-8.133-8.135A8.133,8.133,0,0,1,323.507,284.538Z" transform="translate(-286.064 -258.016)" fill="#f80e3d"/>
          <path id="Path_3892" data-name="Path 3892" d="M323.482,284.567a8.08,8.08,0,1,0-8.079,8.079,8.08,8.08,0,0,0,8.079-8.079Zm.164,0a8.243,8.243,0,1,1-8.243-8.244A8.244,8.244,0,0,1,323.646,284.567Z" transform="translate(-286.093 -258.045)" fill="#f80e40"/>
          <path id="Path_3893" data-name="Path 3893" d="M323.62,284.6a8.188,8.188,0,1,0-8.188,8.188,8.188,8.188,0,0,0,8.188-8.188Zm.164,0a8.352,8.352,0,1,1-8.352-8.353A8.352,8.352,0,0,1,323.784,284.6Z" transform="translate(-286.122 -258.074)" fill="#f70e45"/>
          <path id="Path_3894" data-name="Path 3894" d="M323.759,284.626a8.3,8.3,0,1,0-8.3,8.3,8.3,8.3,0,0,0,8.3-8.3Zm.164,0a8.461,8.461,0,1,1-8.461-8.463A8.461,8.461,0,0,1,323.922,284.626Z" transform="translate(-286.151 -258.103)" fill="#f70e49"/>
          <path id="Path_3895" data-name="Path 3895" d="M323.9,284.655a8.407,8.407,0,1,0-8.407,8.407,8.407,8.407,0,0,0,8.407-8.407Zm.164,0a8.571,8.571,0,1,1-8.57-8.572A8.571,8.571,0,0,1,324.061,284.655Z" transform="translate(-286.181 -258.133)" fill="#f40e4c"/>
          <path id="Path_3896" data-name="Path 3896" d="M324.036,284.684a8.517,8.517,0,1,0-8.516,8.516,8.516,8.516,0,0,0,8.516-8.516Zm.164,0A8.68,8.68,0,1,1,315.52,276,8.68,8.68,0,0,1,324.2,284.684Z" transform="translate(-286.21 -258.162)" fill="#ef0e4f"/>
          <path id="Path_3897" data-name="Path 3897" d="M324.174,284.713a8.625,8.625,0,1,0-8.625,8.625,8.626,8.626,0,0,0,8.625-8.625Zm.164,0a8.789,8.789,0,1,1-8.789-8.79A8.79,8.79,0,0,1,324.338,284.713Z" transform="translate(-286.239 -258.191)" fill="#ec0e52"/>
          <path id="Path_3898" data-name="Path 3898" d="M324.313,284.743a8.734,8.734,0,1,0-8.734,8.734,8.735,8.735,0,0,0,8.734-8.734Zm.164,0a8.9,8.9,0,1,1-8.9-8.9A8.9,8.9,0,0,1,324.476,284.743Z" transform="translate(-286.268 -258.22)" fill="#eb0e56"/>
          <path id="Path_3899" data-name="Path 3899" d="M324.451,284.772a8.844,8.844,0,1,0-8.844,8.844,8.845,8.845,0,0,0,8.844-8.844Zm.164,0a9.007,9.007,0,1,1-9.007-9.009A9.008,9.008,0,0,1,324.615,284.772Z" transform="translate(-286.297 -258.25)" fill="#e80e5a"/>
          <path id="Path_3900" data-name="Path 3900" d="M324.59,284.8a8.953,8.953,0,1,0-8.953,8.953,8.954,8.954,0,0,0,8.953-8.953Zm.164,0a9.117,9.117,0,1,1-9.117-9.118A9.116,9.116,0,0,1,324.754,284.8Z" transform="translate(-286.327 -258.279)" fill="#e60e5d"/>
          <path id="Path_3901" data-name="Path 3901" d="M324.728,284.83a9.062,9.062,0,1,0-9.062,9.062,9.062,9.062,0,0,0,9.062-9.062Zm.164,0a9.226,9.226,0,1,1-9.226-9.226A9.225,9.225,0,0,1,324.892,284.83Z" transform="translate(-286.356 -258.308)" fill="#e50e62"/>
          <path id="Path_3902" data-name="Path 3902" d="M324.867,284.859a9.171,9.171,0,1,0-9.171,9.17,9.172,9.172,0,0,0,9.171-9.17Zm.164,0a9.335,9.335,0,1,1-9.335-9.335A9.335,9.335,0,0,1,325.03,284.859Z" transform="translate(-286.385 -258.337)" fill="#e00e65"/>
          <path id="Path_3903" data-name="Path 3903" d="M325.005,284.888a9.281,9.281,0,1,0-9.281,9.279,9.28,9.28,0,0,0,9.281-9.279Zm.164,0a9.444,9.444,0,1,1-9.444-9.444A9.444,9.444,0,0,1,325.169,284.888Z" transform="translate(-286.415 -258.366)" fill="#dd0e6a"/>
          <path id="Path_3904" data-name="Path 3904" d="M325.144,284.918a9.39,9.39,0,1,0-9.39,9.388,9.39,9.39,0,0,0,9.39-9.388Zm.164,0a9.554,9.554,0,1,1-9.554-9.554A9.553,9.553,0,0,1,325.307,284.918Z" transform="translate(-286.444 -258.396)" fill="#da0e6f"/>
          <path id="Path_3905" data-name="Path 3905" d="M325.282,284.947a9.5,9.5,0,1,0-9.5,9.5,9.5,9.5,0,0,0,9.5-9.5Zm.164,0a9.663,9.663,0,1,1-9.663-9.663A9.663,9.663,0,0,1,325.446,284.947Z" transform="translate(-286.473 -258.425)" fill="#d80e71"/>
          <path id="Path_3906" data-name="Path 3906" d="M325.42,284.976a9.608,9.608,0,1,0-9.608,9.607,9.608,9.608,0,0,0,9.608-9.607Zm.163,0a9.772,9.772,0,1,1-9.771-9.772A9.771,9.771,0,0,1,325.583,284.976Z" transform="translate(-286.502 -258.454)" fill="#d60e76"/>
          <path id="Path_3907" data-name="Path 3907" d="M325.558,285.005a9.717,9.717,0,1,0-9.716,9.716,9.716,9.716,0,0,0,9.716-9.716Zm.164,0a9.881,9.881,0,1,1-9.88-9.881A9.88,9.88,0,0,1,325.722,285.005Z" transform="translate(-286.532 -258.483)" fill="#d40b78"/>
          <path id="Path_3908" data-name="Path 3908" d="M325.7,285.035a9.826,9.826,0,1,0-9.825,9.825,9.825,9.825,0,0,0,9.825-9.825Zm.164,0a9.99,9.99,0,1,1-9.989-9.991A9.989,9.989,0,0,1,325.86,285.035Z" transform="translate(-286.561 -258.513)" fill="#d10b7d"/>
          <path id="Path_3909" data-name="Path 3909" d="M325.835,285.064A9.935,9.935,0,1,0,315.9,295a9.935,9.935,0,0,0,9.935-9.935Zm.164,0a10.1,10.1,0,1,1-10.1-10.1A10.1,10.1,0,0,1,326,285.064Z" transform="translate(-286.59 -258.542)" fill="#d10b80"/>
          <path id="Path_3910" data-name="Path 3910" d="M325.973,285.093a10.045,10.045,0,1,0-10.044,10.044,10.044,10.044,0,0,0,10.044-10.044Zm.164,0a10.209,10.209,0,1,1-10.208-10.209A10.208,10.208,0,0,1,326.137,285.093Z" transform="translate(-286.619 -258.571)" fill="#cb0b81"/>
          <path id="Path_3911" data-name="Path 3911" d="M326.112,285.122a10.154,10.154,0,1,0-10.153,10.153,10.154,10.154,0,0,0,10.153-10.153Zm.164,0A10.318,10.318,0,1,1,315.958,274.8,10.317,10.317,0,0,1,326.276,285.122Z" transform="translate(-286.649 -258.6)" fill="#c60b81"/>
          <path id="Path_3912" data-name="Path 3912" d="M326.25,285.152a10.263,10.263,0,1,0-10.262,10.263,10.263,10.263,0,0,0,10.262-10.263Zm.164,0a10.426,10.426,0,1,1-10.426-10.428A10.427,10.427,0,0,1,326.414,285.152Z" transform="translate(-286.677 -258.63)" fill="#c00b81"/>
          <path id="Path_3913" data-name="Path 3913" d="M326.388,285.181a10.372,10.372,0,1,0-10.372,10.372,10.372,10.372,0,0,0,10.372-10.372Zm.164,0a10.536,10.536,0,1,1-10.536-10.537A10.535,10.535,0,0,1,326.552,285.181Z" transform="translate(-286.707 -258.659)" fill="#bb0b81"/>
          <path id="Path_3914" data-name="Path 3914" d="M326.527,285.21a10.481,10.481,0,1,0-10.481,10.481,10.481,10.481,0,0,0,10.481-10.481Zm.164,0a10.645,10.645,0,1,1-10.645-10.646A10.645,10.645,0,0,1,326.691,285.21Z" transform="translate(-286.736 -258.688)" fill="#b40b80"/>
          <path id="Path_3915" data-name="Path 3915" d="M326.666,285.239a10.591,10.591,0,1,0-10.59,10.59,10.59,10.59,0,0,0,10.59-10.59Zm.164,0a10.755,10.755,0,1,1-10.754-10.755A10.754,10.754,0,0,1,326.83,285.239Z" transform="translate(-286.766 -258.717)" fill="#b00b80"/>
          <path id="Path_3916" data-name="Path 3916" d="M326.8,285.269a10.7,10.7,0,1,0-10.7,10.7,10.7,10.7,0,0,0,10.7-10.7Zm.164,0A10.863,10.863,0,1,1,316.1,274.4,10.864,10.864,0,0,1,326.968,285.269Z" transform="translate(-286.794 -258.747)" fill="#a90b80"/>
          <path id="Path_3917" data-name="Path 3917" d="M326.942,285.3a10.809,10.809,0,1,0-10.809,10.809A10.81,10.81,0,0,0,326.942,285.3Zm.164,0a10.973,10.973,0,1,1-10.973-10.974A10.973,10.973,0,0,1,327.106,285.3Z" transform="translate(-286.824 -258.776)" fill="#a30d81"/>
          <path id="Path_3918" data-name="Path 3918" d="M327.081,285.327a10.918,10.918,0,1,0-10.918,10.918,10.919,10.919,0,0,0,10.918-10.918Zm.164,0a11.082,11.082,0,1,1-11.082-11.083A11.082,11.082,0,0,1,327.245,285.327Z" transform="translate(-286.853 -258.805)" fill="#9a0d81"/>
          <path id="Path_3919" data-name="Path 3919" d="M327.219,285.356a11.027,11.027,0,1,0-11.027,11.027,11.028,11.028,0,0,0,11.027-11.027Zm.164,0a11.191,11.191,0,1,1-11.191-11.192A11.192,11.192,0,0,1,327.383,285.356Z" transform="translate(-286.882 -258.834)" fill="#930c81"/>
          <path id="Path_3920" data-name="Path 3920" d="M327.358,285.386a11.136,11.136,0,1,0-11.136,11.136,11.137,11.137,0,0,0,11.136-11.136Zm.164,0a11.3,11.3,0,1,1-11.3-11.3A11.3,11.3,0,0,1,327.522,285.386Z" transform="translate(-286.911 -258.864)" fill="#8d0c81"/>
          <path id="Path_3921" data-name="Path 3921" d="M327.5,285.415a11.246,11.246,0,1,0-11.246,11.246A11.246,11.246,0,0,0,327.5,285.415Zm.164,0A11.41,11.41,0,1,1,316.251,274,11.409,11.409,0,0,1,327.66,285.415Z" transform="translate(-286.941 -258.893)" fill="#880c81"/>
          <path id="Path_3922" data-name="Path 3922" d="M327.635,285.444A11.355,11.355,0,1,0,316.28,296.8a11.356,11.356,0,0,0,11.355-11.354Zm.164,0a11.519,11.519,0,1,1-11.519-11.519A11.519,11.519,0,0,1,327.8,285.444Z" transform="translate(-286.97 -258.922)" fill="#820c81"/>
          <path id="Path_3923" data-name="Path 3923" d="M327.773,285.473a11.464,11.464,0,1,0-11.464,11.463,11.464,11.464,0,0,0,11.464-11.463Zm.164,0a11.628,11.628,0,1,1-11.628-11.628A11.628,11.628,0,0,1,327.937,285.473Z" transform="translate(-286.999 -258.951)" fill="#7b0c80"/>
          <path id="Path_3924" data-name="Path 3924" d="M327.912,285.5a11.573,11.573,0,1,0-11.573,11.572A11.574,11.574,0,0,0,327.912,285.5Zm.164,0a11.737,11.737,0,1,1-11.737-11.737A11.737,11.737,0,0,1,328.076,285.5Z" transform="translate(-287.028 -258.98)" fill="#760b80"/>
          <path id="Path_3925" data-name="Path 3925" d="M328.05,285.532a11.683,11.683,0,1,0-11.683,11.681,11.683,11.683,0,0,0,11.683-11.681Zm.164,0a11.847,11.847,0,1,1-11.846-11.847A11.846,11.846,0,0,1,328.214,285.532Z" transform="translate(-287.058 -259.009)" fill="#700b80"/>
          <path id="Path_3926" data-name="Path 3926" d="M328.189,285.561A11.792,11.792,0,1,0,316.4,297.351a11.792,11.792,0,0,0,11.792-11.791Zm.163,0A11.955,11.955,0,1,1,316.4,273.605,11.954,11.954,0,0,1,328.351,285.561Z" transform="translate(-287.087 -259.039)" fill="#6b0b80"/>
          <path id="Path_3927" data-name="Path 3927" d="M328.327,285.59a11.9,11.9,0,1,0-11.9,11.9,11.9,11.9,0,0,0,11.9-11.9Zm.162,0a12.064,12.064,0,1,1-12.064-12.065A12.063,12.063,0,0,1,328.49,285.59Z" transform="translate(-287.116 -259.068)" fill="#670b80"/>
          <path id="Path_3928" data-name="Path 3928" d="M328.464,285.619a12.01,12.01,0,1,0-12.009,12.009,12.009,12.009,0,0,0,12.009-12.009Zm.164,0a12.174,12.174,0,1,1-12.173-12.174A12.173,12.173,0,0,1,328.628,285.619Z" transform="translate(-287.145 -259.097)" fill="#630b80"/>
          <path id="Path_3929" data-name="Path 3929" d="M328.6,285.649a12.119,12.119,0,1,0-12.118,12.118A12.119,12.119,0,0,0,328.6,285.649Zm.164,0a12.283,12.283,0,1,1-12.282-12.284A12.283,12.283,0,0,1,328.767,285.649Z" transform="translate(-287.175 -259.126)" fill="#5e0b80"/>
          <path id="Path_3930" data-name="Path 3930" d="M328.741,285.678a12.228,12.228,0,1,0-12.228,12.228,12.228,12.228,0,0,0,12.228-12.228Zm.164,0a12.392,12.392,0,1,1-12.391-12.393A12.391,12.391,0,0,1,328.905,285.678Z" transform="translate(-287.204 -259.156)" fill="#5c0b80"/>
          <path id="Path_3931" data-name="Path 3931" d="M328.88,285.707a12.337,12.337,0,1,0-12.337,12.337,12.338,12.338,0,0,0,12.337-12.337Zm.164,0a12.5,12.5,0,1,1-12.5-12.5A12.5,12.5,0,0,1,329.044,285.707Z" transform="translate(-287.233 -259.185)" fill="#570a80"/>
          <path id="Path_3932" data-name="Path 3932" d="M329.018,285.736a12.447,12.447,0,1,0-12.446,12.446,12.446,12.446,0,0,0,12.446-12.446Zm.164,0a12.61,12.61,0,1,1-12.61-12.611A12.61,12.61,0,0,1,329.182,285.736Z" transform="translate(-287.262 -259.214)" fill="#51087f"/>
          <path id="Path_3933" data-name="Path 3933" d="M329.157,285.766A12.556,12.556,0,1,0,316.6,298.321a12.556,12.556,0,0,0,12.555-12.555Zm.164,0a12.72,12.72,0,1,1-12.719-12.72A12.719,12.719,0,0,1,329.321,285.766Z" transform="translate(-287.292 -259.243)" fill="#4d087f"/>
          <path id="Path_3934" data-name="Path 3934" d="M329.3,285.795a12.665,12.665,0,1,0-12.665,12.665A12.665,12.665,0,0,0,329.3,285.795Zm.164,0a12.829,12.829,0,1,1-12.828-12.83A12.829,12.829,0,0,1,329.459,285.795Z" transform="translate(-287.321 -259.273)" fill="#4a087f"/>
          <path id="Path_3935" data-name="Path 3935" d="M329.434,285.824A12.774,12.774,0,1,0,316.66,298.6a12.774,12.774,0,0,0,12.774-12.774Zm.164,0a12.938,12.938,0,1,1-12.938-12.939A12.938,12.938,0,0,1,329.6,285.824Z" transform="translate(-287.35 -259.302)" fill="#4a087f"/>
          <path id="Path_3936" data-name="Path 3936" d="M329.572,285.853a12.884,12.884,0,1,0-12.883,12.883,12.884,12.884,0,0,0,12.883-12.883Zm.164,0A13.048,13.048,0,1,1,316.689,272.8,13.048,13.048,0,0,1,329.736,285.853Z" transform="translate(-287.379 -259.331)" fill="#4a087f"/>
          <path id="Path_3937" data-name="Path 3937" d="M329.71,285.882a12.993,12.993,0,1,0-12.992,12.992,12.992,12.992,0,0,0,12.992-12.992Zm.164,0a13.156,13.156,0,1,1-13.156-13.157A13.156,13.156,0,0,1,329.874,285.882Z" transform="translate(-287.408 -259.36)" fill="#4a087f"/>
          <path id="Path_3938" data-name="Path 3938" d="M329.849,285.912a13.1,13.1,0,1,0-13.1,13.1,13.1,13.1,0,0,0,13.1-13.1Zm.164,0a13.265,13.265,0,1,1-13.265-13.267A13.266,13.266,0,0,1,330.013,285.912Z" transform="translate(-287.438 -259.39)" fill="#48087e"/>
          <path id="Path_3939" data-name="Path 3939" d="M329.987,285.941a13.211,13.211,0,1,0-13.211,13.211,13.212,13.212,0,0,0,13.211-13.211Zm.164,0a13.375,13.375,0,1,1-13.375-13.376A13.375,13.375,0,0,1,330.151,285.941Z" transform="translate(-287.467 -259.419)" fill="#48087e"/>
          <path id="Path_3940" data-name="Path 3940" d="M330.126,285.97a13.32,13.32,0,1,0-13.32,13.32,13.32,13.32,0,0,0,13.32-13.32Zm.164,0a13.484,13.484,0,1,1-13.484-13.485A13.484,13.484,0,0,1,330.29,285.97Z" transform="translate(-287.496 -259.448)" fill="#48087e"/>
          <path id="Path_3941" data-name="Path 3941" d="M330.264,286a13.429,13.429,0,1,0-13.429,13.429A13.43,13.43,0,0,0,330.264,286Zm.164,0A13.593,13.593,0,1,1,316.835,272.4,13.593,13.593,0,0,1,330.428,286Z" transform="translate(-287.525 -259.477)" fill="#48087e"/>
          <path id="Path_3942" data-name="Path 3942" d="M330.4,286.028a13.538,13.538,0,1,0-13.538,13.537A13.539,13.539,0,0,0,330.4,286.028Zm.164,0a13.7,13.7,0,1,1-13.7-13.7A13.7,13.7,0,0,1,330.567,286.028Z" transform="translate(-287.554 -259.506)" fill="#46087e"/>
          <path id="Path_3943" data-name="Path 3943" d="M330.541,286.058A13.648,13.648,0,1,0,316.894,299.7a13.649,13.649,0,0,0,13.648-13.646Zm.164,0a13.812,13.812,0,1,1-13.812-13.812A13.811,13.811,0,0,1,330.705,286.058Z" transform="translate(-287.584 -259.536)" fill="#46087e"/>
          <path id="Path_3944" data-name="Path 3944" d="M330.68,286.087a13.757,13.757,0,1,0-13.757,13.756,13.756,13.756,0,0,0,13.757-13.756Zm.164,0a13.921,13.921,0,1,1-13.921-13.921A13.921,13.921,0,0,1,330.844,286.087Z" transform="translate(-287.613 -259.565)" fill="#46087e"/>
          <path id="Path_3945" data-name="Path 3945" d="M330.818,286.116a13.866,13.866,0,1,0-13.866,13.865,13.866,13.866,0,0,0,13.866-13.865Zm.164,0a14.03,14.03,0,1,1-14.03-14.03A14.03,14.03,0,0,1,330.982,286.116Z" transform="translate(-287.642 -259.594)" fill="#44087e"/>
          <path id="Path_3946" data-name="Path 3946" d="M330.957,286.145a13.975,13.975,0,1,0-13.975,13.974,13.976,13.976,0,0,0,13.975-13.974Zm.163,0a14.139,14.139,0,1,1-14.138-14.139A14.138,14.138,0,0,1,331.119,286.145Z" transform="translate(-287.671 -259.623)" fill="#460a7f"/>
          <path id="Path_3947" data-name="Path 3947" d="M331.1,286.175a14.085,14.085,0,1,0-14.085,14.083A14.084,14.084,0,0,0,331.1,286.175Zm.163,0a14.248,14.248,0,1,1-14.247-14.249A14.247,14.247,0,0,1,331.258,286.175Z" transform="translate(-287.701 -259.653)" fill="#440a7f"/>
          <path id="Path_3948" data-name="Path 3948" d="M331.232,286.2A14.193,14.193,0,1,0,317.04,300.4,14.193,14.193,0,0,0,331.232,286.2Zm.164,0a14.357,14.357,0,1,1-14.356-14.358A14.357,14.357,0,0,1,331.4,286.2Z" transform="translate(-287.73 -259.682)" fill="#440a7f"/>
          <path id="Path_3949" data-name="Path 3949" d="M331.371,286.233a14.3,14.3,0,1,0-14.3,14.3,14.3,14.3,0,0,0,14.3-14.3Zm.164,0a14.466,14.466,0,1,1-14.466-14.467A14.466,14.466,0,0,1,331.535,286.233Z" transform="translate(-287.759 -259.711)" fill="#440a7f"/>
          <path id="Path_3950" data-name="Path 3950" d="M331.509,286.262A14.412,14.412,0,1,0,317.1,300.673a14.411,14.411,0,0,0,14.411-14.411Zm.164,0A14.576,14.576,0,1,1,317.1,271.686,14.575,14.575,0,0,1,331.673,286.262Z" transform="translate(-287.788 -259.74)" fill="#440a7f"/>
          <path id="Path_3951" data-name="Path 3951" d="M331.648,286.292a14.521,14.521,0,1,0-14.52,14.52,14.521,14.521,0,0,0,14.52-14.52Zm.164,0a14.685,14.685,0,1,1-14.684-14.686A14.685,14.685,0,0,1,331.812,286.292Z" transform="translate(-287.818 -259.769)" fill="#410a7f"/>
          <path id="Path_3952" data-name="Path 3952" d="M331.786,286.321a14.63,14.63,0,1,0-14.63,14.63,14.63,14.63,0,0,0,14.63-14.63Zm.164,0a14.794,14.794,0,1,1-14.793-14.795A14.793,14.793,0,0,1,331.95,286.321Z" transform="translate(-287.847 -259.799)" fill="#410a7f"/>
          <path id="Path_3953" data-name="Path 3953" d="M331.925,286.35a14.74,14.74,0,1,0-14.739,14.739,14.739,14.739,0,0,0,14.739-14.739Zm.164,0a14.9,14.9,0,1,1-14.9-14.9A14.9,14.9,0,0,1,332.089,286.35Z" transform="translate(-287.876 -259.828)" fill="#410a7f"/>
          <path id="Path_3954" data-name="Path 3954" d="M332.063,286.379a14.849,14.849,0,1,0-14.848,14.848,14.848,14.848,0,0,0,14.848-14.848Zm.164,0a15.013,15.013,0,1,1-15.012-15.013A15.012,15.012,0,0,1,332.227,286.379Z" transform="translate(-287.905 -259.857)" fill="#410a7f"/>
          <path id="Path_3955" data-name="Path 3955" d="M332.2,286.409a14.958,14.958,0,1,0-14.957,14.957A14.958,14.958,0,0,0,332.2,286.409Zm.164,0a15.122,15.122,0,1,1-15.121-15.123A15.122,15.122,0,0,1,332.366,286.409Z" transform="translate(-287.935 -259.886)" fill="#410a7f"/>
          <path id="Path_3956" data-name="Path 3956" d="M332.341,286.438A15.067,15.067,0,1,0,317.274,301.5a15.068,15.068,0,0,0,15.067-15.067Zm.164,0a15.231,15.231,0,1,1-15.23-15.232A15.231,15.231,0,0,1,332.5,286.438Z" transform="translate(-287.964 -259.916)" fill="#3f0a7f"/>
          <path id="Path_3957" data-name="Path 3957" d="M332.479,286.467A15.177,15.177,0,1,0,317.3,301.643a15.176,15.176,0,0,0,15.176-15.176Zm.164,0a15.34,15.34,0,1,1-15.34-15.341A15.339,15.339,0,0,1,332.642,286.467Z" transform="translate(-287.993 -259.945)" fill="#3f0a7f"/>
          <path id="Path_3958" data-name="Path 3958" d="M332.617,286.5a15.285,15.285,0,1,0-15.285,15.285A15.286,15.286,0,0,0,332.617,286.5Zm.164,0a15.449,15.449,0,1,1-15.449-15.45A15.45,15.45,0,0,1,332.781,286.5Z" transform="translate(-288.022 -259.974)" fill="#3f0a7f"/>
          <path id="Path_3959" data-name="Path 3959" d="M332.756,286.526a15.394,15.394,0,1,0-15.394,15.394,15.4,15.4,0,0,0,15.394-15.394Zm.164,0a15.558,15.558,0,1,1-15.558-15.56A15.558,15.558,0,0,1,332.919,286.526Z" transform="translate(-288.051 -260.003)" fill="#3f0a7f"/>
          <path id="Path_3960" data-name="Path 3960" d="M332.894,286.555a15.5,15.5,0,1,0-15.5,15.5,15.5,15.5,0,0,0,15.5-15.5Zm.164,0a15.667,15.667,0,1,1-15.667-15.669A15.668,15.668,0,0,1,333.058,286.555Z" transform="translate(-288.081 -260.033)" fill="#3d0a7f"/>
          <path id="Path_3961" data-name="Path 3961" d="M333.033,286.584A15.613,15.613,0,1,0,317.42,302.2a15.614,15.614,0,0,0,15.613-15.613Zm.164,0a15.777,15.777,0,1,1-15.777-15.778A15.776,15.776,0,0,1,333.2,286.584Z" transform="translate(-288.11 -260.062)" fill="#3d0a7f"/>
          <path id="Path_3962" data-name="Path 3962" d="M333.171,286.613a15.722,15.722,0,1,0-15.722,15.722,15.723,15.723,0,0,0,15.722-15.722Zm.164,0a15.886,15.886,0,1,1-15.886-15.886A15.886,15.886,0,0,1,333.335,286.613Z" transform="translate(-288.139 -260.091)" fill="#3d0a7f"/>
          <path id="Path_3963" data-name="Path 3963" d="M333.31,286.642a15.831,15.831,0,1,0-15.831,15.83,15.832,15.832,0,0,0,15.831-15.83Zm.164,0a16,16,0,1,1-16-16A15.995,15.995,0,0,1,333.473,286.642Z" transform="translate(-288.168 -260.12)" fill="#3d0a7f"/>
          <path id="Path_3964" data-name="Path 3964" d="M333.448,286.672a15.941,15.941,0,1,0-15.941,15.939,15.94,15.94,0,0,0,15.941-15.939Zm.164,0a16.1,16.1,0,1,1-16.1-16.1A16.1,16.1,0,0,1,333.612,286.672Z" transform="translate(-288.198 -260.149)" fill="#3d0a7f"/>
          <path id="Path_3965" data-name="Path 3965" d="M333.587,286.7a16.05,16.05,0,1,0-16.05,16.049,16.05,16.05,0,0,0,16.05-16.049Zm.164,0a16.214,16.214,0,1,1-16.214-16.214A16.213,16.213,0,0,1,333.75,286.7Z" transform="translate(-288.227 -260.179)" fill="#3b0a7f"/>
          <path id="Path_3966" data-name="Path 3966" d="M333.725,286.73a16.159,16.159,0,1,0-16.159,16.158,16.159,16.159,0,0,0,16.159-16.158Zm.164,0a16.323,16.323,0,1,1-16.323-16.323A16.323,16.323,0,0,1,333.889,286.73Z" transform="translate(-288.256 -260.208)" fill="#3b0a7f"/>
          <path id="Path_3967" data-name="Path 3967" d="M333.864,286.759A16.268,16.268,0,1,0,317.6,303.026a16.268,16.268,0,0,0,16.268-16.267Zm.162,0A16.432,16.432,0,1,1,317.6,270.327,16.431,16.431,0,0,1,334.026,286.759Z" transform="translate(-288.285 -260.237)" fill="#3b0a7f"/>
          <path id="Path_3968" data-name="Path 3968" d="M334,286.788a16.377,16.377,0,1,0-16.376,16.376A16.377,16.377,0,0,0,334,286.788Zm.164,0a16.541,16.541,0,1,1-16.54-16.541A16.541,16.541,0,0,1,334.165,286.788Z" transform="translate(-288.314 -260.266)" fill="#3b0a7f"/>
          <path id="Path_3969" data-name="Path 3969" d="M334.139,286.818A16.486,16.486,0,1,0,317.654,303.3a16.486,16.486,0,0,0,16.485-16.485Zm.164,0a16.65,16.65,0,1,1-16.649-16.651A16.649,16.649,0,0,1,334.3,286.818Z" transform="translate(-288.344 -260.296)" fill="#39087e"/>
          <path id="Path_3970" data-name="Path 3970" d="M334.278,286.847a16.6,16.6,0,1,0-16.595,16.595,16.595,16.595,0,0,0,16.595-16.595Zm.165,0a16.76,16.76,0,1,1-16.76-16.76A16.759,16.759,0,0,1,334.443,286.847Z" transform="translate(-288.373 -260.325)" fill="#3b0a7f"/>
          <path id="Path_3971" data-name="Path 3971" d="M334.416,286.876a16.7,16.7,0,1,0-16.7,16.7,16.7,16.7,0,0,0,16.7-16.7Zm.164,0a16.869,16.869,0,1,1-16.868-16.869A16.868,16.868,0,0,1,334.58,286.876Z" transform="translate(-288.402 -260.354)" fill="#39097f"/>
          <path id="Path_3972" data-name="Path 3972" d="M334.556,286.905a16.815,16.815,0,1,0-16.815,16.813,16.815,16.815,0,0,0,16.815-16.813Zm.163,0a16.978,16.978,0,1,1-16.977-16.978A16.977,16.977,0,0,1,334.719,286.905Z" transform="translate(-288.431 -260.383)" fill="#39097f"/>
          <path id="Path_3973" data-name="Path 3973" d="M334.693,286.935a16.923,16.923,0,1,0-16.922,16.922,16.923,16.923,0,0,0,16.922-16.922Zm.164,0a17.087,17.087,0,1,1-17.086-17.088A17.087,17.087,0,0,1,334.857,286.935Z" transform="translate(-288.461 -260.413)" fill="#37097f"/>
          <path id="Path_3974" data-name="Path 3974" d="M334.832,286.964A17.032,17.032,0,1,0,317.8,304a17.032,17.032,0,0,0,17.032-17.032Zm.164,0a17.2,17.2,0,1,1-17.2-17.2A17.2,17.2,0,0,1,335,286.964Z" transform="translate(-288.49 -260.442)" fill="#37097f"/>
          <path id="Path_3975" data-name="Path 3975" d="M334.97,286.993a17.142,17.142,0,1,0-17.141,17.141,17.142,17.142,0,0,0,17.141-17.141Zm.164,0a17.306,17.306,0,1,1-17.3-17.306A17.3,17.3,0,0,1,335.134,286.993Z" transform="translate(-288.519 -260.471)" fill="#37097f"/>
          <path id="Path_3976" data-name="Path 3976" d="M335.109,287.022a17.251,17.251,0,1,0-17.25,17.25,17.25,17.25,0,0,0,17.25-17.25Zm.164,0a17.415,17.415,0,1,1-17.414-17.415A17.415,17.415,0,0,1,335.273,287.022Z" transform="translate(-288.549 -260.5)" fill="#37097f"/>
          <path id="Path_3977" data-name="Path 3977" d="M335.247,287.052a17.36,17.36,0,1,0-17.359,17.359,17.36,17.36,0,0,0,17.359-17.359Zm.164,0a17.523,17.523,0,1,1-17.523-17.525A17.523,17.523,0,0,1,335.411,287.052Z" transform="translate(-288.577 -260.53)" fill="#37097f"/>
          <path id="Path_3978" data-name="Path 3978" d="M335.385,287.081a17.469,17.469,0,1,0-17.469,17.469,17.47,17.47,0,0,0,17.469-17.469Zm.164,0a17.633,17.633,0,1,1-17.633-17.634A17.633,17.633,0,0,1,335.549,287.081Z" transform="translate(-288.607 -260.559)" fill="#37097f"/>
          <path id="Path_3979" data-name="Path 3979" d="M335.524,287.11a17.578,17.578,0,1,0-17.578,17.578,17.578,17.578,0,0,0,17.578-17.578Zm.164,0a17.742,17.742,0,1,1-17.742-17.743A17.742,17.742,0,0,1,335.688,287.11Z" transform="translate(-288.636 -260.588)" fill="#37097f"/>
          <path id="Path_3980" data-name="Path 3980" d="M335.662,287.139a17.687,17.687,0,1,0-17.687,17.687,17.688,17.688,0,0,0,17.687-17.687Zm.164,0a17.851,17.851,0,1,1-17.851-17.852A17.852,17.852,0,0,1,335.826,287.139Z" transform="translate(-288.665 -260.617)" fill="#37097f"/>
          <path id="Path_3981" data-name="Path 3981" d="M335.8,287.169a17.8,17.8,0,1,0-17.8,17.8,17.8,17.8,0,0,0,17.8-17.8Zm.164,0A17.96,17.96,0,1,1,318,269.207,17.961,17.961,0,0,1,335.965,287.169Z" transform="translate(-288.694 -260.647)" fill="#34097f"/>
          <path id="Path_3982" data-name="Path 3982" d="M335.939,287.2A17.906,17.906,0,1,0,318.034,305.1,17.907,17.907,0,0,0,335.939,287.2Zm.164,0a18.07,18.07,0,1,1-18.07-18.071A18.069,18.069,0,0,1,336.1,287.2Z" transform="translate(-288.724 -260.676)" fill="#34097f"/>
          <path id="Path_3983" data-name="Path 3983" d="M336.078,287.227a18.015,18.015,0,1,0-18.015,18.014,18.016,18.016,0,0,0,18.015-18.014Zm.164,0a18.179,18.179,0,1,1-18.179-18.179A18.178,18.178,0,0,1,336.242,287.227Z" transform="translate(-288.753 -260.705)" fill="#34097f"/>
          <path id="Path_3984" data-name="Path 3984" d="M336.216,287.256a18.124,18.124,0,1,0-18.124,18.123,18.123,18.123,0,0,0,18.124-18.123Zm.164,0a18.288,18.288,0,1,1-18.288-18.288A18.287,18.287,0,0,1,336.38,287.256Z" transform="translate(-288.782 -260.734)" fill="#34097f"/>
          <path id="Path_3985" data-name="Path 3985" d="M336.355,287.285a18.233,18.233,0,1,0-18.233,18.232,18.233,18.233,0,0,0,18.233-18.232Zm.164,0a18.4,18.4,0,1,1-18.4-18.4A18.4,18.4,0,0,1,336.519,287.285Z" transform="translate(-288.811 -260.763)" fill="#34097f"/>
          <path id="Path_3986" data-name="Path 3986" d="M336.493,287.315a18.343,18.343,0,1,0-18.343,18.341,18.342,18.342,0,0,0,18.343-18.341Zm.164,0a18.507,18.507,0,1,1-18.507-18.506A18.506,18.506,0,0,1,336.657,287.315Z" transform="translate(-288.841 -260.792)" fill="#34097f"/>
          <path id="Path_3987" data-name="Path 3987" d="M336.632,287.344a18.452,18.452,0,1,0-18.452,18.451,18.452,18.452,0,0,0,18.452-18.451Zm.162,0a18.615,18.615,0,1,1-18.614-18.616A18.615,18.615,0,0,1,336.794,287.344Z" transform="translate(-288.87 -260.822)" fill="#34097f"/>
          <path id="Path_3988" data-name="Path 3988" d="M336.77,287.373a18.561,18.561,0,1,0-18.561,18.56,18.561,18.561,0,0,0,18.561-18.56Zm.163,0a18.724,18.724,0,1,1-18.724-18.725A18.724,18.724,0,0,1,336.933,287.373Z" transform="translate(-288.899 -260.851)" fill="#32097f"/>
          <path id="Path_3989" data-name="Path 3989" d="M336.907,287.4a18.67,18.67,0,1,0-18.669,18.669A18.669,18.669,0,0,0,336.907,287.4Zm.164,0a18.834,18.834,0,1,1-18.833-18.834A18.833,18.833,0,0,1,337.071,287.4Z" transform="translate(-288.928 -260.88)" fill="#32097f"/>
          <path id="Path_3990" data-name="Path 3990" d="M337.046,287.432a18.779,18.779,0,1,0-18.778,18.778,18.779,18.779,0,0,0,18.778-18.778Zm.165,0a18.944,18.944,0,1,1-18.944-18.943A18.943,18.943,0,0,1,337.211,287.432Z" transform="translate(-288.958 -260.909)" fill="#32097f"/>
          <path id="Path_3991" data-name="Path 3991" d="M337.186,287.461A18.889,18.889,0,1,0,318.3,306.348a18.889,18.889,0,0,0,18.889-18.888Zm.164,0A19.053,19.053,0,1,1,318.3,268.408,19.053,19.053,0,0,1,337.35,287.461Z" transform="translate(-288.987 -260.939)" fill="#32097f"/>
          <path id="Path_3992" data-name="Path 3992" d="M337.324,287.49a19,19,0,1,0-19,19,19,19,0,0,0,19-19Zm.163,0a19.161,19.161,0,1,1-19.161-19.162A19.161,19.161,0,0,1,337.487,287.49Z" transform="translate(-289.016 -260.968)" fill="#30097f"/>
          <path id="Path_3993" data-name="Path 3993" d="M337.461,287.519a19.107,19.107,0,1,0-19.106,19.106,19.106,19.106,0,0,0,19.106-19.106Zm.164,0a19.271,19.271,0,1,1-19.27-19.271A19.27,19.27,0,0,1,337.625,287.519Z" transform="translate(-289.045 -260.997)" fill="#30097f"/>
          <path id="Path_3994" data-name="Path 3994" d="M337.6,287.548a19.216,19.216,0,1,0-19.215,19.215A19.216,19.216,0,0,0,337.6,287.548Zm.164,0a19.38,19.38,0,1,1-19.379-19.38A19.38,19.38,0,0,1,337.764,287.548Z" transform="translate(-289.075 -261.026)" fill="#30097f"/>
          <path id="Path_3995" data-name="Path 3995" d="M337.738,287.578A19.325,19.325,0,1,0,318.414,306.9a19.325,19.325,0,0,0,19.324-19.325Zm.164,0a19.489,19.489,0,1,1-19.488-19.49A19.489,19.489,0,0,1,337.9,287.578Z" transform="translate(-289.104 -261.056)" fill="#30097f"/>
          <path id="Path_3996" data-name="Path 3996" d="M337.877,287.607a19.435,19.435,0,1,0-19.434,19.434,19.434,19.434,0,0,0,19.434-19.434Zm.164,0a19.6,19.6,0,1,1-19.6-19.6A19.6,19.6,0,0,1,338.041,287.607Z" transform="translate(-289.133 -261.085)" fill="#30097f"/>
          <path id="Path_3997" data-name="Path 3997" d="M338.015,287.636a19.544,19.544,0,1,0-19.543,19.543,19.543,19.543,0,0,0,19.543-19.543Zm.164,0a19.708,19.708,0,1,1-19.707-19.708A19.707,19.707,0,0,1,338.179,287.636Z" transform="translate(-289.162 -261.114)" fill="#30097f"/>
          <path id="Path_3998" data-name="Path 3998" d="M338.153,287.665A19.653,19.653,0,1,0,318.5,307.318a19.652,19.652,0,0,0,19.652-19.652Zm.164,0A19.816,19.816,0,1,1,318.5,267.848,19.817,19.817,0,0,1,338.317,287.665Z" transform="translate(-289.191 -261.143)" fill="#30097f"/>
          <path id="Path_3999" data-name="Path 3999" d="M338.292,287.695a19.762,19.762,0,1,0-19.762,19.762,19.762,19.762,0,0,0,19.762-19.762Zm.164,0a19.925,19.925,0,1,1-19.925-19.927A19.926,19.926,0,0,1,338.456,287.695Z" transform="translate(-289.22 -261.173)" fill="#2e097f"/>
          <path id="Path_4000" data-name="Path 4000" d="M338.431,287.724a19.871,19.871,0,1,0-19.871,19.871,19.872,19.872,0,0,0,19.871-19.871Zm.164,0a20.035,20.035,0,1,1-20.035-20.036A20.035,20.035,0,0,1,338.594,287.724Z" transform="translate(-289.25 -261.202)" fill="#2e097f"/>
          <path id="Path_4001" data-name="Path 4001" d="M338.569,287.753a19.98,19.98,0,1,0-19.98,19.98,19.981,19.981,0,0,0,19.98-19.98Zm.164,0a20.144,20.144,0,1,1-20.144-20.145A20.144,20.144,0,0,1,338.733,287.753Z" transform="translate(-289.279 -261.231)" fill="#2e097f"/>
          <path id="Path_4002" data-name="Path 4002" d="M338.707,287.783a20.089,20.089,0,1,0-20.089,20.089,20.09,20.09,0,0,0,20.089-20.089Zm.164,0a20.253,20.253,0,1,1-20.253-20.254A20.253,20.253,0,0,1,338.871,287.783Z" transform="translate(-289.308 -261.26)" fill="#2e097f"/>
          <path id="Path_4003" data-name="Path 4003" d="M338.846,287.811a20.2,20.2,0,1,0-20.2,20.2,20.2,20.2,0,0,0,20.2-20.2Zm.164,0a20.362,20.362,0,1,1-20.362-20.362A20.361,20.361,0,0,1,339.01,287.811Z" transform="translate(-289.337 -261.289)" fill="#2d0b80"/>
          <path id="Path_4004" data-name="Path 4004" d="M338.984,287.841a20.308,20.308,0,1,0-20.308,20.306,20.309,20.309,0,0,0,20.308-20.306Zm.164,0a20.472,20.472,0,1,1-20.472-20.472A20.471,20.471,0,0,1,339.148,287.841Z" transform="translate(-289.367 -261.318)" fill="#2d0b80"/>
          <path id="Path_4005" data-name="Path 4005" d="M339.123,287.87a20.417,20.417,0,1,0-20.417,20.416,20.416,20.416,0,0,0,20.417-20.416Zm.164,0a20.581,20.581,0,1,1-20.581-20.581A20.581,20.581,0,0,1,339.287,287.87Z" transform="translate(-289.396 -261.348)" fill="#2b0b80"/>
          <path id="Path_4006" data-name="Path 4006" d="M339.261,287.9a20.526,20.526,0,1,0-20.526,20.525A20.526,20.526,0,0,0,339.261,287.9Zm.164,0a20.69,20.69,0,1,1-20.69-20.69A20.689,20.689,0,0,1,339.425,287.9Z" transform="translate(-289.425 -261.377)" fill="#2b0b80"/>
          <path id="Path_4007" data-name="Path 4007" d="M339.4,287.928a20.636,20.636,0,1,0-20.635,20.634A20.636,20.636,0,0,0,339.4,287.928Zm.164,0a20.8,20.8,0,1,1-20.8-20.8A20.8,20.8,0,0,1,339.564,287.928Z" transform="translate(-289.454 -261.406)" fill="#2b0b80"/>
          <path id="Path_4008" data-name="Path 4008" d="M339.538,287.958A20.745,20.745,0,1,0,318.794,308.7a20.745,20.745,0,0,0,20.745-20.743Zm.163,0a20.908,20.908,0,1,1-20.907-20.909A20.907,20.907,0,0,1,339.7,287.958Z" transform="translate(-289.484 -261.435)" fill="#2b0b80"/>
          <path id="Path_4009" data-name="Path 4009" d="M339.676,287.987a20.853,20.853,0,1,0-20.853,20.853,20.853,20.853,0,0,0,20.853-20.853Zm.165,0a21.018,21.018,0,1,1-21.018-21.018A21.017,21.017,0,0,1,339.841,287.987Z" transform="translate(-289.513 -261.465)" fill="#2b097f"/>
          <path id="Path_4010" data-name="Path 4010" d="M339.815,288.016a20.963,20.963,0,1,0-20.963,20.962,20.963,20.963,0,0,0,20.963-20.962Zm.164,0a21.127,21.127,0,1,1-21.127-21.127A21.127,21.127,0,0,1,339.979,288.016Z" transform="translate(-289.542 -261.494)" fill="#2b097f"/>
          <path id="Path_4011" data-name="Path 4011" d="M339.954,288.045a21.072,21.072,0,1,0-21.072,21.071,21.072,21.072,0,0,0,21.072-21.071Zm.164,0a21.236,21.236,0,1,1-21.236-21.236A21.236,21.236,0,0,1,340.118,288.045Z" transform="translate(-289.571 -261.523)" fill="#2b0b80"/>
          <path id="Path_4012" data-name="Path 4012" d="M340.092,288.075a21.182,21.182,0,1,0-21.182,21.18,21.182,21.182,0,0,0,21.182-21.18Zm.163,0a21.345,21.345,0,1,1-21.344-21.346A21.345,21.345,0,0,1,340.255,288.075Z" transform="translate(-289.601 -261.552)" fill="#2b0b80"/>
          <path id="Path_4013" data-name="Path 4013" d="M340.231,288.1a21.291,21.291,0,1,0-21.291,21.29,21.291,21.291,0,0,0,21.291-21.29Zm.163,0a21.454,21.454,0,1,1-21.454-21.455A21.453,21.453,0,0,1,340.393,288.1Z" transform="translate(-289.63 -261.582)" fill="#2b0b80"/>
          <path id="Path_4014" data-name="Path 4014" d="M340.368,288.133a21.4,21.4,0,1,0-21.4,21.4,21.4,21.4,0,0,0,21.4-21.4Zm.164,0a21.563,21.563,0,1,1-21.563-21.564A21.563,21.563,0,0,1,340.532,288.133Z" transform="translate(-289.659 -261.611)" fill="#290b7f"/>
          <path id="Path_4015" data-name="Path 4015" d="M340.507,288.162A21.509,21.509,0,1,0,319,309.67a21.508,21.508,0,0,0,21.508-21.508Zm.164,0A21.673,21.673,0,1,1,319,266.489,21.672,21.672,0,0,1,340.67,288.162Z" transform="translate(-289.688 -261.64)" fill="#290b7f"/>
          <path id="Path_4016" data-name="Path 4016" d="M340.645,288.192a21.618,21.618,0,1,0-21.617,21.617,21.618,21.618,0,0,0,21.617-21.617Zm.164,0a21.782,21.782,0,1,1-21.781-21.783A21.781,21.781,0,0,1,340.809,288.192Z" transform="translate(-289.718 -261.669)" fill="#290b7f"/>
          <path id="Path_4017" data-name="Path 4017" d="M340.783,288.221a21.727,21.727,0,1,0-21.727,21.727,21.727,21.727,0,0,0,21.727-21.727Zm.164,0a21.891,21.891,0,1,1-21.891-21.892A21.891,21.891,0,0,1,340.947,288.221Z" transform="translate(-289.747 -261.699)" fill="#290b7f"/>
          <path id="Path_4018" data-name="Path 4018" d="M340.922,288.25a21.837,21.837,0,1,0-21.836,21.836,21.836,21.836,0,0,0,21.836-21.836Zm.164,0a22,22,0,1,1-22-22A22,22,0,0,1,341.086,288.25Z" transform="translate(-289.776 -261.728)" fill="#290b7f"/>
          <path id="Path_4019" data-name="Path 4019" d="M341.06,288.279a21.946,21.946,0,1,0-21.945,21.945,21.946,21.946,0,0,0,21.945-21.945Zm.164,0a22.109,22.109,0,1,1-22.109-22.11A22.109,22.109,0,0,1,341.224,288.279Z" transform="translate(-289.805 -261.757)" fill="#290b7f"/>
          <path id="Path_4020" data-name="Path 4020" d="M341.2,288.309a22.054,22.054,0,1,0-22.054,22.054A22.055,22.055,0,0,0,341.2,288.309Zm.164,0a22.218,22.218,0,1,1-22.218-22.22A22.219,22.219,0,0,1,341.363,288.309Z" transform="translate(-289.834 -261.786)" fill="#290b7f"/>
          <path id="Path_4021" data-name="Path 4021" d="M341.337,288.338A22.164,22.164,0,1,0,319.174,310.5a22.165,22.165,0,0,0,22.164-22.164Zm.164,0a22.327,22.327,0,1,1-22.327-22.329A22.328,22.328,0,0,1,341.5,288.338Z" transform="translate(-289.864 -261.816)" fill="#290b7f"/>
          <path id="Path_4022" data-name="Path 4022" d="M341.476,288.367A22.273,22.273,0,1,0,319.2,310.64a22.274,22.274,0,0,0,22.273-22.273Zm.164,0A22.437,22.437,0,1,1,319.2,265.929,22.436,22.436,0,0,1,341.64,288.367Z" transform="translate(-289.893 -261.845)" fill="#270a7f"/>
          <path id="Path_4023" data-name="Path 4023" d="M341.614,288.4a22.382,22.382,0,1,0-22.382,22.382A22.382,22.382,0,0,0,341.614,288.4Zm.164,0a22.546,22.546,0,1,1-22.546-22.547A22.545,22.545,0,0,1,341.778,288.4Z" transform="translate(-289.922 -261.874)" fill="#270a7f"/>
          <path id="Path_4024" data-name="Path 4024" d="M341.753,288.425a22.491,22.491,0,1,0-22.491,22.49,22.492,22.492,0,0,0,22.491-22.49Zm.164,0a22.655,22.655,0,1,1-22.655-22.655A22.655,22.655,0,0,1,341.916,288.425Z" transform="translate(-289.951 -261.903)" fill="#270a7f"/>
          <path id="Path_4025" data-name="Path 4025" d="M341.891,288.454a22.6,22.6,0,1,0-22.6,22.6,22.6,22.6,0,0,0,22.6-22.6Zm.164,0a22.764,22.764,0,1,1-22.764-22.764A22.764,22.764,0,0,1,342.055,288.454Z" transform="translate(-289.981 -261.932)" fill="#270a7f"/>
          <path id="Path_4026" data-name="Path 4026" d="M342.029,288.484a22.71,22.71,0,1,0-22.71,22.708,22.71,22.71,0,0,0,22.71-22.708Zm.164,0A22.874,22.874,0,1,1,319.32,265.61,22.873,22.873,0,0,1,342.193,288.484Z" transform="translate(-290.01 -261.962)" fill="#270a7f"/>
          <path id="Path_4027" data-name="Path 4027" d="M342.168,288.513a22.819,22.819,0,1,0-22.819,22.818,22.819,22.819,0,0,0,22.819-22.818Zm.164,0a22.983,22.983,0,1,1-22.983-22.983A22.983,22.983,0,0,1,342.332,288.513Z" transform="translate(-290.039 -261.991)" fill="#270c80"/>
          <path id="Path_4028" data-name="Path 4028" d="M342.307,288.542a22.928,22.928,0,1,0-22.928,22.927,22.928,22.928,0,0,0,22.928-22.927Zm.164,0a23.092,23.092,0,1,1-23.092-23.092A23.091,23.091,0,0,1,342.47,288.542Z" transform="translate(-290.068 -262.02)" fill="#270c80"/>
          <path id="Path_4029" data-name="Path 4029" d="M342.444,288.571a23.037,23.037,0,1,0-23.036,23.036,23.036,23.036,0,0,0,23.036-23.036Zm.165,0a23.2,23.2,0,1,1-23.2-23.2A23.2,23.2,0,0,1,342.609,288.571Z" transform="translate(-290.098 -262.049)" fill="#270c80"/>
          <path id="Path_4030" data-name="Path 4030" d="M342.584,288.6a23.147,23.147,0,1,0-23.147,23.146A23.146,23.146,0,0,0,342.584,288.6Zm.164,0a23.311,23.311,0,1,1-23.311-23.311A23.31,23.31,0,0,1,342.747,288.6Z" transform="translate(-290.127 -262.079)" fill="#270c80"/>
          <path id="Path_4031" data-name="Path 4031" d="M342.722,288.63a23.256,23.256,0,1,0-23.256,23.255,23.256,23.256,0,0,0,23.256-23.255Zm.164,0a23.42,23.42,0,1,1-23.42-23.42A23.42,23.42,0,0,1,342.886,288.63Z" transform="translate(-290.156 -262.108)" fill="#270c80"/>
          <path id="Path_4032" data-name="Path 4032" d="M342.861,288.659A23.365,23.365,0,1,0,319.5,312.023a23.366,23.366,0,0,0,23.365-23.364Zm.162,0A23.529,23.529,0,1,1,319.5,265.13,23.528,23.528,0,0,1,343.023,288.659Z" transform="translate(-290.185 -262.137)" fill="#270c80"/>
          <path id="Path_4033" data-name="Path 4033" d="M343,288.688a23.475,23.475,0,1,0-23.475,23.473A23.475,23.475,0,0,0,343,288.688Zm.162,0a23.638,23.638,0,1,1-23.637-23.638A23.637,23.637,0,0,1,343.162,288.688Z" transform="translate(-290.215 -262.166)" fill="#250c80"/>
          <path id="Path_4034" data-name="Path 4034" d="M343.136,288.718A23.583,23.583,0,1,0,319.554,312.3a23.583,23.583,0,0,0,23.582-23.582Zm.164,0a23.747,23.747,0,1,1-23.746-23.748A23.747,23.747,0,0,1,343.3,288.718Z" transform="translate(-290.244 -262.196)" fill="#250c80"/>
          <path id="Path_4035" data-name="Path 4035" d="M343.275,288.747a23.692,23.692,0,1,0-23.692,23.692,23.692,23.692,0,0,0,23.692-23.692Zm.164,0a23.856,23.856,0,1,1-23.856-23.857A23.855,23.855,0,0,1,343.439,288.747Z" transform="translate(-290.273 -262.225)" fill="#250c80"/>
          <path id="Path_4036" data-name="Path 4036" d="M343.413,288.776a23.8,23.8,0,1,0-23.8,23.8,23.8,23.8,0,0,0,23.8-23.8Zm.164,0a23.966,23.966,0,1,1-23.965-23.966A23.965,23.965,0,0,1,343.577,288.776Z" transform="translate(-290.302 -262.254)" fill="#250c80"/>
          <path id="Path_4037" data-name="Path 4037" d="M343.552,288.806a23.911,23.911,0,1,0-23.91,23.91,23.91,23.91,0,0,0,23.91-23.91Zm.164,0a24.075,24.075,0,1,1-24.074-24.075A24.074,24.074,0,0,1,343.716,288.806Z" transform="translate(-290.332 -262.283)" fill="#250c80"/>
          <path id="Path_4038" data-name="Path 4038" d="M343.69,288.835a24.02,24.02,0,1,0-24.019,24.019,24.02,24.02,0,0,0,24.019-24.019Zm.164,0A24.183,24.183,0,1,1,319.67,264.65,24.184,24.184,0,0,1,343.854,288.835Z" transform="translate(-290.36 -262.313)" fill="#230c80"/>
          <path id="Path_4039" data-name="Path 4039" d="M343.828,288.864A24.129,24.129,0,1,0,319.7,312.993a24.13,24.13,0,0,0,24.129-24.129Zm.164,0A24.293,24.293,0,1,1,319.7,264.57,24.293,24.293,0,0,1,343.992,288.864Z" transform="translate(-290.39 -262.342)" fill="#230c80"/>
          <path id="Path_4040" data-name="Path 4040" d="M343.967,288.893a24.238,24.238,0,1,0-24.238,24.238,24.239,24.239,0,0,0,24.238-24.238Zm.164,0a24.4,24.4,0,1,1-24.4-24.4A24.4,24.4,0,0,1,344.131,288.893Z" transform="translate(-290.419 -262.371)" fill="#230c80"/>
          <path id="Path_4041" data-name="Path 4041" d="M344.105,288.922a24.347,24.347,0,1,0-24.347,24.347,24.348,24.348,0,0,0,24.347-24.347Zm.164,0a24.511,24.511,0,1,1-24.511-24.512A24.511,24.511,0,0,1,344.269,288.922Z" transform="translate(-290.448 -262.4)" fill="#230c80"/>
          <path id="Path_4042" data-name="Path 4042" d="M344.244,288.952a24.456,24.456,0,1,0-24.456,24.456,24.456,24.456,0,0,0,24.456-24.456Zm.164,0a24.62,24.62,0,1,1-24.62-24.622A24.621,24.621,0,0,1,344.408,288.952Z" transform="translate(-290.477 -262.43)" fill="#230c80"/>
          <path id="Path_4043" data-name="Path 4043" d="M344.382,288.981a24.566,24.566,0,1,0-24.566,24.566,24.566,24.566,0,0,0,24.566-24.566Zm.164,0a24.73,24.73,0,1,1-24.73-24.731A24.729,24.729,0,0,1,344.546,288.981Z" transform="translate(-290.507 -262.459)" fill="#230c80"/>
          <path id="Path_4044" data-name="Path 4044" d="M344.521,289.01a24.675,24.675,0,1,0-24.675,24.674,24.676,24.676,0,0,0,24.675-24.674Zm.164,0a24.839,24.839,0,1,1-24.839-24.839A24.839,24.839,0,0,1,344.685,289.01Z" transform="translate(-290.536 -262.488)" fill="#230c80"/>
          <path id="Path_4045" data-name="Path 4045" d="M344.659,289.039a24.784,24.784,0,1,0-24.784,24.783,24.784,24.784,0,0,0,24.784-24.783Zm.164,0a24.948,24.948,0,1,1-24.948-24.948A24.947,24.947,0,0,1,344.823,289.039Z" transform="translate(-290.565 -262.517)" fill="#230c80"/>
          <path id="Path_4046" data-name="Path 4046" d="M344.8,289.068A24.893,24.893,0,1,0,319.9,313.96,24.894,24.894,0,0,0,344.8,289.068Zm.164,0A25.057,25.057,0,1,1,319.9,264.011,25.057,25.057,0,0,1,344.962,289.068Z" transform="translate(-290.594 -262.546)" fill="#230c80"/>
          <path id="Path_4047" data-name="Path 4047" d="M344.936,289.1a25,25,0,1,0-25,25,25,25,0,0,0,25-25Zm.164,0a25.167,25.167,0,1,1-25.167-25.166A25.166,25.166,0,0,1,345.1,289.1Z" transform="translate(-290.624 -262.575)" fill="#230c80"/>
          <path id="Path_4048" data-name="Path 4048" d="M345.075,289.127a25.112,25.112,0,1,0-25.112,25.112,25.112,25.112,0,0,0,25.112-25.112Zm.164,0a25.276,25.276,0,1,1-25.276-25.276A25.275,25.275,0,0,1,345.239,289.127Z" transform="translate(-290.653 -262.605)" fill="#230c80"/>
          <path id="Path_4049" data-name="Path 4049" d="M345.213,289.156a25.221,25.221,0,1,0-25.221,25.22,25.221,25.221,0,0,0,25.221-25.22Zm.164,0a25.385,25.385,0,1,1-25.385-25.385A25.385,25.385,0,0,1,345.377,289.156Z" transform="translate(-290.682 -262.634)" fill="#230c80"/>
          <path id="Path_4050" data-name="Path 4050" d="M345.352,289.185a25.33,25.33,0,1,0-25.33,25.329,25.33,25.33,0,0,0,25.33-25.329Zm.164,0a25.494,25.494,0,1,1-25.494-25.494A25.494,25.494,0,0,1,345.516,289.185Z" transform="translate(-290.711 -262.663)" fill="#210c80"/>
          <path id="Path_4051" data-name="Path 4051" d="M345.49,289.214a25.44,25.44,0,1,0-25.44,25.438,25.44,25.44,0,0,0,25.44-25.438Zm.164,0a25.6,25.6,0,1,1-25.6-25.6A25.6,25.6,0,0,1,345.654,289.214Z" transform="translate(-290.741 -262.692)" fill="#210c80"/>
          <path id="Path_4052" data-name="Path 4052" d="M345.629,289.244a25.549,25.549,0,1,0-25.549,25.548,25.549,25.549,0,0,0,25.549-25.548Zm.164,0a25.713,25.713,0,1,1-25.713-25.713A25.712,25.712,0,0,1,345.793,289.244Z" transform="translate(-290.77 -262.722)" fill="#210c80"/>
          <path id="Path_4053" data-name="Path 4053" d="M345.767,289.273a25.658,25.658,0,1,0-25.658,25.657,25.659,25.659,0,0,0,25.658-25.657Zm.163,0a25.821,25.821,0,1,1-25.821-25.822A25.821,25.821,0,0,1,345.93,289.273Z" transform="translate(-290.799 -262.751)" fill="#210c80"/>
          <path id="Path_4054" data-name="Path 4054" d="M345.9,289.3a25.767,25.767,0,1,0-25.766,25.766A25.766,25.766,0,0,0,345.9,289.3Zm.164,0a25.931,25.931,0,1,1-25.93-25.931A25.93,25.93,0,0,1,346.068,289.3Z" transform="translate(-290.828 -262.78)" fill="#210c80"/>
          <path id="Path_4055" data-name="Path 4055" d="M346.043,289.332a25.876,25.876,0,1,0-25.875,25.875,25.875,25.875,0,0,0,25.875-25.875Zm.164,0a26.04,26.04,0,1,1-26.039-26.041A26.039,26.039,0,0,1,346.207,289.332Z" transform="translate(-290.858 -262.809)" fill="#210c80"/>
          <path id="Path_4056" data-name="Path 4056" d="M346.181,289.361A25.985,25.985,0,1,0,320.2,315.345a25.985,25.985,0,0,0,25.985-25.985Zm.164,0a26.149,26.149,0,1,1-26.148-26.15A26.149,26.149,0,0,1,346.345,289.361Z" transform="translate(-290.887 -262.839)" fill="#210c80"/>
          <path id="Path_4057" data-name="Path 4057" d="M346.32,289.39a26.094,26.094,0,1,0-26.094,26.094A26.094,26.094,0,0,0,346.32,289.39Zm.164,0a26.258,26.258,0,1,1-26.258-26.259A26.258,26.258,0,0,1,346.484,289.39Z" transform="translate(-290.916 -262.868)" fill="#210c80"/>
          <path id="Path_4058" data-name="Path 4058" d="M346.458,289.419a26.2,26.2,0,1,0-26.2,26.2,26.2,26.2,0,0,0,26.2-26.2Zm.164,0a26.368,26.368,0,1,1-26.367-26.368A26.367,26.367,0,0,1,346.622,289.419Z" transform="translate(-290.945 -262.897)" fill="#210c80"/>
          <path id="Path_4059" data-name="Path 4059" d="M346.6,289.449a26.313,26.313,0,1,0-26.312,26.312A26.313,26.313,0,0,0,346.6,289.449Zm.164,0a26.476,26.476,0,1,1-26.476-26.477A26.476,26.476,0,0,1,346.76,289.449Z" transform="translate(-290.974 -262.926)" fill="#210d81"/>
          <path id="Path_4060" data-name="Path 4060" d="M346.735,289.478A26.422,26.422,0,1,0,320.313,315.9a26.422,26.422,0,0,0,26.421-26.422Zm.164,0a26.585,26.585,0,1,1-26.585-26.587A26.586,26.586,0,0,1,346.9,289.478Z" transform="translate(-291.004 -262.956)" fill="#210d81"/>
          <path id="Path_4061" data-name="Path 4061" d="M346.873,289.507a26.531,26.531,0,1,0-26.531,26.531,26.532,26.532,0,0,0,26.531-26.531Zm.164,0a26.695,26.695,0,1,1-26.695-26.7A26.695,26.695,0,0,1,347.037,289.507Z" transform="translate(-291.033 -262.985)" fill="#1f0c80"/>
          <path id="Path_4062" data-name="Path 4062" d="M347.012,289.536a26.64,26.64,0,1,0-26.64,26.64,26.64,26.64,0,0,0,26.64-26.64Zm.164,0a26.8,26.8,0,1,1-26.8-26.805A26.8,26.8,0,0,1,347.176,289.536Z" transform="translate(-291.062 -263.014)" fill="#210c80"/>
          <path id="Path_4063" data-name="Path 4063" d="M347.15,289.566A26.749,26.749,0,1,0,320.4,316.315a26.75,26.75,0,0,0,26.749-26.749Zm.164,0A26.913,26.913,0,1,1,320.4,262.651,26.913,26.913,0,0,1,347.314,289.566Z" transform="translate(-291.091 -263.043)" fill="#1f0c80"/>
          <path id="Path_4064" data-name="Path 4064" d="M347.289,289.594a26.859,26.859,0,1,0-26.859,26.859,26.859,26.859,0,0,0,26.859-26.859Zm.164,0a27.022,27.022,0,1,1-27.022-27.022A27.022,27.022,0,0,1,347.453,289.594Z" transform="translate(-291.12 -263.072)" fill="#1f0c80"/>
          <path id="Path_4065" data-name="Path 4065" d="M347.427,289.624A26.968,26.968,0,1,0,320.46,316.59a26.969,26.969,0,0,0,26.968-26.966Zm.164,0a27.132,27.132,0,1,1-27.132-27.132A27.131,27.131,0,0,1,347.591,289.624Z" transform="translate(-291.15 -263.102)" fill="#1f0c80"/>
          <path id="Path_4066" data-name="Path 4066" d="M347.566,289.653a27.077,27.077,0,1,0-27.077,27.076,27.077,27.077,0,0,0,27.077-27.076Zm.164,0a27.241,27.241,0,1,1-27.241-27.241A27.242,27.242,0,0,1,347.73,289.653Z" transform="translate(-291.179 -263.131)" fill="#1f0c80"/>
          <path id="Path_4067" data-name="Path 4067" d="M347.7,289.682a27.186,27.186,0,1,0-27.186,27.185A27.186,27.186,0,0,0,347.7,289.682Zm.164,0a27.35,27.35,0,1,1-27.35-27.35A27.35,27.35,0,0,1,347.868,289.682Z" transform="translate(-291.208 -263.16)" fill="#1e0d81"/>
          <path id="Path_4068" data-name="Path 4068" d="M347.843,289.711a27.3,27.3,0,1,0-27.3,27.3,27.295,27.295,0,0,0,27.3-27.3Zm.164,0a27.459,27.459,0,1,1-27.459-27.459A27.459,27.459,0,0,1,348.007,289.711Z" transform="translate(-291.237 -263.189)" fill="#1e0d81"/>
          <path id="Path_4069" data-name="Path 4069" d="M347.981,289.741a27.4,27.4,0,1,0-27.4,27.4,27.4,27.4,0,0,0,27.4-27.4Zm.164,0a27.569,27.569,0,1,1-27.569-27.569A27.568,27.568,0,0,1,348.145,289.741Z" transform="translate(-291.267 -263.219)" fill="#1e0d81"/>
          <path id="Path_4070" data-name="Path 4070" d="M348.12,289.77a27.514,27.514,0,1,0-27.514,27.513A27.514,27.514,0,0,0,348.12,289.77Zm.164,0a27.678,27.678,0,1,1-27.678-27.678A27.678,27.678,0,0,1,348.284,289.77Z" transform="translate(-291.296 -263.248)" fill="#1e0d81"/>
          <path id="Path_4071" data-name="Path 4071" d="M348.258,289.8a27.623,27.623,0,1,0-27.623,27.622A27.623,27.623,0,0,0,348.258,289.8Zm.164,0a27.787,27.787,0,1,1-27.787-27.787A27.787,27.787,0,0,1,348.422,289.8Z" transform="translate(-291.325 -263.277)" fill="#1e0d81"/>
          <path id="Path_4072" data-name="Path 4072" d="M348.4,289.828a27.733,27.733,0,1,0-27.732,27.731A27.732,27.732,0,0,0,348.4,289.828Zm.164,0a27.9,27.9,0,1,1-27.9-27.9A27.9,27.9,0,0,1,348.561,289.828Z" transform="translate(-291.355 -263.306)" fill="#1e0d81"/>
          <path id="Path_4073" data-name="Path 4073" d="M348.521,289.843a27.842,27.842,0,1,0-27.842,27.84,27.842,27.842,0,0,0,27.842-27.84Zm.109,0a27.951,27.951,0,1,1-27.951-27.951A27.951,27.951,0,0,1,348.63,289.843Z" transform="translate(-291.369 -263.321)" fill="#1e0d81"/>
        </g>
      </g>
    </g>
    <path id="Path_4075" data-name="Path 4075" d="M294.782,264.112l-3.122,47.768,50.044.588,5.715-49.418Z" transform="translate(-291.66 -262.897)" fill="url(#radial-gradient)"/>
    <path id="Path_4076" data-name="Path 4076" d="M326.644,276.829a2.069,2.069,0,0,1-2.026,1.856,1.679,1.679,0,0,1-1.695-1.864,2.068,2.068,0,0,1,2.025-1.857,1.681,1.681,0,0,1,1.7,1.865Zm-11.33,13.383a4.641,4.641,0,0,1-4.646-5.185,5.714,5.714,0,0,1,5.626-5.094,4.641,4.641,0,0,1,4.646,5.185,5.714,5.714,0,0,1-5.626,5.094Zm1.185-13.082a8.837,8.837,0,0,0-8.639,7.944,7.174,7.174,0,0,0,7.257,7.952,8.836,8.836,0,0,0,8.639-7.944,7.176,7.176,0,0,0-7.257-7.952Zm11.034,15.715a112.71,112.71,0,0,0,1.378-15.221,4.717,4.717,0,0,0-4.246-4.942,109.223,109.223,0,0,0-15.252-.061,5.849,5.849,0,0,0-5.315,4.662,104.917,104.917,0,0,0-1.348,15.643,4.55,4.55,0,0,0,3.477,4.378c2.263.649,13.443.5,15.965.224a5.861,5.861,0,0,0,5.341-4.683Zm4.191-15.489a7.522,7.522,0,0,0-2.05-5.29,7.875,7.875,0,0,0-5.484-2.308c-3.626-.2-12.266-.324-15.347.171a8.768,8.768,0,0,0-7.225,6.02c-.967,2.638-1.871,14.794-1.665,17.4a7.02,7.02,0,0,0,5.643,6.761c2.391.631,14.414.55,17.148.113a8.8,8.8,0,0,0,7.326-6.2C331.012,291.317,331.76,279.8,331.724,277.356Z" transform="translate(-288.634 -263.955)" fill="url(#radial-gradient-2)"/>
    <path id="Path_4077" data-name="Path 4077" d="M326.644,276.829a2.069,2.069,0,0,1-2.026,1.856,1.679,1.679,0,0,1-1.695-1.864,2.068,2.068,0,0,1,2.025-1.857,1.681,1.681,0,0,1,1.7,1.865Zm-11.33,13.383a4.641,4.641,0,0,1-4.646-5.185,5.714,5.714,0,0,1,5.626-5.094,4.641,4.641,0,0,1,4.646,5.185,5.714,5.714,0,0,1-5.626,5.094Zm1.185-13.082a8.837,8.837,0,0,0-8.639,7.944,7.174,7.174,0,0,0,7.257,7.952,8.836,8.836,0,0,0,8.639-7.944,7.176,7.176,0,0,0-7.257-7.952Zm11.034,15.715a112.71,112.71,0,0,0,1.378-15.221,4.717,4.717,0,0,0-4.246-4.942,109.223,109.223,0,0,0-15.252-.061,5.849,5.849,0,0,0-5.315,4.662,104.917,104.917,0,0,0-1.348,15.643,4.55,4.55,0,0,0,3.477,4.378c2.263.649,13.443.5,15.965.224a5.861,5.861,0,0,0,5.341-4.683Zm4.191-15.489a7.522,7.522,0,0,0-2.05-5.29,7.875,7.875,0,0,0-5.484-2.308c-3.626-.2-12.266-.324-15.347.171a8.768,8.768,0,0,0-7.225,6.02c-.967,2.638-1.871,14.794-1.665,17.4a7.02,7.02,0,0,0,5.643,6.761c2.391.631,14.414.55,17.148.113a8.8,8.8,0,0,0,7.326-6.2C331.012,291.317,331.76,279.8,331.724,277.356Z" transform="translate(-288.634 -263.955)" fill="#fff"/>
  </g>
</svg>
