<svg id="Group_3018" data-name="Group 3018" xmlns="http://www.w3.org/2000/svg" xmlns:xlink="http://www.w3.org/1999/xlink" width="58.621" height="53.043" viewBox="0 0 58.621 53.043">
  <defs>
    <linearGradient id="linear-gradient" x1="0.714" y1="0.523" x2="0.306" y2="0.602" gradientUnits="objectBoundingBox">
      <stop offset="0" stop-color="#a4dbb3"/>
      <stop offset="1" stop-color="#3ea3a9"/>
    </linearGradient>
    <linearGradient id="linear-gradient-2" x1="-0.026" y1="0.56" x2="1.027" y2="0.456" xlink:href="#linear-gradient"/>
  </defs>
  <path id="Path_3815" data-name="Path 3815" d="M364.854,299.25l-28.2,45.706,4.934,4.176,47.971-.265,5.714-49.419-2.946-3.359Z" transform="translate(-336.657 -296.089)" fill="url(#linear-gradient)"/>
  <path id="Path_3816" data-name="Path 3816" d="M339.708,297.263l-3.122,47.769,50.045.588,5.714-49.418Z" transform="translate(-336.585 -296.014)" fill="url(#linear-gradient-2)"/>
  <path id="Path_3817" data-name="Path 3817" d="M356.393,326.207a7.317,7.317,0,0,1-6.788-5.064,7.253,7.253,0,0,0,3.127-.094l.105-.048a7.286,7.286,0,0,1-4.739-3.347,7.092,7.092,0,0,1-1.069-3.881,7.174,7.174,0,0,0,3.246.885,7.33,7.33,0,0,1-3-4.426,7.224,7.224,0,0,1,.783-5.285,20.876,20.876,0,0,0,15.047,7.624c-.042-.288-.087-.542-.116-.8a7.295,7.295,0,0,1,12.4-6.035.369.369,0,0,0,.388.116,14.728,14.728,0,0,0,4.244-1.631l.1-.05.049,0a7.462,7.462,0,0,1-3.124,3.97,13.98,13.98,0,0,0,4.064-1.092l.029.033c-.28.366-.549.739-.839,1.094a14.3,14.3,0,0,1-2.652,2.52.251.251,0,0,0-.122.229,20.088,20.088,0,0,1-.135,3.241,21.526,21.526,0,0,1-1.879,6.5,21.019,21.019,0,0,1-3.945,5.752A19.5,19.5,0,0,1,361.537,332a21.883,21.883,0,0,1-4.065.483,20.623,20.623,0,0,1-11.676-3.133c-.045-.027-.09-.06-.171-.112a14.761,14.761,0,0,0,7.3-1.006A14.455,14.455,0,0,0,356.393,326.207Z" transform="translate(-333.322 -293.508)" fill="#fff"/>
</svg>
